<svg width="130" height="130" viewBox="0 0 130 130" fill="none" xmlns="http://www.w3.org/2000/svg">
<path d="M68.5549 39.6094C69.4033 40.4845 70.1376 41.4131 70.8956 42.3666C71.592 43.2529 71.592 43.2529 72.8079 43.7671C74.2359 43.6651 74.8444 43.341 76.0769 42.6562C78.4078 41.394 79.709 41.4359 82.2659 42.1484C83.9618 43.2545 84.6616 44.0819 85.1302 46.0622C85.2911 47.0516 85.4283 48.0453 85.5389 49.0416C85.7133 50.4541 85.7133 50.4541 87.344 51.2891C88.401 51.4264 88.401 51.4264 89.5339 51.4477C92.0974 51.6736 93.182 52.5123 94.9612 54.3359C95.562 55.5375 95.5368 56.3001 95.5325 57.6367C95.5338 58.0399 95.5351 58.4432 95.5364 58.8586C95.469 59.9219 95.469 59.9219 94.9612 60.9375C95.3665 60.9016 95.7718 60.8657 96.1894 60.8286C100.859 60.4512 105.49 60.3507 110.173 60.3635C111.391 60.3663 112.61 60.3635 113.829 60.3603C114.605 60.3606 115.38 60.3612 116.156 60.3622C116.702 60.3607 116.702 60.3607 117.259 60.3591C119.786 60.3713 119.786 60.3713 120.352 60.9375C120.606 62.2586 120.606 62.2586 120.352 63.9844C119.321 65.3962 118.077 66.5455 116.797 67.7295C116.458 68.0548 116.119 68.3802 115.77 68.7154C114.934 69.5155 114.091 70.3076 113.242 71.0937C113.895 72.5265 114.578 73.5671 115.69 74.6782C115.962 74.958 116.234 75.2379 116.513 75.5262C117.084 76.1057 117.658 76.6823 118.235 77.2559C120.303 79.4009 120.303 79.4009 120.57 81.1726C120.352 82.2656 120.352 82.2656 119.844 82.7734C119.08 82.8207 118.314 82.8331 117.549 82.8311C116.817 82.831 116.817 82.831 116.07 82.831C115.54 82.8283 115.009 82.8257 114.462 82.823C113.922 82.8223 113.382 82.8216 112.825 82.8208C111.092 82.818 109.358 82.8116 107.625 82.8052C106.453 82.8026 105.281 82.8003 104.109 82.7982C101.229 82.7926 98.3489 82.7841 95.469 82.7734C95.6035 83.7367 95.6035 83.7367 95.7408 84.7194C96.0031 86.598 95.9948 87.7123 94.9612 89.375C92.8552 91.6351 91.4038 92.2044 88.3358 92.3505C87.3035 92.3613 87.3035 92.3613 86.3284 92.9297C86.1547 93.8972 86.0242 94.8726 85.9158 95.8496C85.5979 97.9409 85.4183 98.8808 84.1384 100.61C82.0782 102.048 80.9756 102.63 78.4255 102.451C76.6799 102.07 76.6799 102.07 75.6008 101.499C74.6367 100.972 74.6367 100.972 73.4109 101.023C71.7091 101.729 71.1684 102.711 70.2351 104.258C69.1885 105.611 68.1056 106.055 66.4305 106.286C64.0092 106.298 62.3396 106.254 60.4299 104.609C59.5075 103.46 58.7053 102.288 57.8909 101.055C56.0848 101.355 56.0848 101.355 54.4314 102.102C52.7333 102.83 51.0606 102.815 49.2581 102.578C47.6202 101.814 46.3323 100.934 45.1956 99.5312C44.7135 97.9384 44.7135 97.9384 44.3386 96.1352C44.211 95.5363 44.0833 94.9373 43.9518 94.3202C43.8595 93.8613 43.7672 93.4025 43.6721 92.9297C43.0565 92.8639 43.0565 92.8639 42.4284 92.7968C38.0251 92.2178 38.0251 92.2178 35.9915 90.835C34.8415 89.0717 34.089 87.4371 34.0237 85.3125C34.328 84.2861 34.6617 83.2674 35.0393 82.2656C34.7132 82.281 34.3872 82.2964 34.0512 82.3122C28.0336 82.5901 22.0211 82.8248 15.9963 82.8369C15.2784 82.8403 15.2784 82.8403 14.546 82.8439C14.1082 82.8429 13.6704 82.8419 13.2192 82.8409C12.8347 82.8403 12.4501 82.8397 12.0538 82.8391C11.1721 82.7734 11.1721 82.7734 10.6643 82.2656C10.4997 81.1032 10.4997 81.1032 10.6643 79.7266C11.5748 78.6038 11.5748 78.6038 12.7908 77.5049C14.7862 75.6848 16.2539 73.8204 17.7737 71.6016C17.5429 71.3868 17.3122 71.172 17.0744 70.9507C16.03 69.9697 14.9976 68.9769 13.9651 67.9834C13.6018 67.6456 13.2385 67.3078 12.8642 66.9598C10.2194 64.3907 10.2194 64.3907 9.88672 62.2427C10.1565 60.9375 10.1565 60.9375 10.6643 60.4297C12.1613 60.3782 13.6462 60.3588 15.1434 60.3622C15.5964 60.3618 16.0493 60.3613 16.516 60.3608C17.4783 60.3604 18.4405 60.3614 19.4027 60.3635C20.8672 60.3662 22.3316 60.3635 23.796 60.3603C24.731 60.3606 25.6659 60.3612 26.6009 60.3622C27.0364 60.3612 27.4718 60.3602 27.9205 60.3591C30.3469 60.3685 32.6463 60.5316 35.0393 60.9375C34.8717 60.6023 34.7042 60.2672 34.5315 59.9219C34.1372 57.4711 34.1975 55.4131 35.6741 53.352C37.557 51.3876 39.7306 51.2282 42.347 50.9776C43.7511 50.904 43.7511 50.904 44.6877 49.7656C44.8553 48.9566 44.9887 48.1403 45.1003 47.3218C45.54 44.8878 46.2421 43.6987 48.2424 42.1484C49.9996 41.2698 51.9509 41.7534 53.8284 42.1484C54.5102 42.6498 55.1879 43.1569 55.8596 43.6719C58.0886 43.8674 59.0537 43.9123 60.9377 42.6562C61.2943 41.8173 61.6333 40.9707 61.9534 40.1172C64.0493 38.0212 65.925 38.5211 68.5549 39.6094ZM61.6042 42.8784C59.4753 45.1648 59.4753 45.1648 58.3987 45.7031C57.3354 45.6595 57.3354 45.6595 56.1135 45.5127C55.7103 45.4669 55.3071 45.421 54.8916 45.3738C53.8284 45.1953 53.8284 45.1953 52.8127 44.6875C51.3108 44.4335 51.3108 44.4335 49.7659 44.6875C48.0985 46.4699 48.0511 48.3577 47.9905 50.688C47.6262 52.2668 46.974 52.8408 45.7034 53.8281C44.2077 54.324 44.2077 54.324 42.593 54.6533C40.3509 55.0483 40.3509 55.0483 38.594 56.3672C38.7239 57.861 38.8971 59.0528 39.6414 60.3662C40.389 62.0608 40.3953 63.7086 40.1174 65.5078C38.8642 68.0142 37.3837 69.2006 35.0393 70.5859C35.0196 71.7719 35.0196 71.7719 35.5471 73.125C36.4037 73.8438 37.2859 74.4221 38.2429 74.9995C39.588 76.0402 40.037 77.1206 40.2702 78.7863C40.284 81.4097 39.8501 82.9641 38.594 85.3125C38.7753 86.3957 38.7753 86.3957 39.1018 87.3437C39.5489 87.4243 39.996 87.5048 40.4566 87.5877C45.1749 88.5356 45.1749 88.5356 47.322 89.8828C48.4838 91.8057 48.7535 93.5475 49.026 95.7603C49.1547 97.0797 49.1547 97.0797 50.2737 98.0078C51.6655 97.8753 52.9613 97.61 54.2985 97.2005C56.8285 96.4488 58.4699 96.2885 60.9377 97.5C62.2665 98.9304 63.3989 100.455 64.4924 102.07C65.7232 101.879 66.3513 101.775 67.1525 100.789C67.3325 100.479 67.5125 100.168 67.698 99.8486C69.0389 97.8618 70.2611 97.1234 72.6174 96.4844C74.783 96.4644 76.3711 96.7863 78.2034 98.0078C79.8847 97.8642 79.8847 97.8642 81.2502 96.9922C81.3872 96.105 81.5121 95.2159 81.6311 94.3262C81.9645 92.5162 82.2462 91.4383 83.218 89.8511C85.2858 88.569 87.1532 88.422 89.5558 88.2324C91.0015 87.9858 91.0015 87.9858 91.6346 86.6574C92.0406 84.7052 91.1942 83.5499 90.3909 81.7578C90.1258 79.5997 90.2255 78.5275 91.2161 76.5845C92.4221 75.1562 92.4221 75.1562 94.0725 74.1089C94.5333 73.7842 94.9942 73.4595 95.469 73.125C95.7496 71.8894 95.7496 71.8894 95.469 70.5859C94.6278 69.6047 94.6278 69.6047 93.5012 68.8086C90.7398 66.5359 90.7398 66.5359 90.3909 64.4922C90.4461 62.3399 90.6947 60.7356 91.9143 58.9062C92.0836 57.6153 92.0836 57.6153 91.9143 56.3672C90.6397 55.0925 89.9642 55.1561 88.2009 54.939C85.5202 54.4998 84.3948 53.9584 82.7737 51.7969C82.0513 50.3521 82.1001 48.9223 82.0001 47.3238C81.7088 45.9844 81.333 45.493 80.2346 44.6875C78.6305 44.7921 77.4451 45.0632 76.0134 45.7983C73.8615 46.4489 72.0948 46.1827 70.0784 45.1953C69.0349 44.0541 68.2073 42.8998 67.3885 41.589C66.5944 40.5173 66.5944 40.5173 65.2998 40.3453C63.5087 40.7262 62.8333 41.5409 61.6042 42.8784ZM93.9456 63.4766C94.1343 64.842 94.3227 65.3926 95.3738 66.3191C95.9236 66.6873 95.9236 66.6873 96.4846 67.063C98.4625 68.3945 98.4625 68.3945 99.0237 70.0781C99.2216 72.1764 99.1634 73.3587 98.1985 75.2515C96.9204 76.7649 95.5885 77.6281 93.9456 78.7109C93.9456 79.2137 93.9456 79.7164 93.9456 80.2344C94.5583 80.1882 94.5583 80.1882 95.1833 80.1411C101.367 79.7004 107.556 79.4581 113.75 79.2187C112.08 77.1452 110.491 75.5114 108.345 73.9323C107.656 73.125 107.656 73.125 107.413 71.9289C107.751 70.0666 108.635 69.2671 109.942 67.9199C111.423 66.6437 111.423 66.6437 112.227 65C109.276 64.5142 106.359 64.3529 103.372 64.2383C100.2 64.116 97.0898 63.9179 93.9456 63.4766ZM23.4866 64.2383C22.6559 64.2746 22.6559 64.2746 21.8084 64.3117C20.4634 64.3707 19.1185 64.4308 17.7737 64.4922C18.2499 65.052 18.7268 65.6113 19.2039 66.1703C19.4694 66.4819 19.7349 66.7934 20.0084 67.1143C20.5269 67.7096 21.0572 68.295 21.602 68.8664C22.3123 69.6338 22.3123 69.6338 23.3596 71.0937C23.2455 73.3013 22.4329 74.2816 20.8523 75.7593C20.4916 76.1016 20.1309 76.444 19.7593 76.7967C19.2792 77.2415 19.2792 77.2415 18.7893 77.6953C18.4542 78.0305 18.119 78.3656 17.7737 78.7109C21.6744 79.2117 25.5561 79.377 29.4851 79.5044C30.1184 79.5263 30.7518 79.5482 31.4043 79.5708C32.9545 79.6243 34.5047 79.6762 36.0549 79.7266C35.6826 78.073 35.6826 78.073 34.0872 77.2827C32.2439 75.9925 31.6616 75.2598 30.9768 73.125C30.8318 70.6376 31.1017 69.0412 32.6589 67.063C33.779 66.2034 34.7532 65.5303 36.0549 65C36.0549 64.6648 36.0549 64.3297 36.0549 63.9844C31.8574 63.9505 27.6795 64.0467 23.4866 64.2383Z" fill="#103255"/>
<path d="M64.4923 52.8124C65.3034 52.834 65.3034 52.834 66.1308 52.8561C72.0281 53.1516 76.3515 54.4952 80.659 58.6523C82.34 60.5942 83.379 62.6148 84.297 64.9999C84.517 65.555 84.7369 66.1101 84.9635 66.6821C86.1649 73.1261 85.0955 78.6814 81.5794 84.1698C78.7591 88.0194 73.7938 91.1255 69.0626 91.914C62.1456 92.3844 56.2488 91.4868 50.7814 86.8359C46.1561 81.9816 44.5062 76.8554 44.5805 70.2526C44.9022 65.1539 47.1615 60.1738 50.9401 56.6845C55.0843 53.4263 59.3751 52.6734 64.4923 52.8124ZM53.3482 60.0369C49.9521 64.6266 48.6077 68.9273 49.2579 74.6484C50.4102 79.5893 52.5769 82.7779 56.8434 85.4711C60.7578 87.662 64.531 88.6068 68.9297 87.5024C74.135 85.7745 77.681 83.1039 80.2345 78.2031C82.111 73.9706 82.0656 69.8777 80.7106 65.476C78.9612 61.3488 75.733 57.6549 71.6017 55.8593C64.9548 53.5563 58.2155 54.4658 53.3482 60.0369Z" fill="#103255"/>
<path d="M110.195 33.0078C110.53 33.0078 110.866 33.0078 111.211 33.0078C112.216 35.1863 113.222 37.3648 114.258 39.6094C115.253 39.6827 116.248 39.756 117.273 39.8315C120.288 40.0537 120.288 40.0537 120.859 40.625C121.018 41.8211 121.018 41.8211 120.859 43.1641C119.971 44.0785 119.971 44.0785 118.828 44.8462C118.451 45.1061 118.074 45.3659 117.686 45.6337C117.392 45.8242 117.099 46.0147 116.797 46.2109C116.87 46.5114 116.944 46.8119 117.019 47.1214C118.002 51.3039 118.002 51.3039 117.812 53.3203C117.305 53.8281 117.305 53.8281 116.226 54.0186C114.623 53.8096 114.212 53.4786 112.988 52.4951C112.105 51.7912 112.105 51.7912 111.211 51.2891C109.469 51.5794 108.728 52.2556 107.402 53.4155C106.133 54.3359 106.133 54.3359 104.736 54.2407C103.594 53.8281 103.594 53.8281 103.086 53.3203C103.31 51.0842 103.648 48.9194 104.102 46.7188C103.814 46.4857 103.527 46.2527 103.231 46.0126C102.858 45.701 102.486 45.3894 102.102 45.0684C101.731 44.762 101.36 44.4557 100.977 44.14C99.9719 43.0942 99.6206 42.5733 99.5312 41.1328C99.8664 40.6301 100.202 40.1273 100.547 39.6094C102.201 39.4606 102.201 39.4606 104.165 39.5142C105.141 39.5348 105.141 39.5348 106.137 39.5558C106.638 39.5735 107.14 39.5912 107.656 39.6094C107.718 39.2356 107.781 38.8618 107.845 38.4767C108.152 37.1248 108.57 36.1017 109.211 34.8804C109.395 34.5262 109.579 34.1721 109.769 33.8072C109.91 33.5434 110.05 33.2796 110.195 33.0078ZM110.703 39.1016C110.536 40.2746 110.368 41.4477 110.195 42.6562C108.855 42.6562 107.514 42.6562 106.133 42.6562C106.468 42.9286 106.803 43.2009 107.148 43.4814C108.164 44.6875 108.164 44.6875 108.291 46.3379C108.249 46.7987 108.207 47.2596 108.164 47.7344C108.436 47.5563 108.709 47.3783 108.989 47.1948C110.567 46.5719 111.614 46.8566 113.242 47.2266C113.179 46.661 113.179 46.661 113.115 46.084C113.278 44.2906 113.929 43.7905 115.273 42.6562C114.1 42.6562 112.927 42.6562 111.719 42.6562C111.551 41.4832 111.384 40.3102 111.211 39.1016C111.043 39.1016 110.876 39.1016 110.703 39.1016Z" fill="#103255"/>
<path d="M89.8829 16.25C90.2181 16.25 90.5532 16.25 90.8986 16.25C91.4088 17.2432 91.9161 18.238 92.422 19.2334C92.7048 19.7872 92.9876 20.341 93.2789 20.9116C93.9454 22.3438 93.9454 22.3438 93.9454 23.3594C95.9564 23.3594 97.9673 23.3594 100.039 23.3594C100.374 24.0297 100.709 24.7 101.055 25.3906C99.6061 26.8795 98.1853 28.2563 96.4845 29.4531C96.7359 30.3643 96.7359 30.3643 96.9923 31.2939C97.4419 33.089 97.6362 34.7028 97.5001 36.5625C96.9923 37.0703 96.9923 37.0703 95.9132 37.2607C93.8093 36.9863 92.5199 35.8395 90.8986 34.5312C89.5873 35.114 88.7306 35.6728 87.6613 36.6577C86.3282 37.5781 86.3282 37.5781 84.6461 37.4512C84.1958 37.3255 83.7454 37.1998 83.2814 37.0703C82.7326 35.0535 82.8456 33.8073 83.5035 31.8335C83.6495 31.3851 83.7955 30.9367 83.9459 30.4747C84.0618 30.1376 84.1776 29.8005 84.297 29.4531C83.9906 29.3045 83.6843 29.1559 83.3687 29.0028C81.9548 28.2781 80.8681 27.516 79.7267 26.4062C79.5045 25.0732 79.5045 25.0732 79.7267 23.8672C80.7423 22.8516 80.7423 22.8516 82.2856 22.7524C83.187 22.7701 83.187 22.7701 84.1066 22.7881C85.0119 22.8018 85.0119 22.8018 85.9355 22.8159C86.4003 22.8276 86.865 22.8394 87.3439 22.8516C87.4944 22.3894 87.645 21.9273 87.8001 21.4511C88.4073 19.664 89.1233 17.9764 89.8829 16.25ZM90.3907 22.8516C90.2232 23.857 90.0556 24.8625 89.8829 25.8984C88.5423 25.8984 87.2017 25.8984 85.8204 25.8984C86.1556 26.1708 86.4907 26.4431 86.8361 26.7236C87.8517 27.9297 87.8517 27.9297 87.9786 29.5801C87.9367 30.0409 87.8948 30.5018 87.8517 30.9766C88.124 30.7985 88.3963 30.6205 88.6769 30.437C90.255 29.8141 91.3019 30.0988 92.9298 30.4688C92.8774 30.0917 92.8251 29.7146 92.7711 29.3262C92.9298 27.9297 92.9298 27.9297 94.1993 26.7554C94.6183 26.4726 95.0372 26.1898 95.4689 25.8984C94.2958 25.7309 93.1228 25.5633 91.9142 25.3906C91.579 24.5527 91.2439 23.7148 90.8986 22.8516C90.731 22.8516 90.5634 22.8516 90.3907 22.8516Z" fill="#103255"/>
<path d="M19.297 33.0078C19.6322 33.0078 19.9673 33.0078 20.3126 33.0078C20.8229 34.001 21.3301 34.9958 21.8361 35.9912C22.1188 36.545 22.4016 37.0988 22.693 37.6694C23.3595 39.1016 23.3595 39.1016 23.3595 40.1172C25.3704 40.1172 27.3814 40.1172 29.4532 40.1172C29.7884 40.7875 30.1236 41.4578 30.4689 42.1484C29.0202 43.6373 27.5993 45.0141 25.8986 46.2109C26.1499 47.1221 26.1499 47.1221 26.4064 48.0518C26.8597 49.8458 27.0071 51.4621 26.9142 53.3203C25.8986 53.7329 25.8986 53.7329 24.3751 53.8281C23.2854 53.211 22.3061 52.5223 21.3104 51.7632C20.3199 51.1498 20.3199 51.1498 19.2653 51.6501C18.4214 52.2115 17.6026 52.8102 16.7897 53.4155C15.2345 54.3359 15.2345 54.3359 13.7745 54.209C13.4184 54.0833 13.0623 53.9576 12.6954 53.8281C12.1467 51.8113 12.2597 50.5652 12.9176 48.5913C13.0636 48.1429 13.2096 47.6945 13.36 47.2325C13.4758 46.8954 13.5917 46.5583 13.7111 46.2109C13.4047 46.0623 13.0984 45.9137 12.7827 45.7607C11.3689 45.0359 10.2822 44.2738 9.14075 43.1641C8.91858 41.8311 8.91858 41.8311 9.14075 40.625C10.1564 39.6094 10.1564 39.6094 11.6996 39.5102C12.601 39.5279 12.601 39.5279 13.5206 39.5459C14.4259 39.5596 14.4259 39.5596 15.3495 39.5737C15.8143 39.5855 16.2791 39.5972 16.7579 39.6094C16.9085 39.1472 17.0591 38.6851 17.2142 38.2089C17.8214 36.4218 18.5374 34.7342 19.297 33.0078ZM19.8048 39.6094C19.6372 40.6148 19.4697 41.6203 19.297 42.6562C17.9564 42.6562 16.6157 42.6562 15.2345 42.6562C15.5697 42.9286 15.9048 43.2009 16.2501 43.4814C17.2657 44.6875 17.2657 44.6875 17.3927 46.3379C17.3508 46.7987 17.3089 47.2596 17.2657 47.7344C17.5381 47.5563 17.8104 47.3783 18.0909 47.1948C19.6691 46.5719 20.716 46.8566 22.3439 47.2266C22.2915 46.8495 22.2391 46.4725 22.1852 46.084C22.3439 44.6875 22.3439 44.6875 23.6134 43.5132C24.0323 43.2304 24.4513 42.9476 24.8829 42.6562C23.7099 42.4887 22.5368 42.3211 21.3282 42.1484C20.9931 41.3105 20.6579 40.4727 20.3126 39.6094C20.145 39.6094 19.9775 39.6094 19.8048 39.6094Z" fill="#103255"/>
<path d="M65.0001 8.125C66.4322 9.35013 66.8721 10.5004 67.5075 12.251C68.0881 13.6394 68.0881 13.6394 69.0626 14.7266C71.1135 15.3263 73.0324 15.3496 75.1564 15.2344C75.4078 16.4912 75.4078 16.4912 75.6642 17.7734C74.3236 18.7789 72.983 19.7844 71.6017 20.8203C71.675 21.3335 71.7483 21.8467 71.8239 22.3755C71.9181 23.0353 72.0124 23.6952 72.1095 24.375C72.2823 25.3333 72.2823 25.3333 72.4586 26.311C72.511 26.8452 72.5634 27.3793 72.6173 27.9297C72.2822 28.2648 71.947 28.6 71.6017 28.9453C69.8262 28.8467 68.9849 28.3836 67.5075 27.3584C66.1636 26.3123 66.1636 26.3123 64.9684 26.4062C63.8873 26.9152 63.8873 26.9152 62.7785 27.9614C61.1771 29.1434 60.345 29.1665 58.3986 28.9453C57.8908 28.4375 57.8908 28.4375 57.7956 26.8188C57.8875 24.9501 58.2304 23.5681 58.9064 21.8359C58.5706 21.5721 58.2348 21.3083 57.8888 21.0365C57.46 20.6824 57.0313 20.3283 56.5895 19.9634C56.1594 19.6158 55.7294 19.2682 55.2863 18.9101C54.3361 17.7734 54.3361 17.7734 54.4174 16.3988C54.8439 15.2344 54.8439 15.2344 55.3517 14.7266C55.8093 14.7442 56.2668 14.7619 56.7383 14.7801C58.6375 14.8252 60.1294 14.7698 61.9533 14.2188C63.4511 12.3532 64.2535 10.3854 65.0001 8.125ZM65.508 14.7266C65.1728 15.5645 64.8376 16.4023 64.4923 17.2656C63.1517 17.2656 61.8111 17.2656 60.4298 17.2656C60.7545 17.5379 61.0792 17.8103 61.4137 18.0908C62.6567 19.5222 62.7999 20.4844 62.9689 22.3438C63.5345 22.1657 64.1001 21.9876 64.6828 21.8042C66.5236 21.3281 66.5236 21.3281 67.5392 21.8359C67.5392 20.998 67.5392 20.1602 67.5392 19.2969C68.3771 18.9617 69.215 18.6266 70.0783 18.2812C70.0783 18.1137 70.0783 17.9461 70.0783 17.7734C68.9052 17.7734 67.7322 17.7734 66.5236 17.7734C66.356 16.768 66.1884 15.7625 66.0158 14.7266C65.8482 14.7266 65.6806 14.7266 65.508 14.7266Z" fill="#103255"/>
<path d="M37.578 15.2344C39.1014 15.7422 39.1014 15.7422 39.8056 16.978C40.0236 17.4814 40.2416 17.9848 40.4662 18.5034C40.7991 19.2565 40.7991 19.2565 41.1386 20.0249C41.6405 21.3281 41.6405 21.3281 41.6405 22.3438C43.819 22.3438 45.9975 22.3438 48.2421 22.3438C48.4934 23.3492 48.4934 23.3492 48.7499 24.375C47.3928 25.9647 45.8857 27.2369 44.1796 28.4375C44.4309 29.3487 44.4309 29.3487 44.6874 30.2783C45.1407 32.0724 45.2881 33.6887 45.1952 35.5469C44.1478 35.9595 44.1478 35.9595 42.6561 36.0547C41.6861 35.4549 40.8489 34.7868 39.9881 34.0393C39.1208 33.4085 39.1208 33.4085 38.0521 33.6247C36.9569 34.0078 36.9569 34.0078 35.8641 35.0708C34.2546 36.2588 33.4419 36.3157 31.4843 36.0547C31.1491 35.7195 30.8139 35.3844 30.4686 35.0391C30.6273 33.3887 30.6273 33.3887 30.9764 31.4844C31.0707 30.9083 31.165 30.3323 31.2621 29.7388C31.3354 29.3094 31.4087 28.8799 31.4843 28.4375C31.191 28.2529 30.8977 28.0683 30.5956 27.8781C29.4523 27.104 28.4138 26.3523 27.4218 25.3906C27.1361 23.7085 27.1361 23.7085 27.4218 22.3438C27.9296 21.8359 27.9296 21.8359 29.5343 21.7863C30.5153 21.7952 30.5153 21.7952 31.516 21.8042C32.1712 21.8088 32.8265 21.8134 33.5016 21.8181C34.0089 21.824 34.5163 21.8299 35.0389 21.8359C35.1371 21.5296 35.2353 21.2232 35.3365 20.9076C35.4687 20.5017 35.6009 20.0959 35.7372 19.6777C35.9316 19.0768 35.9316 19.0768 36.1299 18.4637C36.5379 17.3335 37.0179 16.2961 37.578 15.2344ZM38.0858 21.8359C37.9182 22.8414 37.7507 23.8469 37.578 24.8828C36.0698 24.7152 34.5616 24.5477 33.0077 24.375C33.6626 25.0736 34.3417 25.75 35.0389 26.4062C35.3741 26.4062 35.7093 26.4062 36.0546 26.4062C35.887 27.5793 35.7194 28.7523 35.5468 29.9609C36.3951 29.5839 36.3951 29.5839 37.2606 29.1992C39.1014 28.4375 39.1014 28.4375 40.1171 28.4375C40.2846 28.7727 40.4522 29.1078 40.6249 29.4531C40.562 28.8875 40.562 28.8875 40.4979 28.3105C40.661 26.5172 41.3118 26.0171 42.6561 24.8828C42.1743 24.8514 41.6926 24.82 41.1962 24.7876C40.4106 24.5834 40.4106 24.5834 39.6093 24.375C38.911 23.0737 38.911 23.0737 38.5936 21.8359C38.426 21.8359 38.2585 21.8359 38.0858 21.8359Z" fill="#103255"/>
<path d="M73.6328 66.0155C73.1752 69.7906 70.7173 72.7857 68.3643 75.6322C68.1325 75.931 67.9008 76.2299 67.662 76.5378C66.4846 77.9616 65.7791 78.6597 63.9388 79.0064C62.2583 78.6703 61.5674 78.2318 60.3345 77.0604C60.0026 76.7541 59.6707 76.4477 59.3288 76.1321C56.875 73.558 56.875 73.558 56.875 71.6015C59.4017 71.4557 60.5015 71.5708 62.4609 73.1249C63.9044 73.0178 64.4066 72.7096 65.3967 71.6391C65.6848 71.2392 65.9728 70.8392 66.2695 70.4271C69.6981 65.7129 69.6981 65.7129 73.6328 66.0155Z" fill="#103255"/>
<path d="M88.0103 109.211C90.0517 109.924 90.7163 110.938 91.9141 112.734C91.8703 114.311 91.5151 114.657 90.3906 115.781C88.8623 115.703 88.0918 115.496 86.9629 114.448C86.1391 112.883 85.9884 111.436 85.8203 109.687C86.8359 109.18 86.8359 109.18 88.0103 109.211Z" fill="#103255"/>
<path d="M42.1484 108.672C42.8188 109.007 43.4891 109.342 44.1797 109.688C44.1215 110.418 44.0568 111.148 43.9893 111.877C43.9539 112.284 43.9186 112.69 43.8821 113.109C43.6719 114.258 43.6719 114.258 42.6562 115.781C39.6729 115.337 39.6729 115.337 39.1016 114.766C39.1892 112.487 39.3905 111.462 40.9106 109.719C41.3191 109.374 41.7276 109.028 42.1484 108.672Z" fill="#103255"/>
<path d="M27.4219 92.4218C27.8345 93.5327 27.8345 93.5327 27.9297 94.9609C26.7236 96.3574 26.7236 96.3574 25.3906 97.5C25.223 97.6675 25.0555 97.8351 24.8828 98.0078C23.645 98.103 23.645 98.103 22.3438 98.0078C21.3281 96.9921 21.3281 96.9921 21.2646 95.6591C21.2856 95.2611 21.3065 94.8631 21.3281 94.4531C25.0279 92.1317 25.0279 92.1317 27.4219 92.4218Z" fill="#103255"/>
<path d="M105.183 92.6877C105.59 92.8304 105.998 92.9731 106.418 93.1201C106.827 93.2602 107.237 93.4003 107.658 93.5446C108.672 93.9453 108.672 93.9453 109.18 94.4531C109.275 95.6909 109.275 95.6909 109.18 96.9922C108.844 97.3274 108.509 97.6625 108.164 98.0078C106.195 97.9349 104.965 97.7493 103.34 96.6114C102.578 95.4688 102.578 95.4688 102.641 94.104C103.218 92.5791 103.583 92.2945 105.183 92.6877Z" fill="#103255"/>
<path d="M63.9842 115.273C65.4924 115.525 65.4924 115.525 67.0311 115.781C67.1296 116.701 67.2241 117.622 67.3168 118.542C67.3698 119.055 67.4228 119.568 67.4774 120.096C67.5079 120.725 67.5079 120.725 67.5389 121.367C67.0311 121.875 67.0311 121.875 65.5394 121.97C63.9842 121.875 63.9842 121.875 62.9686 120.859C62.7331 117.15 62.7331 117.15 63.9842 115.273Z" fill="#103255"/>
</svg>
