<svg width="115" height="115" viewBox="0 0 115 115" fill="none" xmlns="http://www.w3.org/2000/svg">
<path d="M96.0944 69.1227C98.1443 70.3062 99.5477 71.7837 100.176 74.1211C100.433 76.5752 100.294 78.5624 98.8283 80.6348C97.3302 82.2302 95.5656 83.3552 93.6904 84.4531C93.4137 84.6177 93.1371 84.7825 92.8607 84.9476C92.2889 85.2888 91.7164 85.6289 91.1434 85.9684C90.3296 86.4516 89.5205 86.9424 88.713 87.4362C88.5848 87.5146 88.4567 87.5929 88.3247 87.6737C88.1968 87.7519 88.0688 87.8301 87.937 87.9107C64.3204 102.351 64.3204 102.351 57.756 102.249C57.5919 102.248 57.4277 102.246 57.2585 102.245C55.5489 102.217 53.8556 102.059 52.1564 101.878C51.5878 101.818 51.0189 101.76 50.45 101.702C49.0337 101.559 47.6179 101.412 46.2021 101.264C44.8135 101.119 43.4247 100.977 42.0355 100.837C41.7427 100.808 41.7427 100.808 41.4441 100.778C36.9424 100.331 32.3788 99.9512 27.8517 99.9512C27.8271 100.163 27.8025 100.374 27.7772 100.592C27.7237 101.011 27.7237 101.011 27.6692 101.439C27.6354 101.715 27.6015 101.992 27.5666 102.276C27.3719 103.249 27.12 104.133 26.3216 104.766C25.6574 104.937 25.1464 104.812 24.4826 104.668C23.9904 104.647 23.9904 104.647 23.3736 104.865C21.278 105.472 18.7398 106.083 16.6213 105.3C15.7645 104.782 15.4264 104.293 15.1484 103.34C14.9746 102.52 14.9941 101.682 14.9779 100.846C14.9732 100.637 14.9685 100.428 14.9636 100.212C14.9485 99.5075 14.9353 98.8028 14.9227 98.0982C14.9182 97.8548 14.9137 97.6114 14.9091 97.3607C14.8741 95.3792 14.8475 93.3977 14.8244 91.416C14.8214 91.1644 14.8214 91.1644 14.8184 90.9077C14.7907 88.5363 14.7711 86.165 14.7601 83.7934C14.7566 83.0639 14.7511 82.3345 14.7437 81.605C14.7351 80.7364 14.731 79.868 14.7303 78.9994C14.7293 78.6772 14.7267 78.355 14.7226 78.0328C14.7171 77.5885 14.7178 77.1442 14.7188 76.6999C14.7175 76.4502 14.7162 76.2004 14.7148 75.9431C14.8779 74.9026 15.3948 74.2039 16.1545 73.492C17.8762 72.4985 20.3807 72.7224 22.3067 72.7033C22.5371 72.6993 22.7675 72.6953 23.0049 72.6913C24.6978 72.6928 26.0037 72.8799 27.3744 73.9527C28.2892 75.1365 28.32 76.2656 28.301 77.7149C33.5663 77.2457 38.0392 75.1894 42.6517 72.7018C49.3249 69.1468 54.6046 69.6611 61.7678 71.4258C62.0125 71.4857 62.2572 71.5455 62.5094 71.6072C69.3736 73.3238 69.3736 73.3238 71.2013 75.918C71.8191 76.9939 72.1205 77.8194 72.0998 79.0625C72.2349 78.9837 72.3699 78.9049 72.5091 78.8238C72.9202 78.5839 73.3313 78.3441 73.7425 78.1043C74.2261 77.8222 74.7096 77.54 75.1932 77.2579C76.4252 76.539 77.6575 75.8206 78.8907 75.1038C79.3411 74.8418 79.7915 74.5797 80.2419 74.3176C80.5753 74.1237 80.5753 74.1237 80.9155 73.9258C82.1901 73.1824 83.4572 72.4281 84.719 71.6631C92.0898 67.1943 92.0898 67.1943 96.0944 69.1227ZM85.0687 75.3137C82.5657 76.7866 80.0253 78.1881 77.4833 79.5921C76.5901 80.0862 75.699 80.584 74.8091 81.084C74.6693 81.1621 74.5294 81.2402 74.3854 81.3207C73.7389 81.6836 73.1022 82.0568 72.4709 82.4457C70.5561 83.6226 70.5561 83.6226 69.5449 83.6951C68.5076 83.8024 68.1484 84.2202 67.383 84.9024C66.3641 85.3325 65.5067 85.4019 64.4069 85.384C64.2517 85.3821 64.0965 85.3801 63.9365 85.3781C63.6064 85.3736 63.2764 85.368 62.9463 85.3615C62.4476 85.3517 61.9489 85.3452 61.4501 85.3396C60.6043 85.3292 59.7588 85.3124 58.9132 85.2926C58.5702 85.2851 58.2271 85.2789 57.884 85.2738C51.824 85.1826 51.824 85.1826 49.6388 83.7793C49.4906 83.7793 49.3424 83.7793 49.1896 83.7793C49.0784 83.1122 49.0784 83.1122 48.965 82.4317C50.011 81.914 51.0063 81.8652 52.1517 81.814C52.3555 81.8046 52.5594 81.7953 52.7694 81.7856C56.2929 81.6682 59.8122 82.073 63.2953 82.5694C65.8051 82.8983 65.8051 82.8983 68.0568 81.9824C68.8352 80.9582 69.112 80.1567 69.0377 78.8677C68.8648 77.8634 68.4044 77.3012 67.5997 76.6989C64.5191 74.7252 61.0487 74.103 57.5212 73.3688C56.9419 73.247 56.3645 73.1197 55.7875 72.9875C50.5106 71.8222 46.537 73.4461 41.7893 75.6088C37.3393 77.6156 33.226 78.8452 28.301 78.8379C28.2986 79.0017 28.2963 79.1655 28.2939 79.3343C28.2716 80.9091 28.2485 82.4839 28.2247 84.0586C28.2126 84.8675 28.2006 85.6763 28.1893 86.4851C28.1302 90.6773 28.0296 94.8636 27.8517 99.0528C27.9825 99.0232 28.1133 98.9936 28.2481 98.9632C34.4954 97.5694 41.1676 97.8805 47.5113 98.4416C49.8811 98.638 52.2459 98.655 54.6224 98.6597C54.9164 98.6614 54.9164 98.6614 55.2164 98.6631C55.7797 98.6658 56.3429 98.6651 56.9062 98.6632C57.1553 98.6645 57.1553 98.6645 57.4095 98.6659C59.0633 98.6514 60.5959 98.3192 62.1231 97.6805C62.3477 97.5868 62.5722 97.493 62.8036 97.3964C63.0408 97.2945 63.2781 97.1925 63.5225 97.0874C63.7754 96.9792 64.0283 96.871 64.2888 96.7596C68.9176 94.7493 73.3462 92.4112 77.6733 89.8205C78.4484 89.3591 79.227 88.904 80.0067 88.4505C82.6653 86.9031 85.3126 85.343 87.9192 83.709C88.9217 83.0822 89.9305 82.4699 90.9521 81.8745C91.2863 81.6796 91.2863 81.6796 91.6273 81.4808C92.0526 81.2338 92.4788 80.9882 92.9059 80.7442C95.3509 79.3469 95.3509 79.3469 96.8068 77.041C96.9697 75.8134 96.9674 74.6485 96.2488 73.5833C95.2713 72.5478 94.0286 71.8108 92.5954 71.6925C89.9437 71.8924 87.2953 74.0023 85.0687 75.3137ZM18.4181 76.3672C17.8071 78.8114 17.9259 81.4259 17.8979 83.9346C17.8932 84.2931 17.8885 84.6515 17.8837 85.01C17.8739 85.7592 17.8647 86.5084 17.856 87.2576C17.8451 88.1976 17.833 89.1375 17.8205 90.0774C17.7622 94.492 17.7287 98.9054 17.7443 103.32C18.3349 103.616 18.8316 103.612 19.4912 103.657C19.7502 103.676 20.0092 103.694 20.276 103.713C20.5477 103.732 20.8195 103.75 21.0994 103.77C21.635 103.806 22.1705 103.844 22.7059 103.882C22.9442 103.898 23.1824 103.914 23.4279 103.931C24.0334 103.994 24.0334 103.994 24.7072 104.219C25.0687 103.96 25.0687 103.96 25.381 103.545C25.4572 102.959 25.4572 102.959 25.4056 102.291C25.3943 102.03 25.383 101.769 25.3714 101.499C25.356 101.225 25.3407 100.95 25.3249 100.667C25.3 100.142 25.2755 99.616 25.2512 99.0905C25.244 98.9431 25.2369 98.7957 25.2295 98.6438C24.9869 93.5567 24.8857 88.4666 24.8123 83.3748C24.8007 82.5793 24.7883 81.7839 24.7761 80.9884C24.7524 79.448 24.7298 77.9076 24.7072 76.3672C22.6318 76.3672 20.5564 76.3672 18.4181 76.3672Z" fill="#103255"/>
<path d="M45.9046 9.2793C47.0419 9.49498 47.4091 10.0921 48.0665 11.006C48.4253 11.6094 48.7255 12.2315 49.0193 12.8687C49.1024 13.0438 49.1855 13.2189 49.271 13.3994C49.5368 13.962 49.7986 14.5264 50.0599 15.0911C50.2416 15.4801 50.4232 15.8692 50.6049 16.2582C52.4118 20.1432 54.0277 23.8434 54.8048 28.0763C54.9468 28.0627 55.0889 28.0491 55.2352 28.0351C58.9035 27.6994 62.5584 27.5741 66.2413 27.5598C66.7219 27.5579 67.2026 27.5548 67.6832 27.5506C68.3652 27.5452 69.047 27.5446 69.729 27.5455C69.9358 27.5434 70.1426 27.5414 70.3557 27.5393C70.6414 27.5413 70.6414 27.5413 70.9329 27.5434C71.0993 27.5433 71.2657 27.5432 71.4371 27.543C72.0145 27.6538 72.2086 27.8247 72.5489 28.3009C72.63 28.7742 72.63 28.7742 72.6254 29.3258C72.6254 29.5327 72.6253 29.7395 72.6253 29.9525C72.6218 30.1751 72.6183 30.3976 72.6147 30.6268C72.6138 30.8552 72.6128 31.0836 72.6118 31.3189C72.6081 32.049 72.5996 32.779 72.591 33.509C72.5877 34.0037 72.5846 34.4984 72.5818 34.9931C72.5744 36.2064 72.5631 37.4197 72.5489 38.6329C72.7449 38.6298 72.9409 38.6267 73.1428 38.6236C73.4022 38.6212 73.6617 38.6187 73.9291 38.6163C74.1852 38.6132 74.4414 38.6101 74.7054 38.6069C77.485 38.7017 80.2187 40.1009 82.2071 42.0021C85.5134 45.7422 86.5767 49.9865 86.3053 54.8737C85.9266 59.0266 83.6045 62.3637 80.5458 65.0657C77.16 67.8463 72.9046 68.0872 68.7306 67.8322C65.0497 67.3704 61.6685 65.3871 59.2794 62.5872C57.7116 60.4266 56.7983 58.0926 56.8184 55.412C56.8195 55.2131 56.8207 55.0143 56.8218 54.8094C56.8233 54.6597 56.8248 54.5099 56.8263 54.3556C56.5464 54.3591 56.2665 54.3626 55.9781 54.3663C54.9379 54.3785 53.8977 54.3862 52.8575 54.3926C52.4076 54.396 51.9577 54.4006 51.5079 54.4064C50.8605 54.4146 50.2133 54.4184 49.566 54.4214C49.3654 54.4249 49.1649 54.4283 48.9582 54.4319C47.871 54.4322 47.1545 54.3855 46.2696 53.6818C45.6835 53.0956 45.6156 52.6583 45.566 51.8443C45.5736 49.3287 45.7059 46.8168 45.8204 44.3043C45.8421 43.8188 45.8638 43.3334 45.8853 42.8479C45.9379 41.6675 45.9912 40.4871 46.045 39.3068C45.6543 39.3415 45.2636 39.3765 44.873 39.4116C44.5466 39.4407 44.5466 39.4407 44.2137 39.4705C43.6617 39.5231 43.1121 39.5837 42.5618 39.6516C40.0017 39.9523 37.4596 40.0295 34.8847 40.0367C34.6339 40.0385 34.6339 40.0385 34.378 40.0402C33.9002 40.0428 33.4226 40.0422 32.9449 40.0403C32.6667 40.0397 32.3886 40.0392 32.102 40.0387C31.4454 39.9806 31.4454 39.9806 30.9962 39.5314C30.8729 38.3037 31.1434 37.4393 31.6955 36.3658C31.805 36.1435 31.805 36.1435 31.9167 35.9168C32.1546 35.4357 32.3966 34.9567 32.6387 34.4777C32.8057 34.1412 32.9724 33.8045 33.1388 33.4677C33.4699 32.7979 33.8024 32.1288 34.136 31.4602C34.7114 30.3053 35.2707 29.143 35.8253 27.978C35.9206 27.7786 36.0159 27.5793 36.1141 27.3738C36.7836 25.9706 37.4452 24.5637 38.1054 23.1562C38.9523 21.3509 39.8019 19.5469 40.6544 17.7443C40.7361 17.5715 40.8177 17.3988 40.9019 17.2208C41.3932 16.1826 41.8869 15.1456 42.3838 14.11C42.5398 13.784 42.6952 13.4577 42.85 13.1311C43.065 12.6774 43.2825 12.225 43.5006 11.7728C43.6236 11.5156 43.7466 11.2584 43.8733 10.9934C44.4205 10.0282 44.7997 9.50438 45.9046 9.2793ZM45.8204 15.2736C45.7403 15.4388 45.7403 15.4388 45.6585 15.6074C42.3496 22.4278 38.988 29.2134 35.4184 35.9018C35.0009 36.5603 35.0009 36.5603 34.8146 37.2853C36.0849 37.35 37.3553 37.4139 38.6257 37.4772C39.057 37.4988 39.4883 37.5206 39.9196 37.5426C40.5429 37.5743 41.1663 37.6053 41.7897 37.6362C41.9796 37.6461 42.1694 37.6559 42.365 37.666C43.6675 37.7296 44.9657 37.7454 46.2696 37.7345C46.3052 37.4424 46.3052 37.4424 46.3414 37.1445C46.4313 36.4142 46.5233 35.6842 46.6165 34.9543C46.6562 34.6399 46.6952 34.3253 46.7334 34.0107C46.9375 32.3324 47.1429 30.7536 47.8419 29.1993C47.9901 29.1993 48.1384 29.1993 48.2911 29.1993C48.2911 29.0511 48.2911 28.9029 48.2911 28.7501C48.4157 28.7445 48.5403 28.7389 48.6686 28.7331C49.2354 28.7069 49.8021 28.6794 50.3688 28.6519C50.5648 28.643 50.7608 28.6342 50.9627 28.6251C51.1524 28.6157 51.342 28.6063 51.5374 28.5966C51.7115 28.5883 51.8856 28.5801 52.065 28.5716C52.5492 28.5264 52.9895 28.4318 53.4571 28.3009C53.1153 27.3089 52.577 26.5021 51.9831 25.6477C50.7909 23.8929 49.754 22.077 48.7403 20.215C48.4985 19.773 48.2567 19.3311 48.0147 18.8892C47.3563 17.685 46.7 16.4797 46.045 15.2736C45.9709 15.2736 45.8968 15.2736 45.8204 15.2736ZM48.0665 29.424C48.1527 31.0733 48.2403 32.7221 48.3903 34.3671C48.7389 38.2368 48.8903 42.1092 49.0329 45.9911C49.0417 46.2229 49.0505 46.4546 49.0596 46.6934C49.0762 47.1326 49.0921 47.5719 49.1071 48.0112C49.1146 48.2091 49.1222 48.4069 49.13 48.6107C49.1391 48.8689 49.1391 48.8689 49.1485 49.1322C49.1884 49.746 49.1884 49.746 49.4142 50.7618C56.0109 50.7618 62.6077 50.7618 69.4044 50.7618C69.6061 40.655 69.6061 40.655 69.629 30.547C69.056 30.2605 68.6303 30.2806 67.9887 30.2628C67.6128 30.2515 67.6128 30.2515 67.2294 30.2399C66.9555 30.2327 66.6816 30.2254 66.3994 30.218C65.8139 30.2006 65.2285 30.1831 64.643 30.1657C64.3326 30.1568 64.0222 30.1479 63.7118 30.1391C62.143 30.0942 60.5743 30.0454 59.0057 29.9951C58.8516 29.9902 58.6975 29.9853 58.5387 29.9802C55.043 29.8671 51.5545 29.6809 48.0665 29.424ZM72.7735 39.9806C72.7727 40.1451 72.7719 40.3096 72.7711 40.4792C72.7626 42.0292 72.7498 43.5792 72.7322 45.1292C72.7234 45.9261 72.7161 46.7229 72.7127 47.5199C72.7086 48.436 72.6974 49.3518 72.6858 50.2679C72.6855 50.5543 72.6853 50.8407 72.685 51.1357C72.6805 51.401 72.6761 51.6663 72.6715 51.9396C72.6686 52.2904 72.6686 52.2904 72.6655 52.6484C72.5489 53.2325 72.5489 53.2325 72.1565 53.6444C71.5941 53.9355 71.2487 53.9935 70.6186 53.9999C70.4153 54.0036 70.212 54.0074 70.0026 54.0112C69.784 54.0119 69.5655 54.0127 69.3404 54.0134C69.1132 54.0169 68.886 54.0204 68.6519 54.024C67.9248 54.0347 67.1977 54.0409 66.4704 54.0468C65.7489 54.055 65.0273 54.0642 64.3058 54.0743C63.8573 54.0803 63.4088 54.0852 62.9603 54.0886C61.5049 54.1047 60.0705 54.2036 58.6232 54.3556C58.9367 56.974 60.6206 59.0675 62.4415 60.8693C62.5767 61.012 62.7119 61.1547 62.8512 61.3018C65.0847 63.4868 68.2336 64.4392 71.2855 64.5332C74.5993 64.4671 77.2797 63.2298 79.6724 60.9623C82.0909 58.4074 83.4803 55.2039 83.4004 51.6717C83.0313 48.0686 81.4753 45.1344 78.838 42.6759C77.1352 41.3044 75.0328 39.9806 72.7735 39.9806Z" fill="#103255"/>
<path d="M29.1991 54.3555C29.729 54.502 29.729 54.502 30.3221 54.8047C30.6204 55.3671 30.6204 55.3671 30.8275 56.0541C30.8981 56.2767 30.9688 56.4994 31.0416 56.7288C31.4569 58.5182 31.475 60.2884 31.4592 62.1185C31.4582 62.3451 31.4572 62.5717 31.4561 62.8051C31.4535 63.3577 31.4498 63.9103 31.4452 64.4629C31.6443 64.4594 31.8435 64.4558 32.0487 64.4522C32.798 64.4406 33.5473 64.4322 34.2967 64.4259C34.619 64.4225 34.9414 64.4179 35.2637 64.4121C39.6035 64.3349 39.6035 64.3349 41.0376 65.4293C41.3561 65.7404 41.3561 65.7404 41.7772 66.2598C41.628 66.6853 41.628 66.6853 41.328 67.1582C40.7893 67.3854 40.7893 67.3854 40.1207 67.5372C39.9059 67.5891 39.691 67.6409 39.4697 67.6943C37.1481 68.0764 34.8041 68.1095 32.4559 68.1268C32.3047 68.1301 32.1535 68.1334 31.9977 68.1368C31.5539 68.1463 31.11 68.1494 30.6661 68.1523C30.4056 68.1556 30.1452 68.1588 29.8769 68.1622C29.0494 68.0333 28.7955 67.8233 28.3006 67.1582C27.9931 66.4017 28.0628 65.6392 28.0874 64.8323C28.096 64.5504 28.1045 64.2685 28.1133 63.9781C28.1241 63.6765 28.1351 63.3748 28.1462 63.0731C28.1515 62.9215 28.1568 62.7699 28.1623 62.6138C28.3765 56.6131 28.3765 56.6131 29.1991 54.3555Z" fill="#103255"/>
<path d="M82.7683 9.36333C83.0082 9.35936 83.248 9.3554 83.4951 9.35132C84.7904 9.35246 85.7345 9.36747 86.699 10.332C86.988 14.542 86.5937 18.7431 86.0251 22.9101C85.8028 22.9842 85.5804 23.0583 85.3513 23.1347C84.0328 22.089 83.7836 20.4551 83.5544 18.8671C83.5371 18.3977 83.5302 17.9278 83.5325 17.458C83.5332 17.1989 83.534 16.9398 83.5347 16.6728C83.5375 16.2719 83.5375 16.2719 83.5404 15.863C83.5414 15.5905 83.5424 15.3181 83.5435 15.0373C83.5461 14.3673 83.5498 13.6973 83.5544 13.0273C83.3497 13.032 83.1449 13.0367 82.9339 13.0415C82.1623 13.057 81.391 13.0682 80.6193 13.0766C80.2876 13.0811 79.9558 13.0872 79.6242 13.095C75.1578 13.198 75.1578 13.198 73.4959 11.7895C73.2224 11.455 73.2224 11.455 73.1943 11.0058C73.5928 10.2974 74.2779 10.1209 75.0193 9.88274C75.718 9.74318 76.4153 9.67468 77.125 9.61601C77.3258 9.59844 77.5266 9.58087 77.7335 9.56277C79.4104 9.43084 81.0866 9.37942 82.7683 9.36333Z" fill="#103255"/>
</svg>
