<svg width="113" height="113" viewBox="0 0 113 113" fill="none" xmlns="http://www.w3.org/2000/svg">
<path d="M110.131 9.71102C110.913 10.4857 111.614 11.3266 111.731 12.4476C111.731 12.6465 111.73 12.8454 111.73 13.0504C111.731 13.2812 111.732 13.512 111.733 13.7498C111.732 14.0038 111.731 14.2577 111.729 14.5193C111.73 14.7902 111.73 15.061 111.731 15.34C111.731 16.0971 111.73 16.8541 111.728 17.6111C111.726 18.4383 111.726 19.2656 111.727 20.0928C111.727 21.7393 111.724 23.3858 111.72 25.0324C111.718 26.387 111.716 27.7415 111.715 29.0961C111.701 43.3258 111.648 57.5553 111.589 71.7848C111.583 73.4497 111.576 75.1145 111.569 76.7794C111.559 79.4438 111.548 82.1083 111.535 84.7728C111.529 86.0039 111.524 87.235 111.519 88.4661C111.515 89.6043 111.51 90.7425 111.503 91.8808C111.501 92.2921 111.5 92.7034 111.498 93.1148C111.492 95.0697 111.467 97.021 111.364 98.9736C111.357 99.1271 111.35 99.2806 111.342 99.4387C111.244 101.081 110.791 102.052 109.593 103.151C105.438 106.413 95.622 104.549 90.7089 104.089C90.4311 104.064 90.1533 104.039 89.8671 104.013C85.962 103.618 85.962 103.618 84.5292 102.186C83.3043 100.611 83.1368 99.1661 83.274 97.25C83.2987 96.8346 83.3231 96.4191 83.3473 96.0037C83.3605 95.787 83.3738 95.5703 83.3875 95.347C83.4514 94.2353 83.4936 93.1228 83.5361 92.01C83.545 91.7799 83.554 91.5498 83.5633 91.3127C83.8051 85.0669 83.9823 78.8231 84.0749 72.5733C84.086 71.8495 84.0978 71.1257 84.1102 70.4019C84.149 68.1222 84.182 65.8424 84.212 63.5626C84.2158 63.2737 84.2158 63.2737 84.2198 62.979C84.3066 56.3996 84.3113 49.8211 84.2946 43.2413C84.2912 41.9037 84.2885 40.5661 84.2859 39.2285C84.2841 38.3284 84.2823 37.4283 84.2805 36.5282C84.28 36.3043 84.2796 36.0805 84.2791 35.8499C84.2735 33.132 84.2647 30.4141 84.2513 27.6962C84.2429 25.9623 84.2376 24.2283 84.2346 22.4943C84.2328 21.4753 84.2293 20.4564 84.2219 19.4374C84.2151 18.4906 84.2123 17.5438 84.2127 16.597C84.2121 16.2523 84.21 15.9076 84.2063 15.5629C84.1852 13.5435 84.208 11.9775 85.569 10.368C85.6901 10.2695 85.8113 10.1711 85.9362 10.0697C86.0563 9.96781 86.1763 9.86596 86.3 9.76102C87.5017 9.01534 88.6997 8.98159 90.0675 8.97304C90.2635 8.96995 90.4595 8.96686 90.6614 8.96368C91.0832 8.95709 91.5049 8.95136 91.9267 8.94641C93.0439 8.93308 94.161 8.91318 95.2782 8.892C95.6183 8.88558 95.6183 8.88558 95.9653 8.87902C98.5557 8.82459 101.14 8.6791 103.726 8.5131C108.315 8.2279 108.315 8.2279 110.131 9.71102ZM104.063 10.9199C102.324 11.0361 100.588 11.0833 98.8456 11.1145C98.2295 11.1282 97.6134 11.143 96.9972 11.1577C96.0407 11.1803 95.0843 11.2015 94.1277 11.2169C93.3435 11.2297 92.5597 11.2477 91.7757 11.2692C91.3374 11.2798 90.899 11.285 90.4606 11.29C88.8593 11.3003 88.8593 11.3003 87.4562 11.9717C86.6215 12.989 86.4598 13.7883 86.4857 15.091C86.4902 15.3744 86.4946 15.6577 86.4992 15.9496C86.5064 16.2607 86.5135 16.5719 86.5207 16.883C86.5266 17.2094 86.5322 17.5358 86.5375 17.8623C86.5494 18.5618 86.5625 19.2612 86.5767 19.9607C86.6105 21.6513 86.6359 23.3421 86.6619 25.0329C86.6708 25.6082 86.6799 26.1834 86.689 26.7586C86.7772 32.4055 86.7687 38.0519 86.7363 43.6993C86.7351 43.9065 86.7339 44.1136 86.7327 44.3271C86.6668 55.8659 86.5676 67.4043 86.3221 78.9408C86.3089 79.5634 86.2962 80.186 86.2836 80.8086C86.1892 85.3975 86.0365 89.9782 85.7778 94.5609C85.4479 97.3859 85.4479 97.3859 85.9914 100.061C87.2674 101.472 88.8904 101.488 90.6813 101.661C90.9505 101.689 91.2196 101.717 91.4969 101.745C92.2639 101.822 93.0312 101.894 93.7988 101.965C93.9727 101.981 94.1466 101.998 94.3257 102.015C101.337 102.829 101.337 102.829 107.924 101.303C109.048 100.209 109.032 99.0071 109.061 97.5243C109.065 97.0746 109.067 96.6248 109.069 96.175C109.071 95.9248 109.073 95.6746 109.075 95.4168C109.08 94.7189 109.083 94.0211 109.087 93.3232C109.091 92.555 109.096 91.7868 109.102 91.0186C109.114 89.1199 109.124 87.2212 109.135 85.3225C109.14 84.4151 109.145 83.5076 109.15 82.6001C109.166 79.6333 109.183 76.6666 109.198 73.6998C109.227 68.1935 109.261 62.6873 109.299 57.1811C109.335 52.1913 109.366 47.2015 109.395 42.2117C109.412 39.2804 109.431 36.3493 109.454 33.4181C109.473 30.8916 109.489 28.3651 109.502 25.8385C109.508 24.5314 109.516 23.2244 109.528 21.9174C109.539 20.7091 109.546 19.5009 109.549 18.2927C109.551 17.8531 109.555 17.4135 109.56 16.974C109.567 16.3753 109.568 15.7769 109.568 15.1781C109.571 15.0064 109.575 14.8346 109.578 14.6577C109.569 13.4446 109.282 12.4819 108.586 11.4766C107.211 10.4992 105.67 10.8063 104.063 10.9199Z" fill="#103255"/>
<path d="M41.1776 39.9136C41.3436 39.914 41.5096 39.9144 41.6806 39.9148C43.5256 39.9321 45.3533 40.0924 47.1891 40.2644C51.2386 40.637 55.266 40.8714 59.334 40.8263C59.9087 40.8203 60.4835 40.8165 61.0583 40.8132C62.6885 40.8039 64.3188 40.7932 65.949 40.7755C66.9558 40.7648 67.9625 40.7584 68.9694 40.7548C69.349 40.7527 69.7287 40.7489 70.1083 40.7434C74.2959 40.6841 74.2959 40.6841 75.8829 42.0622C77.0309 43.2028 77.4963 44.8284 77.5237 46.4226C77.5169 46.7609 77.5069 47.0991 77.4944 47.4373C77.4583 49.4647 77.4891 51.4852 77.5486 53.5116C77.563 54.0019 77.5764 54.4922 77.5898 54.9825C77.6449 56.904 77.7361 58.8212 77.8563 60.7397C78.1277 65.1057 78.1277 65.1057 76.4987 67.01C75.0811 68.3189 73.4314 68.516 71.6028 68.4763C71.2964 68.4737 71.2964 68.4737 70.9838 68.4711C70.3084 68.4647 69.6331 68.4534 68.9577 68.442C68.477 68.4364 67.9963 68.431 67.5156 68.4259C66.2433 68.4116 64.9712 68.3932 63.699 68.3739C62.4483 68.3557 61.1976 68.3418 59.9468 68.3274C57.7117 68.3009 55.4767 68.2683 53.2417 68.2321C51.7051 68.2074 50.1684 68.1871 48.6317 68.1697C47.6157 68.1577 46.5997 68.1431 45.5838 68.1279C45.1046 68.1213 44.6254 68.1157 44.1462 68.1113C43.483 68.105 42.8199 68.0947 42.1568 68.0836C41.9648 68.0827 41.7728 68.0818 41.5749 68.0809C39.9845 68.0475 38.292 67.8089 36.9954 66.8178C34.6391 64.3493 35.0085 60.5032 35.0229 57.3C35.0231 57.1267 35.0232 56.9535 35.0234 56.775C35.0298 54.1251 35.1568 51.497 35.3953 48.8581C35.4162 48.6256 35.4162 48.6256 35.4375 48.3885C35.9908 42.3805 35.9908 42.3805 37.8774 40.7395C38.9545 39.99 39.9069 39.9083 41.1776 39.9136ZM39.2852 42.8163C38.2605 43.9149 38.1831 45.1345 38.03 46.5683C38.0042 46.7785 37.9785 46.9888 37.9519 47.2054C37.8728 47.8752 37.8044 48.5453 37.7403 49.2167C37.7185 49.4441 37.6968 49.6714 37.6743 49.9057C37.4937 52.0671 37.4859 54.2232 37.4908 56.3909C37.492 57.0131 37.4908 57.6352 37.4894 58.2573C37.4895 58.6592 37.4898 59.0611 37.4903 59.463C37.4898 59.6458 37.4894 59.8287 37.4889 60.017C37.4451 62.6405 37.4451 62.6405 38.6231 64.8866C39.8847 65.7508 41.2088 65.6677 42.6828 65.6927C42.9683 65.6998 43.2537 65.707 43.5478 65.7143C44.5546 65.7384 45.5615 65.7543 46.5684 65.7694C46.7586 65.7724 46.9488 65.7754 47.1448 65.7784C50.2281 65.826 53.3116 65.858 56.3951 65.8869C57.3262 65.8958 58.2572 65.9055 59.1882 65.9152C61.3936 65.9382 63.599 65.9584 65.8044 65.9751C66.8775 65.9835 67.9505 65.9952 69.0235 66.0124C69.7151 66.023 70.4067 66.0299 71.0984 66.0376C71.4508 66.0453 71.4508 66.0453 71.8103 66.0533C73.3125 66.066 73.3125 66.066 74.5977 65.328C75.2055 64.7254 75.4573 64.3939 75.5745 63.54C75.5184 61.7794 75.5184 61.7794 75.4284 60.0203C75.3043 57.9785 75.2376 55.941 75.2133 53.8954C75.2101 53.6523 75.2069 53.4091 75.2037 53.1586C75.191 52.1535 75.1788 51.1485 75.1712 50.1433C75.1651 49.3984 75.155 48.6537 75.1443 47.9089C75.1432 47.5695 75.1432 47.5695 75.1421 47.2234C75.1168 45.7593 74.9885 44.7365 73.8939 43.6697C73.1266 43.1602 72.6974 43.153 71.7821 43.1645C71.5628 43.1654 71.5628 43.1654 71.3392 43.1662C70.8553 43.1691 70.3717 43.1781 69.8879 43.187C69.5461 43.19 69.2043 43.1925 68.8625 43.1946C68.138 43.1996 67.4136 43.2071 66.6892 43.2165C64.8148 43.2404 62.9403 43.2463 61.0658 43.2534C60.8825 43.2542 60.6991 43.2551 60.5102 43.2559C57.7396 43.2678 54.9768 43.2439 52.2101 43.0784C51.9746 43.0646 51.9746 43.0646 51.7343 43.0505C49.9515 42.9422 48.1741 42.7838 46.396 42.6163C46.2163 42.5997 46.0367 42.5831 45.8515 42.566C44.9948 42.4866 44.139 42.4032 43.2838 42.3091C42.9812 42.2789 42.6785 42.2488 42.3759 42.2189C42.1138 42.1905 41.8516 42.1621 41.5815 42.1328C40.6363 42.1597 40.1215 42.3798 39.2852 42.8163Z" fill="#103255"/>
<path d="M44.8305 73.8113C45.2951 73.8568 45.7596 73.9019 46.2243 73.9462C46.6492 73.9868 47.0741 74.0285 47.4989 74.0703C50.4167 74.3199 53.3121 74.4041 56.2397 74.38C56.8691 74.375 57.4985 74.372 58.1279 74.3695C59.9143 74.3621 61.7007 74.3528 63.487 74.3391C64.5875 74.3307 65.688 74.3257 66.7885 74.3227C67.2045 74.3209 67.6205 74.3179 68.0365 74.3136C68.6177 74.3077 69.1987 74.306 69.7799 74.3052C69.9485 74.3025 70.117 74.2998 70.2907 74.297C71.8839 74.3028 73.472 74.665 74.6806 75.7563C74.8189 75.8758 74.9571 75.9953 75.0996 76.1184C76.0998 77.3403 76.2401 78.5511 76.2402 80.0703C76.243 80.2581 76.2458 80.4459 76.2486 80.6393C76.2574 81.2555 76.2621 81.8716 76.2669 82.4877C76.2781 83.3614 76.292 84.235 76.3066 85.1086C76.3119 85.4443 76.3119 85.4443 76.3173 85.7867C76.3458 87.3695 76.407 88.9487 76.4893 90.5296C76.5005 90.7454 76.5116 90.9611 76.5231 91.1834C76.5671 92.0207 76.6122 92.8578 76.6623 93.6947C76.6967 94.2707 76.7281 94.8468 76.7592 95.423C76.7704 95.5907 76.7816 95.7583 76.7932 95.9311C76.8801 97.6205 76.5856 99.0824 75.4807 100.42C74.1259 101.589 73.1799 101.999 71.3822 101.99C71.2114 101.99 71.0406 101.99 70.8646 101.99C70.2934 101.989 69.7222 101.987 69.151 101.985C68.7449 101.984 68.3389 101.983 67.9328 101.982C63.5339 101.971 59.1352 101.93 54.7366 101.883C53.8269 101.873 52.9173 101.864 52.0076 101.855C43.3286 101.773 43.3286 101.773 40.1975 101.667C40.0089 101.663 39.8203 101.658 39.6259 101.654C38.125 101.59 36.6539 101.268 35.5748 100.144C33.855 98.2714 33.9553 95.9136 33.9436 93.5143C33.9421 93.3002 33.9406 93.0862 33.939 92.8657C33.9353 92.1744 33.9339 91.483 33.9333 90.7917C33.9329 90.5563 33.9326 90.3208 33.9322 90.0783C33.931 77.4734 33.931 77.4734 36.4162 74.5976C38.7786 72.7403 42.0682 73.5381 44.8305 73.8113ZM37.7404 76.8046C36.9639 78.2172 36.8681 79.6738 36.7197 81.2601C36.6923 81.5416 36.6649 81.8232 36.6367 82.1133C36.2767 86.0164 36.1226 89.9216 36.2507 93.8401C36.2564 94.0523 36.2622 94.2645 36.2681 94.4831C36.3379 96.0327 36.4988 97.6028 37.6025 98.7646C39.7202 99.6409 42.3889 99.3585 44.6529 99.3862C44.9798 99.3908 45.3067 99.3955 45.6335 99.4003C46.6901 99.4152 47.7466 99.428 48.8032 99.4405C48.9833 99.4426 49.1635 99.4448 49.3491 99.447C51.6072 99.4739 53.8653 99.4977 56.1234 99.5197C57.4242 99.5325 58.725 99.5478 60.0257 99.5643C61.5851 99.5839 63.1445 99.5992 64.704 99.6091C65.5148 99.6144 66.3255 99.6214 67.1363 99.633C68.034 99.6457 68.9316 99.6495 69.8295 99.6526C70.2256 99.6601 70.2256 99.6601 70.6297 99.6677C72.1202 99.6859 72.1202 99.6859 73.4199 99.047C74.1762 98.1475 74.4421 97.4132 74.3902 96.243C74.3821 96.0315 74.3739 95.82 74.3655 95.602C74.3542 95.3742 74.343 95.1464 74.3315 94.9118C74.3168 94.5529 74.3168 94.5529 74.3018 94.1868C74.2695 93.409 74.2339 92.6314 74.1978 91.8538C74.1508 90.7897 74.1049 89.7255 74.059 88.6614C74.0475 88.3994 74.0359 88.1374 74.0241 87.8675C73.9595 86.3587 73.9153 84.8522 73.9021 83.3421C73.8979 83.0154 73.8937 82.6888 73.8895 82.3621C73.8822 81.7822 73.8828 81.2041 73.8876 80.624C73.8681 79.1973 73.7662 78.3185 72.7393 77.283C71.938 76.6905 71.0759 76.7788 70.1296 76.7901C69.9666 76.7911 69.8036 76.7921 69.6357 76.7932C69.28 76.7954 68.9243 76.7982 68.5687 76.8014C67.8005 76.8081 67.0322 76.8119 66.264 76.8158C65.8565 76.8179 65.449 76.8201 65.0415 76.8224C57.4424 76.8648 49.8801 76.8687 42.3174 76.0149C39.84 75.6779 39.84 75.6779 37.7404 76.8046Z" fill="#103255"/>
<path d="M28.0984 60.2934C29.5575 61.8203 29.8319 63.4112 29.8034 65.4626C29.8007 65.7514 29.8007 65.7514 29.798 66.046C29.7918 66.687 29.784 67.3279 29.7761 67.9689C29.7714 68.4211 29.7668 68.8734 29.7622 69.3256C29.7497 70.5347 29.7357 71.7437 29.7212 72.9528C29.7124 73.6989 29.7039 74.445 29.6955 75.1911C29.6603 78.3167 29.6221 81.4423 29.5823 84.5678C29.5727 85.322 29.5636 86.0762 29.5545 86.8304C29.5354 88.4031 29.5141 89.9757 29.489 91.5483C29.4816 92.0235 29.4749 92.4987 29.4688 92.974C29.4603 93.6148 29.4493 94.2556 29.4373 94.8964C29.4355 95.0733 29.4336 95.2503 29.4317 95.4326C29.3861 97.4803 29.0516 99.1432 27.5881 100.641C25.1744 102.475 21.5969 102.044 18.7186 102.034C18.3924 102.034 18.3924 102.034 18.0596 102.033C15.1366 102.028 12.2354 101.937 9.32489 101.661C9.17653 101.648 9.02817 101.634 8.87532 101.619C3.75085 101.124 3.75085 101.124 2.12962 99.1794C1.35272 98.0588 1.28568 97.0907 1.29077 95.7689C1.2912 95.5925 1.29163 95.4161 1.29207 95.2344C1.30858 93.3623 1.46546 91.5095 1.64166 89.6469C1.76584 88.3096 1.88321 86.972 1.98651 85.6329C2.00506 85.3929 2.00506 85.3929 2.024 85.1481C2.22537 82.3687 2.21277 79.5935 2.18997 76.8091C2.18716 76.4275 2.18438 76.0458 2.18162 75.6642C2.16969 74.084 2.15763 72.5039 2.13608 70.9237C2.12292 69.9453 2.11525 68.967 2.1111 67.9884C2.10853 67.62 2.10398 67.2516 2.09728 66.8833C2.06113 64.8482 2.06466 63.0772 3.31072 61.3555C4.40728 60.2301 5.73693 59.7433 7.28836 59.7132C7.53127 59.7132 7.53127 59.7132 7.7791 59.7132C8.0414 59.7091 8.0414 59.7091 8.30899 59.7048C8.68581 59.6991 9.06266 59.6947 9.43951 59.6915C10.4489 59.6829 11.4581 59.6637 12.4673 59.6451C12.6755 59.6414 12.8836 59.6378 13.0981 59.634C15.7416 59.5832 18.3801 59.4376 21.0199 59.2942C21.2868 59.2798 21.2868 59.2798 21.559 59.2651C21.8881 59.2473 22.2172 59.229 22.5462 59.2102C24.6711 59.0932 26.2896 59.0989 28.0984 60.2934ZM21.1652 61.7023C19.3945 61.8089 17.6223 61.8662 15.8494 61.9211C15.6914 61.9261 15.5334 61.931 15.3706 61.9361C13.1719 62.0038 10.9752 62.0425 8.77555 61.9901C7.397 61.97 6.26568 62.0349 5.14796 62.9341C4.23346 64.093 4.51074 65.6821 4.5427 67.0783C4.54607 67.4087 4.54888 67.739 4.55118 68.0694C4.55689 68.7697 4.56573 69.4699 4.57709 70.1702C4.60321 71.8088 4.61125 73.4475 4.61993 75.0862C4.62189 75.447 4.62404 75.8078 4.62636 76.1687C4.64432 78.9782 4.614 81.7786 4.45562 84.5845C4.4464 84.7524 4.43717 84.9202 4.42767 85.0931C4.32053 86.9817 4.16505 88.8649 3.99353 90.7487C3.97692 90.9342 3.96032 91.1196 3.94322 91.3107C3.8638 92.1935 3.78021 93.0754 3.68634 93.9569C3.65617 94.268 3.62608 94.5792 3.59609 94.8903C3.55349 95.295 3.55349 95.295 3.51004 95.7077C3.54136 96.7907 3.92917 97.4801 4.64788 98.2725C5.5729 98.8167 6.46274 98.9044 7.51788 99.0268C7.71177 99.0526 7.90565 99.0783 8.10541 99.1048C10.4811 99.4107 12.844 99.5717 15.239 99.5743C15.4809 99.575 15.7228 99.5757 15.9721 99.5765C16.4787 99.5776 16.9854 99.5781 17.4921 99.5781C18.2645 99.5786 19.0368 99.5826 19.8091 99.5868C20.3043 99.5874 20.7994 99.5878 21.2946 99.588C21.5234 99.5896 21.7522 99.5912 21.9879 99.5929C24.1109 99.6138 24.1109 99.6138 26.0078 98.7863C26.7426 97.7586 26.9527 97.0705 26.9895 95.823C27.002 95.407 27.002 95.407 27.0147 94.9825C27.0229 94.6676 27.031 94.3527 27.0389 94.0377C27.0455 93.7918 27.0455 93.7918 27.0522 93.5409C27.1836 88.6014 27.2447 83.6602 27.2968 78.7194C27.3141 77.0863 27.3343 75.4533 27.3584 73.8203C27.3775 72.5134 27.3916 71.2064 27.4041 69.8993C27.41 69.3491 27.4175 68.7989 27.4266 68.2487C27.4388 67.486 27.4455 66.7235 27.4508 65.9607C27.4582 65.6239 27.4582 65.6239 27.4657 65.2802C27.4677 63.9718 27.3594 63.233 26.4846 62.2384C24.9157 61.1438 22.9733 61.5874 21.1652 61.7023Z" fill="#103255"/>
<path d="M28.1671 9.64209C29.2793 10.725 29.7789 12.1163 29.8144 13.6495C29.8118 14 29.8079 14.3505 29.803 14.701C29.8004 14.9897 29.8004 14.9897 29.7977 15.2843C29.7915 15.9253 29.7836 16.5662 29.7758 17.2072C29.771 17.6595 29.7664 18.1117 29.7618 18.564C29.7493 19.773 29.7353 20.9821 29.7208 22.1911C29.712 22.9372 29.7035 23.6833 29.6951 24.4295C29.6599 27.5551 29.6218 30.6806 29.5819 33.8061C29.5724 34.5603 29.5632 35.3145 29.5541 36.0688C29.535 37.6414 29.5137 39.214 29.4887 40.7866C29.4813 41.2618 29.4745 41.737 29.4684 42.2123C29.46 42.8531 29.4489 43.4939 29.437 44.1347C29.4351 44.3117 29.4333 44.4886 29.4313 44.6709C29.3874 46.6412 29.1081 48.3508 27.6722 49.7971C25.2785 51.8581 21.4145 51.2816 18.4561 51.2722C18.097 51.2719 18.097 51.2719 17.7306 51.2717C5.3538 51.25 5.3538 51.25 2.86896 49.2169C1.775 48.1138 1.27165 47.1306 1.26904 45.5631C1.27154 45.409 1.27404 45.2548 1.27662 45.096C1.27804 44.9321 1.27946 44.7682 1.28093 44.5994C1.30953 42.7291 1.47169 40.8713 1.64129 39.0094C1.76483 37.6306 1.88184 36.2516 1.98614 34.8712C1.99851 34.7094 2.01089 34.5476 2.02363 34.381C2.2239 31.6033 2.21239 28.8302 2.1896 26.0474C2.1868 25.6658 2.18402 25.2841 2.18126 24.9025C2.16932 23.3223 2.15726 21.7422 2.13572 20.1621C2.12256 19.1836 2.11488 18.2053 2.11074 17.2268C2.10817 16.8583 2.10361 16.4899 2.09692 16.1216C2.06085 14.0907 2.05889 12.3088 3.31036 10.5939C3.82936 10.0964 3.82936 10.0964 4.33111 9.80761C4.58119 9.65697 4.58119 9.65697 4.83632 9.50328C5.84715 8.9903 6.79386 9.00817 7.90116 8.99463C8.30858 8.9876 8.71601 8.98052 9.12343 8.9734C9.44599 8.9683 9.44599 8.9683 9.77506 8.9631C13.7311 8.89956 17.6753 8.76676 21.6238 8.51319C24.0665 8.36153 26.0329 8.2701 28.1671 9.64209ZM21.9621 10.9195C20.2206 11.0357 18.4812 11.0868 16.7362 11.1223C16.119 11.1371 15.5019 11.1529 14.8848 11.1685C13.9263 11.1925 12.9679 11.2152 12.0093 11.2336C11.2238 11.2488 10.4385 11.2681 9.65311 11.2902C9.21343 11.3014 8.77365 11.3083 8.33388 11.315C8.06699 11.3231 7.80009 11.3311 7.52511 11.3394C7.17425 11.3473 7.17425 11.3473 6.8163 11.3552C5.87533 11.5347 5.33394 11.9917 4.78901 12.7687C4.58018 13.4091 4.58524 13.9672 4.59147 14.6409C4.59291 14.9264 4.59435 15.2118 4.59583 15.506C4.59764 15.6587 4.59946 15.8115 4.60133 15.9689C4.60709 16.454 4.6102 16.939 4.61263 17.4241C4.61633 18.1166 4.6211 18.8091 4.62668 19.5016C4.64062 21.3007 4.64429 23.0999 4.64579 24.8991C4.64595 25.076 4.64611 25.253 4.64628 25.4354C4.64747 28.2299 4.60897 31.0182 4.45526 33.8091C4.4461 33.9772 4.43693 34.1454 4.42749 34.3187C4.32032 36.2118 4.16514 38.0996 3.99316 39.9879C3.97656 40.1733 3.95996 40.3587 3.94285 40.5497C3.86343 41.4323 3.77982 42.314 3.68598 43.1952C3.6558 43.5063 3.62572 43.8175 3.59572 44.1287C3.55313 44.5333 3.55313 44.5333 3.50967 44.9461C3.54081 46.0228 3.92811 46.7117 4.63458 47.5065C8.93701 50.0162 17.1937 49.1262 22.0287 48.9134C22.2056 48.9067 22.3825 48.8999 22.5647 48.8929C24.388 48.8147 24.388 48.8147 25.9859 48.0246C26.7441 46.9971 26.9521 46.3172 26.9896 45.0574C26.998 44.7795 27.0064 44.5016 27.0151 44.2152C27.0233 43.8999 27.0314 43.5845 27.0394 43.2691C27.0438 43.1051 27.0482 42.941 27.0528 42.7719C27.1916 37.5741 27.2423 32.3743 27.2936 27.175C27.3069 25.8463 27.3231 24.5177 27.3407 23.189C27.3576 21.8936 27.3708 20.5982 27.3828 19.3027C27.3883 18.7574 27.395 18.2121 27.4029 17.6668C27.4135 16.911 27.42 16.1553 27.4254 15.3995C27.4295 15.177 27.4336 14.9545 27.4378 14.7253C27.4414 13.5457 27.3753 12.7143 26.7049 11.6974C25.3382 10.4589 23.6822 10.7983 21.9621 10.9195Z" fill="#103255"/>
<path d="M43.0811 8.52891C43.3175 8.54861 43.5538 8.56831 43.7973 8.5886C44.5512 8.65189 45.3046 8.71909 46.058 8.78669C50.9392 9.21036 55.7566 9.51122 60.6563 9.4807C60.8429 9.4796 61.0295 9.4785 61.2217 9.47737C62.9749 9.46686 64.7282 9.45542 66.4813 9.4357C67.4497 9.42497 68.4181 9.41859 69.3866 9.41501C69.7517 9.41284 70.1167 9.40907 70.4818 9.40359C74.3152 9.34714 74.3152 9.34714 75.9271 10.7661C76.0255 10.8913 76.124 11.0165 76.2254 11.1455C76.3782 11.3332 76.3782 11.3332 76.534 11.5248C77.5111 12.9437 77.4918 14.3783 77.4669 16.0561C77.4513 18.2235 77.4985 20.3869 77.5634 22.553C77.5683 22.7164 77.5732 22.8798 77.5782 23.0481C77.6339 24.8845 77.7006 26.7194 77.8117 28.5534C77.8443 29.1143 77.8763 29.6753 77.9083 30.2363C77.9231 30.4827 77.9379 30.729 77.9531 30.9829C78.0124 32.6735 77.7908 34.1538 76.6927 35.4995C74.8851 37.2104 72.6793 37.1663 70.3255 37.1162C70.0092 37.112 69.6928 37.1081 69.3765 37.1045C68.5223 37.0939 67.6683 37.0791 66.8142 37.0633C65.9172 37.0475 65.0201 37.0355 64.123 37.023C62.6168 37.0015 61.1105 36.9774 59.6043 36.9516C57.6761 36.9185 55.7478 36.8894 53.8195 36.8618C52.1554 36.8378 50.4914 36.8123 48.8274 36.7863C48.2956 36.7781 47.7637 36.77 47.2319 36.762C46.3933 36.7492 45.5547 36.7353 44.7162 36.7207C44.4099 36.7155 44.1037 36.7106 43.7975 36.706C38.219 36.6221 38.219 36.6221 36.2687 34.7357C34.6152 32.5489 35.011 28.6088 35.0229 25.9739C35.0231 25.8011 35.0233 25.6283 35.0234 25.4503C35.0299 22.7545 35.1611 20.0794 35.3953 17.3941C35.4092 17.2329 35.4231 17.0717 35.4375 16.9057C35.9394 11.2347 35.9394 11.2347 37.6524 9.59277C39.3176 8.28874 41.07 8.34009 43.0811 8.52891ZM38.9361 11.7377C38.143 12.7537 38.1379 14.4128 37.961 15.6699C37.9373 15.838 37.9136 16.0062 37.8892 16.1795C37.4762 19.3363 37.4791 22.5064 37.4782 25.6843C37.478 25.8941 37.4778 26.1039 37.4775 26.3201C37.4776 26.9284 37.4796 27.5365 37.4825 28.1448C37.4828 28.326 37.4831 28.5072 37.4833 28.694C37.4427 31.3138 37.4427 31.3138 38.6231 33.5468C39.7248 34.112 40.5529 34.295 41.8068 34.316C42.0456 34.3213 42.0456 34.3213 42.2891 34.3267C42.823 34.3377 43.3568 34.344 43.8907 34.3503C44.2782 34.3571 44.6657 34.3642 45.0532 34.3715C46.1333 34.3909 47.2133 34.4058 48.2934 34.42C49.0146 34.4299 49.7357 34.441 50.4568 34.4525C53.3538 34.4987 56.2507 34.5378 59.1478 34.5684C60.5273 34.5829 61.9067 34.5989 63.2861 34.6181C64.6472 34.6371 66.0082 34.6528 67.3693 34.6661C67.882 34.6716 68.3946 34.6783 68.9073 34.6862C69.6164 34.6969 70.3255 34.7033 71.0347 34.7087C71.3472 34.7149 71.3472 34.7149 71.6661 34.7212C73.0032 34.7255 73.9357 34.5361 74.9977 33.6572C76.0341 32.3481 75.5027 29.8287 75.4031 28.2292C75.2854 26.3217 75.2378 24.4183 75.221 22.5074C75.2184 22.2593 75.2158 22.0113 75.2131 21.7558C75.2023 20.7295 75.1918 19.7034 75.1879 18.6771C75.1845 17.9169 75.1756 17.1568 75.1659 16.3966C75.1665 16.0501 75.1665 16.0501 75.1671 15.6965C75.1453 14.4025 75.0543 13.5866 74.1563 12.58C73.441 11.9233 72.9764 11.8377 72.014 11.8498C71.6308 11.8519 71.6308 11.8519 71.2399 11.8542C70.9622 11.859 70.6845 11.8638 70.3983 11.8688C69.9534 11.8721 69.5085 11.8754 69.0636 11.8785C68.5901 11.8824 68.1166 11.8877 67.6432 11.8934C66.0029 11.9124 64.3624 11.9171 62.722 11.9214C62.4765 11.9221 62.4765 11.9221 62.226 11.9229C59.3211 11.9305 56.4226 11.8768 53.5206 11.7386C53.323 11.7292 53.1255 11.7198 52.922 11.7101C49.3887 11.5352 45.867 11.2396 42.3492 10.8682C40.955 10.7503 40.0926 10.8725 38.9361 11.7377Z" fill="#103255"/>
<path d="M94.4611 65.7695C94.949 65.7747 94.949 65.7747 95.5646 65.9902C95.9625 66.5511 96.2728 67.0666 96.5853 67.6731C96.6795 67.8501 96.7737 68.0271 96.8707 68.2094C97.1767 68.7912 97.475 69.3763 97.7716 69.9629C97.8702 70.1562 97.9688 70.3495 98.0704 70.5487C100.188 74.7339 101.919 79.0922 103.455 83.5223C103.51 83.6788 103.566 83.8352 103.624 83.9963C103.906 84.8433 104.002 85.4359 103.731 86.2949C103.209 86.2589 103.209 86.2589 102.627 86.0742C102.345 85.5667 102.345 85.5667 102.137 84.8854C102.056 84.6313 101.975 84.3772 101.891 84.1154C101.806 83.8378 101.721 83.5601 101.634 83.274C101.445 82.6859 101.25 82.0995 101.055 81.5136C101.004 81.3621 100.954 81.2107 100.902 81.0546C100.346 79.4139 99.6812 77.8248 98.9855 76.2391C98.9248 76.1007 98.8641 75.9624 98.8016 75.8198C97.0707 71.8871 97.0707 71.8871 95.0292 68.1099C94.9259 67.9353 94.8226 67.7607 94.7162 67.5808C94.5722 67.3456 94.5722 67.3456 94.4253 67.1057C94.2035 66.562 94.2629 66.3118 94.4611 65.7695Z" fill="#103255"/>
<path d="M90.4884 82.543C90.8582 82.6061 91.2264 82.6793 91.5919 82.7637C92.2295 85.5924 92.1487 88.6911 91.923 91.5642C91.5352 95.0452 91.5352 95.0452 92.6954 98.2129C93.853 98.9846 95.1258 98.6494 96.4474 98.4336C96.5164 98.944 96.5164 98.944 96.4474 99.5371C95.7751 100.209 95.0696 100.263 94.1576 100.31C93.1352 100.277 92.4734 100.117 91.6876 99.4552C90.1203 97.6743 90.2073 95.6032 90.2677 93.3574C90.3005 92.8881 90.3371 92.4191 90.3781 91.9504C90.5999 89.3269 90.5024 86.7173 90.3269 84.0947C90.299 83.6514 90.2823 83.2075 90.2677 82.7637C90.3405 82.6908 90.4134 82.618 90.4884 82.543Z" fill="#103255"/>
<path d="M12.5803 66.2109C13.377 66.2638 13.6565 66.405 14.2373 66.9722C14.4327 67.208 14.6251 67.4465 14.8149 67.6869C14.9203 67.8161 15.0256 67.9452 15.1342 68.0783C15.463 68.4834 15.7876 68.8917 16.1115 69.3008C16.3026 69.539 16.4937 69.7773 16.6848 70.0155C17.311 70.801 17.9256 71.5953 18.5393 72.3906C18.7431 72.6538 18.7431 72.6538 18.951 72.9223C20.5032 74.9294 22.0467 76.9449 23.5189 79.0117C23.6229 79.1529 23.7269 79.2942 23.834 79.4397C24.2742 80.0705 24.5084 80.4233 24.4491 81.205C24.3925 81.3552 24.3359 81.5054 24.2776 81.6602C23.6443 81.5872 23.2775 81.544 22.8212 81.0828C22.72 80.9285 22.6188 80.7742 22.5145 80.6153C22.3379 80.3532 22.3379 80.3532 22.1578 80.0859C22.0334 79.8953 21.909 79.7047 21.7808 79.5083C21.5081 79.1045 21.2345 78.7014 20.9601 78.2987C20.8176 78.0892 20.675 77.8797 20.5282 77.6639C18.5079 74.7585 16.3055 71.9112 13.9493 69.2689C13.8455 69.1501 13.7416 69.0314 13.6346 68.909C13.3426 68.5758 13.0469 68.2459 12.751 67.9162C12.3596 67.3145 12.3596 67.3145 12.4096 66.6851C12.4659 66.5286 12.5222 66.3722 12.5803 66.2109Z" fill="#103255"/>
<path d="M10.8142 21.8496C11.4869 21.9182 11.8231 21.967 12.2882 22.4745C12.3964 22.6501 12.5046 22.8257 12.6161 23.0066C12.7395 23.2033 12.8628 23.4 12.9899 23.6027C13.183 23.923 13.183 23.923 13.3799 24.2498C13.5157 24.4697 13.6515 24.6896 13.7915 24.9162C14.2012 25.5835 14.6053 26.254 15.0076 26.9258C15.1188 27.1102 15.2301 27.2946 15.3447 27.4845C17.0489 30.3211 18.5813 33.2479 20.0838 36.1953C20.1694 36.3524 20.255 36.5094 20.3432 36.6713C20.5734 37.186 20.4903 37.4406 20.3045 37.9609C19.9403 37.9609 19.5762 37.9609 19.201 37.9609C19.1247 37.8026 19.0484 37.6443 18.9699 37.4812C16.9216 33.2519 14.7635 29.1031 12.0936 25.2231C11.9883 25.07 11.883 24.9169 11.7744 24.7591C11.5833 24.4856 11.3889 24.2143 11.1904 23.946C10.7677 23.3507 10.5846 23.0567 10.6487 22.3152C10.7033 22.1615 10.758 22.0079 10.8142 21.8496Z" fill="#103255"/>
<path d="M54.5138 17.2148C55.1468 17.2872 55.5204 17.3459 55.9949 17.7847C56.1767 18.0284 56.1767 18.0284 56.3622 18.277C56.5124 18.4756 56.6626 18.6741 56.8174 18.8787C56.9042 18.9963 56.9909 19.1139 57.0803 19.235C57.4343 19.7117 57.7947 20.1831 58.1554 20.6547C59.8207 22.8416 61.4057 25.0609 62.9005 27.3672C63.0647 27.6028 63.2288 27.8383 63.398 28.081C63.8091 28.7323 63.8719 29.0421 63.7833 29.7949C63.3463 29.9042 63.3463 29.9042 62.9005 30.0156C62.0157 28.8202 61.1477 27.6197 60.3348 26.374C59.5368 25.1667 58.695 23.9953 57.8381 22.829C57.7052 22.6479 57.5723 22.4667 57.4354 22.2801C56.541 21.0723 55.6097 19.9216 54.5974 18.8098C54.2931 18.3184 54.2931 18.3184 54.3543 17.7028C54.4069 17.5418 54.4596 17.3808 54.5138 17.2148Z" fill="#103255"/>
<path d="M58.0449 49.4375C58.9141 49.5521 59.3447 49.7442 59.9588 50.3669C60.1773 50.5861 60.1773 50.5861 60.4002 50.8098C60.5516 50.9669 60.7029 51.124 60.8589 51.2859C61.0161 51.4463 61.1733 51.6066 61.3353 51.7719C62.5253 52.9985 63.6143 54.27 64.666 55.6172C65.0104 56.0314 65.3552 56.4452 65.7006 56.8586C68.0694 59.7678 68.0694 59.7678 67.9766 61.1348C67.3557 61.0592 66.9753 61.0089 66.5097 60.5769C66.4043 60.4327 66.2988 60.2885 66.1902 60.1399C66.0692 59.9784 65.9481 59.8168 65.8234 59.6504C65.6964 59.4757 65.5694 59.3009 65.4385 59.1208C65.1633 58.7554 64.8874 58.3904 64.6108 58.026C64.4723 57.8428 64.3337 57.6597 64.191 57.471C63.6001 56.7037 62.9824 55.963 62.3486 55.231C62.2341 55.0982 62.1195 54.9655 62.0015 54.8288C61.3741 54.1149 60.7245 53.4368 60.0399 52.7774C59.8958 52.6382 59.7517 52.499 59.6032 52.3556C59.3245 52.0897 59.0427 51.8269 58.7575 51.568C58.3777 51.2083 58.3777 51.2083 57.8242 50.541C57.8501 49.9013 57.8501 49.9013 58.0449 49.4375Z" fill="#103255"/>
<path d="M40.6094 18.9805C40.9792 19.0436 41.3474 19.1168 41.7129 19.2012C41.7115 19.3259 41.71 19.4506 41.7085 19.5792C41.6938 20.8788 41.6839 22.1784 41.6766 23.4781C41.6732 23.963 41.6687 24.4479 41.663 24.9327C41.655 25.6301 41.6512 26.3275 41.6483 27.0249C41.6449 27.2413 41.6415 27.4577 41.6379 27.6806C41.6308 29.1813 41.6308 29.1813 42.3751 30.457C42.8768 30.5898 42.8768 30.5898 43.4096 30.526C43.588 30.516 43.7664 30.5061 43.9502 30.4958C44.0859 30.483 44.2216 30.4702 44.3614 30.457C44.4342 30.8212 44.507 31.1854 44.5821 31.5605C43.7612 32.1078 43.1056 32.1443 42.1544 32.002C41.1864 31.5454 40.6988 31.0759 40.2985 30.0808C40.0104 28.9623 40.0925 27.7964 40.1128 26.6499C40.1154 26.3773 40.118 26.1046 40.1207 25.8237C40.2004 19.3895 40.2004 19.3895 40.6094 18.9805Z" fill="#103255"/>
<path d="M41.4921 51.2031C41.8563 51.2031 42.2204 51.2031 42.5956 51.2031C42.865 52.2515 42.8444 53.2715 42.8379 54.3456C42.8376 54.5399 42.8373 54.7343 42.8369 54.9346C42.8357 55.553 42.8329 56.1713 42.8301 56.7897C42.829 57.21 42.828 57.6302 42.8271 58.0505C42.8247 59.0786 42.8209 60.1067 42.8163 61.1348C43.1342 61.1727 43.4522 61.2099 43.7702 61.2468C43.9473 61.2676 44.1243 61.2884 44.3068 61.3098C44.8614 61.3609 45.369 61.3376 45.92 61.2589C46.2067 61.2179 46.4935 61.177 46.789 61.1348C46.789 61.4989 46.789 61.8631 46.789 62.2383C45.4391 62.8031 44.2507 63.1264 42.8163 62.6797C42.0426 62.2288 41.5609 61.7826 41.2714 60.9141C41.25 60.3504 41.2405 59.7931 41.2421 59.2295C41.2419 59.0637 41.2417 58.8979 41.2415 58.727C41.2413 58.3757 41.2417 58.0243 41.2426 57.6729C41.2438 57.1411 41.2426 56.6094 41.2412 56.0776C41.2406 54.4399 41.2558 52.8272 41.4921 51.2031Z" fill="#103255"/>
<path d="M96.668 19.4219C97.1877 19.5041 97.4735 19.5536 97.8248 19.958C97.9022 20.0946 97.9797 20.2312 98.0594 20.3719C98.1958 20.6089 98.1958 20.6089 98.3349 20.8506C98.4793 21.113 98.4793 21.113 98.6267 21.3806C98.7293 21.5623 98.8318 21.7441 98.9375 21.9313C103.804 30.6472 103.804 30.6472 103.661 31.9882C103.611 32.1384 103.561 32.2886 103.51 32.4434C102.995 32.3991 102.995 32.3991 102.406 32.2227C102.08 31.7682 102.08 31.7682 101.812 31.1648C101.71 30.9413 101.607 30.7178 101.502 30.4875C101.395 30.2453 101.289 30.0031 101.179 29.7535C100.947 29.2493 100.715 28.7455 100.481 28.2422C100.303 27.8581 100.303 27.8581 100.122 27.4662C99.5631 26.2977 98.9494 25.1624 98.3232 24.0291C98.2147 23.8321 98.1061 23.6352 97.9943 23.4323C97.4257 22.404 97.4257 22.404 96.832 21.3903C96.6183 21.0353 96.4207 20.6707 96.2266 20.3047C96.3921 19.7667 96.3921 19.7667 96.668 19.4219Z" fill="#103255"/>
<path d="M7.50411 33.9883C7.79544 33.9883 8.08677 33.9883 8.38692 33.9883C8.64252 34.9394 8.5659 35.7122 8.4283 36.6824C8.38633 36.9926 8.34438 37.3028 8.30243 37.6131C8.23477 38.0969 8.16637 38.5806 8.09747 39.0643C8.03113 39.5345 7.96754 40.0051 7.90413 40.4757C7.86459 40.7554 7.82504 41.035 7.7843 41.3231C7.7178 42.2523 7.77606 43.0047 7.94552 43.9199C8.37729 44.4521 8.37729 44.4521 9.18697 44.3889C9.55568 44.3753 9.55568 44.3753 9.93184 44.3613C10.0047 44.7255 10.0775 45.0896 10.1525 45.4648C9.32077 46.0194 8.93173 46.0233 7.94552 45.9062C7.13252 45.4 6.71826 45.0051 6.30404 44.1406C6.04675 42.8988 6.25643 41.6341 6.40059 40.3887C6.42378 40.1804 6.44697 39.9721 6.47086 39.7575C6.55064 39.048 6.63363 38.3389 6.71786 37.6299C6.75826 37.2819 6.75826 37.2819 6.79949 36.9269C6.84059 36.5955 6.84059 36.5955 6.88252 36.2574C6.91855 35.9606 6.91855 35.9606 6.95532 35.6578C7.06886 35.0593 7.26053 34.5452 7.50411 33.9883Z" fill="#103255"/>
<path d="M10.3733 86.2949C11.5653 86.6228 12.2586 87.4301 13.0984 88.2856C13.2515 88.4391 13.4046 88.5926 13.5624 88.7508C13.8854 89.0752 14.2075 89.4005 14.529 89.7264C15.0193 90.2236 15.5119 90.7185 16.0051 91.2129C16.3192 91.529 16.6331 91.8453 16.9469 92.1617C17.0934 92.3091 17.2399 92.4565 17.3908 92.6083C18.8804 94.1209 18.8804 94.1209 19.4221 94.9023C19.3669 95.5231 19.3669 95.5231 19.2014 96.0059C18.3968 95.8778 18.019 95.571 17.445 95.0042C17.2764 94.8392 17.1079 94.6742 16.9342 94.5041C16.7546 94.3246 16.575 94.145 16.39 93.96C16.2046 93.7763 16.0192 93.5926 15.8281 93.4032C15.4368 93.0143 15.0463 92.6245 14.6567 92.2338C14.0578 91.6347 13.4544 91.0405 12.8506 90.4465C12.4714 90.0684 12.0925 89.6901 11.7139 89.3115C11.532 89.1333 11.3502 88.9551 11.1629 88.7715C10.9978 88.6044 10.8328 88.4372 10.6627 88.265C10.5159 88.1187 10.369 87.9723 10.2178 87.8215C9.93186 87.3984 9.93186 87.3984 9.98275 86.9167C10.1526 86.5156 10.1526 86.5156 10.3733 86.2949Z" fill="#103255"/>
<path d="M57.3828 84.5293C58.1243 84.7977 58.482 85.1744 58.9346 85.807C59.0577 85.9767 59.1808 86.1465 59.3076 86.3214C59.4371 86.5039 59.5667 86.6863 59.7002 86.8743C59.9756 87.2554 60.2512 87.6365 60.527 88.0174C60.6652 88.2094 60.8034 88.4014 60.9459 88.5992C61.5548 89.439 62.1786 90.2674 62.8038 91.0952C63.1084 91.4985 63.4125 91.9019 63.7135 92.3078C63.9154 92.5773 64.1218 92.8435 64.3314 93.107C64.6445 93.5126 64.6445 93.5126 65.1074 94.2402C65.026 94.7271 65.026 94.7271 64.8867 95.123C64.4151 95.2291 64.4151 95.2291 63.7832 95.123C63.2709 94.6198 62.8964 94.0229 62.5004 93.4264C62.2496 93.0633 61.9981 92.7006 61.746 92.3384C61.6128 92.1459 61.4795 91.9533 61.3422 91.755C60.4498 90.4949 59.4954 89.2809 58.5511 88.0595C58.4086 87.8741 58.266 87.6886 58.1191 87.4976C57.9929 87.3345 57.8666 87.1714 57.7366 87.0033C57.3597 86.4838 57.0127 85.9845 56.7207 85.4121C56.7935 85.1936 56.8664 84.9751 56.9414 84.75C57.0871 84.6772 57.2327 84.6043 57.3828 84.5293Z" fill="#103255"/>
<path d="M40.8303 90.2676C41.2993 90.2719 41.2993 90.2719 41.9338 90.4883C42.4412 91.0057 42.8439 91.5917 43.258 92.1849C43.483 92.4987 43.7083 92.8122 43.9339 93.1255C44.0956 93.3531 44.0956 93.3531 44.2605 93.5852C44.5634 93.9942 44.8835 94.3747 45.2193 94.7566C45.6857 95.3438 45.6857 95.3438 45.6443 95.9783C45.5852 96.133 45.526 96.2878 45.465 96.4473C44.0646 96.2835 43.2046 94.8285 42.3752 93.7988C40.5709 91.46 40.5709 91.46 40.6742 90.6323C40.7257 90.5119 40.7772 90.3916 40.8303 90.2676Z" fill="#103255"/>
<path d="M93.7988 92.0332C94.0902 92.106 94.3815 92.1789 94.6816 92.2539C94.6589 92.4861 94.6361 92.7182 94.6127 92.9574C94.6986 94.0053 95.0154 94.2265 95.7852 94.9023C95.858 95.1208 95.9308 95.3393 96.0059 95.5645C95.933 95.7101 95.8602 95.8558 95.7852 96.0059C95.192 96.0886 95.192 96.0886 94.4609 96.0059C93.689 95.3025 93.4188 94.9004 93.1367 93.8954C93.1367 93.0523 93.2963 92.6966 93.7988 92.0332Z" fill="#103255"/>
<path d="M99.9785 20.3047C100.27 20.3047 100.561 20.3047 100.861 20.3047C101.158 20.6599 101.158 20.6599 101.413 21.1323C101.746 21.7197 101.992 22.0961 102.489 22.5669C102.607 22.6944 102.726 22.8218 102.848 22.9531C102.792 23.4497 102.792 23.4497 102.627 23.8359C101.955 23.9019 101.633 23.9192 101.085 23.504C100.234 22.5109 99.7578 21.8543 99.7578 20.5254C99.8306 20.4526 99.9035 20.3797 99.9785 20.3047Z" fill="#103255"/>
<path d="M98.875 66.6523C99.5371 66.873 99.5371 66.873 99.8354 67.3696C99.9282 67.5699 100.021 67.7702 100.116 67.9766C100.415 68.6886 100.415 68.6886 100.861 69.3008C100.87 69.6685 100.871 70.0366 100.861 70.4043C100.354 70.469 100.354 70.469 99.7578 70.4043C99.3681 69.9603 99.3681 69.9603 99.0405 69.3698C98.9301 69.1777 98.8198 68.9857 98.706 68.7878C98.442 68.2155 98.3068 67.7145 98.2129 67.0938C98.4314 66.9481 98.6499 66.8024 98.875 66.6523Z" fill="#103255"/>
<path d="M43.9199 54.7344C44.2841 54.8072 44.6482 54.88 45.0234 54.9551C44.9779 55.1918 44.9324 55.4285 44.8855 55.6724C44.8006 56.521 44.858 56.6829 45.2441 57.3828C45.1614 57.8794 45.1614 57.8794 45.0234 58.2656C44.7321 58.3385 44.4408 58.4113 44.1406 58.4863C43.544 57.8079 43.3919 57.3868 43.4095 56.4862C43.4104 56.297 43.4113 56.1078 43.4121 55.9129C43.4785 55.3965 43.4785 55.3965 43.9199 54.7344Z" fill="#103255"/>
<path d="M42.5957 25.3809C42.9599 25.4537 43.3241 25.5265 43.6993 25.6016C43.6849 26.047 43.6705 26.4924 43.6562 26.9379C43.6588 27.4199 43.6588 27.4199 44.1407 27.8086C44.1683 28.3879 44.1683 28.3879 44.1407 28.9121C43.1431 28.993 43.1431 28.993 42.6802 28.6397C42.3104 28.1675 42.2547 27.8638 42.1957 27.2706C42.1761 27.1025 42.1565 26.9344 42.1362 26.7611C42.1569 26.1946 42.3102 25.8648 42.5957 25.3809Z" fill="#103255"/>
<path d="M59.5898 18.7599C60.089 18.6875 60.089 18.6875 60.6934 18.7599C61.1391 19.2599 61.1391 19.2599 61.5348 19.9186C61.6682 20.1337 61.8017 20.3487 61.9391 20.5703C62.2383 21.1876 62.2383 21.1876 62.2383 22.0704C61.947 22.1433 61.6556 22.2161 61.3555 22.2911C59.6225 20.2958 59.6225 20.2958 59.5898 18.7599Z" fill="#103255"/>
<path d="M14.3455 24.2772C15.1961 24.1521 15.4379 24.2692 16.1525 24.7876C16.7732 25.3807 16.7732 25.3807 17.2146 26.0428C17.1319 26.636 17.1319 26.636 16.9939 27.1464C16.2084 27.0809 15.9507 26.9948 15.4214 26.3877C15.2849 26.2011 15.1483 26.0144 15.0076 25.8221C14.7891 25.6765 14.5706 25.5308 14.3455 25.3807C14.3041 24.8014 14.3041 24.8014 14.3455 24.2772Z" fill="#103255"/>
<path d="M17.656 68.6388C18.3429 68.5687 18.6546 68.5584 19.213 68.9862C19.3456 69.1401 19.4782 69.294 19.6147 69.4526C19.7507 69.6037 19.8867 69.7548 20.0268 69.9104C20.3044 70.4044 20.3044 70.4044 20.2372 71.0156C20.1866 71.1781 20.1359 71.3405 20.0837 71.5079C19.4647 71.4897 19.0818 71.3755 18.6121 70.9674C18.0409 70.3419 17.6824 69.9488 17.5732 69.094C17.6006 68.9438 17.6279 68.7935 17.656 68.6388Z" fill="#103255"/>
<path d="M62.2385 49.2168C63.0881 49.2653 63.3399 49.4354 63.9627 50.0444C64.4467 50.7635 64.5686 51.028 64.4455 51.8652C64.1542 51.9381 63.8628 52.0109 63.5627 52.0859C63.2966 51.8186 63.0354 51.5463 62.7764 51.2721C62.6305 51.121 62.4845 50.97 62.3342 50.8143C62.0178 50.3203 62.0178 50.3203 62.0807 49.7091C62.1328 49.5466 62.1848 49.3842 62.2385 49.2168Z" fill="#103255"/>
<path d="M8.82788 40.8301C9.11921 40.8301 9.41054 40.8301 9.71069 40.8301C9.9314 41.4922 9.9314 41.4922 9.71069 42.1543C10.002 42.2271 10.2933 42.3 10.5935 42.375C10.5207 42.7392 10.4478 43.1033 10.3728 43.4785C9.87622 43.5475 9.87622 43.5475 9.26929 43.4785C8.68703 42.9277 8.41525 42.5812 8.30371 41.7819C8.38647 41.2715 8.38647 41.2715 8.82788 40.8301Z" fill="#103255"/>
<path d="M60.6934 84.9707C61.4395 85.026 61.6383 85.2535 62.1831 85.7983C62.6822 86.5192 62.804 86.7736 62.6797 87.6191C62.4612 87.692 62.2427 87.7648 62.0176 87.8398C61.4333 87.2709 60.9264 86.7548 60.4727 86.0742C60.5554 85.4811 60.5554 85.4811 60.6934 84.9707Z" fill="#103255"/>
<path d="M13.6838 87.1776C14.1666 87.0811 14.1666 87.0811 14.7874 87.1776C15.254 87.6355 15.6092 88.1329 15.8909 88.7226C15.8909 89.0139 15.8909 89.3052 15.8909 89.6054C15.6724 89.6782 15.4539 89.751 15.2288 89.8261C13.6838 88.2812 13.6838 88.2812 13.6562 87.7018C13.6654 87.5288 13.6745 87.3559 13.6838 87.1776Z" fill="#103255"/>
<path d="M44.5818 91.1504C44.946 91.2232 45.3101 91.2961 45.6853 91.3711C45.8023 91.6922 45.9168 92.0143 46.0302 92.3367C46.0942 92.5159 46.1582 92.6951 46.2242 92.8798C46.3474 93.3574 46.3474 93.3574 46.1267 93.7988C45.7626 93.7988 45.3984 93.7988 45.0232 93.7988C44.235 92.1908 44.235 92.1908 44.5818 91.1504Z" fill="#103255"/>
</svg>
