<svg width="110" height="110" viewBox="0 0 110 110" fill="none" xmlns="http://www.w3.org/2000/svg">
<path d="M61.1566 40.6458C63.3587 42.3487 64.8186 44.7372 65.3125 47.4805C65.6321 50.5849 65.1715 53.3821 63.164 55.8594C62.6826 56.384 62.1812 56.8785 61.6601 57.3633C61.5183 57.5051 61.3765 57.6469 61.2304 57.793C61.5007 57.8141 61.771 57.8351 62.0495 57.8568C66.122 58.2003 70.3267 58.7473 73.2533 61.9346C78.9036 69.4793 80.5857 80.918 82.0703 90.0196C82.1098 90.2452 82.1494 90.4708 82.1901 90.7032C82.5398 92.9319 82.6072 95.4945 81.2906 97.4015C79.7947 99.251 78.047 100.001 75.7148 100.285C71.6871 100.543 67.8138 99.2953 64.7242 96.6982C63.728 95.7795 62.9122 94.8871 62.3046 93.6719C55.073 93.5656 55.073 93.5656 47.6953 93.4571C47.5535 93.8116 47.4117 94.1661 47.2656 94.5313C45.238 97.2493 42.1223 99.2855 38.7994 100.016C35.6896 100.425 32.805 100.299 29.9707 98.8819C28.596 97.6447 27.9657 96.0654 27.8424 94.2292C27.7321 90.6537 28.4456 87.2562 29.2187 83.7891C29.2692 83.5579 29.3197 83.3267 29.3717 83.0884C33.5768 63.9876 33.5768 63.9876 38.9832 60.0623C41.6416 58.4339 44.9053 58.0613 47.9638 57.8383C48.3628 57.8117 48.3628 57.8117 48.7695 57.5782C48.6474 57.4945 48.5252 57.4109 48.3994 57.3247C46.3099 55.8108 44.9688 53.9051 44.4726 51.3477C44.1151 48.1443 44.8432 45.2926 46.7738 42.6876C50.3535 38.3555 56.4881 37.6143 61.1566 40.6458ZM50.0585 44.4727C48.5357 46.2012 47.7612 48.0132 47.8354 50.3238C48.1637 52.9352 50.0365 55.0848 51.9921 56.7188C52.8829 57.2384 53.7842 57.5591 54.7851 57.793C54.7851 58.0057 54.7851 58.2184 54.7851 58.4375C54.9978 58.5439 54.9978 58.5439 55.2148 58.6524C55.2148 58.5106 55.2148 58.3688 55.2148 58.2227C55.381 58.1756 55.5471 58.1285 55.7183 58.08C58.2356 57.3136 60.0667 56.0181 61.3882 53.7026C62.3733 51.7745 62.8942 50.1155 62.3726 47.9429C61.5705 45.5766 60.4061 44.0031 58.2226 42.7539C55.2499 41.3913 52.3718 42.3534 50.0585 44.4727ZM38.9194 63.4301C33.9202 69.8447 32.238 81.2565 31.1523 89.1602C31.1243 89.3546 31.0964 89.549 31.0675 89.7493C30.9315 90.8555 30.9043 91.9675 30.8837 93.0811C30.8768 93.2984 30.8768 93.2984 30.8697 93.5201C30.8621 94.6833 31.1292 95.5656 31.9445 96.4112C34.2239 97.6433 37.1308 97.0841 39.5329 96.4615C42.2595 95.5645 43.9142 93.3745 45.3874 91.0124C45.8049 90.6239 46.0707 90.5571 46.6101 90.3964C47.311 90.1532 47.6094 89.957 47.9395 89.2878C48.0567 88.997 48.1676 88.7036 48.2727 88.4082C48.395 88.0977 48.5175 87.7871 48.6402 87.4767C48.6981 87.3244 48.7559 87.1722 48.8154 87.0153C49.0475 86.4199 49.3163 85.8441 49.5886 85.2662C50.4284 83.422 50.4284 83.422 50.2734 81.4258C50.0124 81.0429 50.0124 81.0429 49.6289 80.7813C48.3573 80.6458 47.1946 81.0988 46.1914 81.8555C44.7913 82.9888 43.5631 84.27 42.3668 85.6114C40.7714 87.388 40.7714 87.388 39.6252 87.5489C38.8867 87.4414 38.8867 87.4414 38.3496 87.1326C37.8634 86.3021 38.0554 85.5537 38.2421 84.6485C38.5288 83.7038 38.8769 82.7883 39.2358 81.8689C39.3247 81.6292 39.4136 81.3895 39.5052 81.1426C40.2114 79.3105 41.0544 77.3795 42.7539 76.2696C42.9666 76.1987 43.1793 76.1278 43.3984 76.0547C43.2566 77.4018 43.1148 78.7489 42.9687 80.1368C43.3808 79.851 43.3808 79.851 43.8012 79.5594C44.6968 78.96 45.6137 78.468 46.5858 78.0051C47.0943 77.7639 47.0943 77.7639 47.6953 77.3438C47.6667 77.2161 47.6382 77.0884 47.6088 76.9569C47.5519 76.6898 47.5519 76.6898 47.4939 76.4173C47.4378 76.1593 47.4378 76.1593 47.3806 75.8961C47.0592 73.9377 47.0008 71.9667 46.9836 69.9854C46.9743 69.6207 46.9743 69.6207 46.9647 69.2485C46.9538 67.8125 47.0289 66.8976 47.9101 65.7422C50.033 64.1392 52.9054 64.379 55.441 64.3853C56.0081 64.386 56.575 64.381 57.1421 64.3755C57.5076 64.3751 57.8731 64.3749 58.2386 64.3751C58.4055 64.3731 58.5725 64.3712 58.7446 64.3691C59.9239 64.379 60.7889 64.6369 61.875 65.0977C62.0876 65.1686 62.3003 65.2395 62.5195 65.3125C63.5408 66.9346 63.4532 68.7045 63.446 70.5494C63.446 70.6934 63.4459 70.8375 63.4459 70.9859C63.4422 73.1827 63.246 75.2089 62.7343 77.3438C62.7343 77.5565 62.7343 77.7692 62.7343 77.9883C62.849 78.0354 62.9636 78.0825 63.0818 78.131C64.3991 78.6917 65.6039 79.3774 66.8164 80.1368C66.8294 79.8961 66.8424 79.6554 66.8558 79.4075C66.8739 79.0911 66.8921 78.7747 66.9104 78.4583C66.9188 78.2997 66.9272 78.1412 66.936 77.9778C66.9762 77.2942 67.0285 76.7075 67.246 76.0547C67.9347 76.2772 68.1158 76.5012 68.5049 77.1273C68.6435 77.4038 68.7787 77.682 68.9111 77.9615C68.9837 78.1105 69.0562 78.2596 69.131 78.4132C71.9259 84.2699 71.9259 84.2699 71.7578 86.5821C71.4371 87.0885 71.18 87.1988 70.6298 87.428C69.6014 87.4514 68.8914 86.8964 68.1499 86.2422C67.5333 85.6391 66.9706 85.0085 66.427 84.3396C65.2003 82.8866 63.5357 81.3785 61.5829 81.1522C60.8648 81.1204 60.8648 81.1204 60.1562 81.211C59.6791 81.9266 59.6778 82.229 59.8074 83.0589C60.0832 84.1198 60.5952 85.0814 61.0827 86.0584C61.1873 86.2737 61.2918 86.489 61.3995 86.7109C62.5302 89.1233 62.5302 89.1233 64.4531 90.8789C65.0573 91.4967 65.6134 92.1535 66.1718 92.8125C68.1042 95.0843 70.0183 96.3428 73.0468 96.6797C75.5188 96.8696 75.5188 96.8696 77.7734 96.0352C78.3384 95.455 78.6102 95.1145 78.729 94.3053C78.6772 92.4881 78.5337 90.7059 78.2836 88.9051C78.2454 88.6265 78.2071 88.3479 78.1676 88.0609C77.2953 81.908 75.5567 75.9419 73.5705 70.066C73.4997 69.8538 73.4997 69.8538 73.4276 69.6373C72.31 66.3022 71.1922 63.2778 67.9711 61.4991C66.5668 60.8578 65.0947 60.4948 63.5937 60.1563C63.2859 60.0863 63.2859 60.0863 62.9718 60.0149C59.4056 59.2037 59.4056 59.2037 55.7679 59.0653C55.2297 59.0816 54.8722 58.9969 54.3554 58.8672C49.1116 58.5122 42.6801 59.4316 38.9194 63.4301ZM49.8326 68.1387C49.6081 68.8123 49.5364 69.3628 49.5189 70.0727C49.5113 70.328 49.5037 70.5834 49.4958 70.8464C49.491 71.1118 49.4862 71.3771 49.4812 71.6504C49.4738 71.9091 49.4665 72.1678 49.4589 72.4343C49.4139 74.1425 49.406 75.8499 49.414 77.5586C49.5658 77.6091 49.7175 77.6596 49.8738 77.7116C51.2249 78.174 52.089 78.7008 52.8515 79.9219C53.6215 81.6018 53.2584 83.0833 52.708 84.7735C51.9901 86.6157 50.9346 88.1249 49.6289 89.5899C49.6289 89.7317 49.6289 89.8735 49.6289 90.0196C53.3865 90.0196 57.1441 90.0196 61.0156 90.0196C60.5902 89.5233 60.1648 89.027 59.7265 88.5157C58.1735 86.341 56.8643 84.1883 56.9335 81.4258C57.1029 80.4613 57.3661 79.7299 58.0212 78.9954C58.5973 78.6645 59.1492 78.4231 59.766 78.1805C59.9597 78.104 60.1534 78.0275 60.353 77.9487C60.5007 77.8909 60.6485 77.8331 60.8007 77.7735C60.7888 77.6539 60.777 77.5344 60.7647 77.4112C60.7084 76.8383 60.6537 76.2653 60.5993 75.6922C60.5791 75.4812 60.5588 75.2702 60.538 75.0528C60.4371 73.9544 60.3571 72.8614 60.3249 71.7587C60.3186 71.5555 60.3124 71.3522 60.306 71.1429C60.2958 70.7538 60.2891 70.3647 60.2863 69.9756C60.2792 69.7104 60.2792 69.7104 60.272 69.4399C60.2703 69.2855 60.2685 69.131 60.2667 68.9719C60.0958 68.2965 59.8719 68.0742 59.2968 67.6758C58.6188 67.5463 57.9504 67.5503 57.2617 67.5541C56.9654 67.5521 56.9654 67.5521 56.6631 67.5501C56.2461 67.5486 55.8291 67.5493 55.4122 67.552C54.7731 67.555 54.1347 67.5476 53.4956 67.5394C53.0904 67.5392 52.6852 67.5396 52.28 67.5407C52.0886 67.5379 51.8973 67.535 51.7001 67.5321C50.6432 67.5262 50.6432 67.5262 49.8326 68.1387Z" fill="#103255"/>
<path d="M69.6714 9.68642C69.9306 9.69311 69.9306 9.69311 70.195 9.69995C70.7607 9.71488 71.3264 9.73161 71.892 9.74852C72.2868 9.75968 72.6815 9.77077 73.0762 9.78177C73.6829 9.79873 74.2897 9.8158 74.8963 9.83341C76.2192 9.87137 77.542 9.90015 78.8652 9.92308C87.6145 10.0838 87.6145 10.0838 90.0195 11.6015C90.4147 12.0312 90.4148 12.0312 90.6506 12.4609C90.7731 12.6736 90.7731 12.6736 90.8981 12.8906C91.2941 13.7607 91.349 14.5864 91.3921 15.5365C91.405 15.8123 91.4179 16.0881 91.4311 16.3722C91.4443 16.6742 91.4574 16.9761 91.4705 17.2781C91.4846 17.5921 91.4987 17.9061 91.5129 18.22C91.5426 18.881 91.5716 19.542 91.6001 20.2031C91.629 20.8706 91.6588 21.538 91.6895 22.2055C91.8354 25.3753 91.9785 28.5463 92.0127 31.7196C92.0169 31.9202 92.0211 32.1208 92.0255 32.3275C92.0302 34.2649 91.5722 35.827 90.2192 37.2418C88.4684 38.7445 85.5357 38.7325 83.356 38.6383C83.211 38.6329 83.066 38.6275 82.9166 38.6219C82.3229 38.5988 81.73 38.5743 81.1372 38.5334C79.2654 38.4023 79.2654 38.4023 77.5665 39.0973C77.0132 39.6436 76.5321 40.2072 76.0546 40.8203C75.7942 41.115 75.5324 41.4085 75.2691 41.7007C75.0293 41.9798 74.7898 42.2593 74.5507 42.539C74.0198 43.1491 73.4817 43.7519 72.9394 44.3518C72.7379 44.5834 72.7379 44.5834 72.5324 44.8197C71.8633 45.5532 71.4902 45.9314 70.514 46.2031C69.7211 46.1896 69.3664 46.0364 68.7499 45.5469C68.4361 44.9191 68.5112 44.3654 68.5141 43.6653C68.5144 43.5228 68.5147 43.3804 68.515 43.2336C68.5162 42.7783 68.5189 42.323 68.5217 41.8677C68.5227 41.5591 68.5237 41.2505 68.5246 40.942C68.527 40.1853 68.5307 39.4286 68.5351 38.6719C68.3906 38.6616 68.2461 38.6514 68.0972 38.6409C67.9061 38.6251 67.7149 38.6093 67.5179 38.593C67.3291 38.5783 67.1403 38.5637 66.9458 38.5486C65.5207 38.3152 64.5425 37.3411 63.6424 36.275C62.9364 35.2139 62.8872 34.213 62.8936 32.9684C62.8928 32.7859 62.8921 32.6033 62.8913 32.4153C62.8894 31.8127 62.8906 31.2102 62.8921 30.6077C62.8918 30.1867 62.8914 29.7657 62.8908 29.3447C62.8902 28.4617 62.8911 27.5788 62.8931 26.6958C62.8956 25.5702 62.8942 24.4446 62.8916 23.3189C62.89 22.4487 62.8905 21.5785 62.8917 20.7083C62.8919 20.2937 62.8916 19.8791 62.8906 19.4645C62.8781 12.8518 62.8781 12.8518 64.5429 11.0586C66.0549 9.71753 67.7311 9.62485 69.6714 9.68642ZM85.9374 10.7422C85.7956 10.884 85.6538 11.0258 85.5078 11.1719C84.6603 11.3513 83.7911 11.4092 82.9296 11.4941C82.5254 11.5354 82.5254 11.5354 82.1131 11.5776C79.2132 11.8606 76.3034 11.9797 73.3926 12.0883C69.6169 12.016 69.6169 12.016 66.3867 13.5351C65.0977 15.5119 65.7305 19.4072 65.7849 21.7093C65.7928 22.0684 65.8007 22.4275 65.8086 22.7866C65.8253 23.5312 65.8435 24.2757 65.8623 25.0203C65.8861 25.9737 65.9047 26.9273 65.922 27.8809C65.9364 28.6189 65.9544 29.3569 65.9736 30.0948C65.982 30.4466 65.9891 30.7985 65.9948 31.1504C66.0031 31.6399 66.0166 32.129 66.0314 32.6183C66.041 33.0349 66.041 33.0349 66.0507 33.46C66.1914 34.2735 66.3792 34.5293 67.0312 35.0195C67.9159 35.3144 68.8029 35.3094 69.7276 35.3456C70.5092 35.3864 70.8761 35.4343 71.5429 35.8789C71.8088 36.6766 71.8343 37.4501 71.8786 38.2825C71.8879 38.4435 71.8972 38.6045 71.9067 38.7705C71.9295 39.1672 71.9511 39.5641 71.9726 39.9609C73.0122 38.9391 73.9962 37.869 74.9812 36.7949C75.1744 36.5862 75.1744 36.5862 75.3715 36.3732C75.4873 36.2473 75.6031 36.1213 75.7224 35.9916C76.3594 35.3636 76.793 35.1806 77.6625 35.1727C77.954 35.1684 77.954 35.1684 78.2514 35.1639C78.4609 35.1628 78.6704 35.1617 78.8862 35.1605C79.1021 35.1574 79.318 35.1542 79.5404 35.151C80.2315 35.141 80.9226 35.1336 81.6137 35.1269C82.5218 35.1181 83.4298 35.1066 84.3379 35.0934C84.5465 35.0922 84.7551 35.0911 84.97 35.0899C86.137 35.0727 87.0803 35.0423 88.0322 34.2944C88.5575 33.6115 88.5438 32.8408 88.5529 32.0052C88.5558 31.7896 88.5587 31.5741 88.5616 31.352C88.5639 31.1188 88.5661 30.8857 88.5684 30.6454C88.5755 30.143 88.5827 29.6406 88.5898 29.1382C88.5999 28.3531 88.6094 27.568 88.618 26.7829C88.6515 23.8635 88.7266 20.9673 89.0134 18.0604C89.3823 15.0573 89.3823 15.0573 88.5156 12.2461C88.1085 11.7901 87.7443 11.517 87.2265 11.1719C87.0138 11.1719 86.8011 11.1719 86.582 11.1719C86.582 11.0301 86.582 10.8883 86.582 10.7422C86.3693 10.7422 86.1566 10.7422 85.9374 10.7422Z" fill="#103255"/>
<path d="M45.2954 11.3037C45.3962 11.4242 45.497 11.5446 45.6008 11.6688C45.7039 11.7876 45.8069 11.9064 45.913 12.0288C46.5043 12.9459 46.675 13.9017 46.7075 14.9769C46.7154 15.2153 46.7233 15.4538 46.7315 15.6995C46.7378 15.9571 46.7441 16.2147 46.7506 16.4801C46.7585 16.7527 46.7664 17.0254 46.7745 17.3063C46.8551 20.2071 46.8975 23.1089 46.9095 26.0107C46.9127 26.809 46.9183 27.607 46.929 28.4052C46.9397 29.1981 46.9449 29.9908 46.9465 30.7838C46.9479 31.0801 46.9511 31.3763 46.9563 31.6725C46.9901 33.7005 46.8081 35.4032 45.3743 36.9387C44.2621 37.967 43.186 38.315 41.6799 38.4571C41.5381 38.3862 41.3963 38.3153 41.2502 38.2423C41.2559 38.446 41.2615 38.6498 41.2673 38.8597C41.2856 39.6173 41.2991 40.3746 41.3093 41.1324C41.3146 41.46 41.322 41.7876 41.3313 42.1151C41.3443 42.5866 41.3504 43.0578 41.3551 43.5294C41.3608 43.8129 41.3664 44.0965 41.3722 44.3886C41.2502 45.1173 41.2502 45.1173 40.7515 45.6436C40.176 45.9766 40.176 45.9766 39.4576 46.0178C38.3814 45.667 37.8206 45.0603 37.0608 44.2445C36.9185 44.0969 36.7763 43.9494 36.6297 43.7974C35.9462 43.0841 35.277 42.3596 34.6304 41.6126C34.5275 41.4966 34.4246 41.3805 34.3186 41.261C33.9456 40.8204 33.9456 40.8204 33.5635 40.2763C32.9225 39.4762 32.3535 38.8038 31.3371 38.5629C30.0242 38.4207 28.7081 38.5059 27.3928 38.5779C26.6119 38.6101 25.8309 38.6363 25.0497 38.6594C24.865 38.6653 24.6804 38.6713 24.4902 38.6774C22.6038 38.7179 21.0463 38.3785 19.551 37.168C18.1726 35.6365 18.0205 34.2177 18.0186 32.188C18.0183 32.0425 18.018 31.897 18.0177 31.747C18.0172 31.2713 18.0186 30.7956 18.0203 30.3199C18.0206 30.1556 18.0209 29.9913 18.0213 29.8221C18.0582 14.1567 18.0582 14.1567 19.8783 12.0892C20.8594 11.235 21.497 11.1287 22.7737 11.1719C23.1337 11.2332 23.493 11.3008 23.8479 11.3868C23.8479 11.3159 23.8479 11.245 23.8479 11.1719C25.2189 11.0216 26.5902 10.8727 27.9615 10.7248C28.4263 10.6745 28.8911 10.6238 29.3558 10.5729C42.7982 9.10005 42.7982 9.10005 45.2954 11.3037ZM21.6995 12.461C20.1304 14.571 20.8973 18.1405 21.0281 20.6251C21.0714 21.4866 21.1134 22.3482 21.1548 23.2099C21.1652 23.4255 21.1757 23.6411 21.1864 23.8632C21.2525 25.2746 21.2974 26.685 21.3243 28.0976C21.328 28.2767 21.3316 28.4559 21.3354 28.6404C21.352 29.4808 21.3651 30.3211 21.3733 31.1616C21.3787 31.4607 21.3842 31.7597 21.3898 32.0588C21.3927 32.3157 21.3956 32.5725 21.3985 32.8372C21.4938 33.588 21.676 33.989 22.1292 34.5899C22.8147 35.0469 22.987 35.0733 23.7731 35.0745C23.9753 35.076 24.1776 35.0775 24.3859 35.079C24.6041 35.0788 24.8224 35.0786 25.0472 35.0783C25.5092 35.0827 25.9712 35.0872 26.4332 35.0918C27.1616 35.0966 27.8899 35.1002 28.6184 35.1014C29.3214 35.1035 30.0242 35.1107 30.7271 35.1186C30.944 35.1175 31.1609 35.1165 31.3844 35.1153C33.0867 35.1391 33.922 35.5676 35.1138 36.7921C35.2384 36.92 35.363 37.048 35.4914 37.1798C36.0327 37.7632 36.5519 38.3642 37.065 38.9724C37.3676 39.3403 37.3676 39.3403 37.8127 39.5313C37.8285 39.1973 37.8285 39.1973 37.8446 38.8566C37.8608 38.5623 37.877 38.268 37.8933 37.9737C37.9 37.8272 37.9066 37.6807 37.9135 37.5297C37.959 36.7471 38.0061 36.105 38.4573 35.4493C39.2674 35.0442 40.2536 35.1453 41.147 35.101C42.0446 35.0033 42.6839 34.8935 43.3144 34.2221C43.6901 33.6048 43.7053 33.2003 43.7235 32.4792C43.735 32.083 43.735 32.083 43.7467 31.6787C43.7517 31.3824 43.7566 31.0861 43.7612 30.7899C43.7681 30.4785 43.775 30.1671 43.7821 29.8557C43.8052 28.7125 43.8175 27.5692 43.8284 26.4258C43.8319 26.0585 43.8319 26.0585 43.8355 25.6838C43.8504 24.0349 43.8604 22.3862 43.8658 20.7373C43.8677 20.179 43.8702 19.6208 43.8732 19.0625C43.8771 18.2702 43.8779 17.478 43.8779 16.6857C43.8794 16.4454 43.8809 16.2051 43.8825 15.9576C43.8819 15.7358 43.8812 15.514 43.8806 15.2855C43.8809 15.0919 43.8812 14.8983 43.8815 14.6989C43.822 14.1179 43.7323 13.8001 43.3987 13.3204C42.5914 12.6977 41.9696 12.5908 40.963 12.5701C40.6915 12.5629 40.42 12.5557 40.1403 12.5483C39.8442 12.5435 39.5481 12.5388 39.252 12.534C38.9432 12.5266 38.6343 12.519 38.3255 12.511C37.5099 12.4905 36.6942 12.4735 35.8785 12.4575C34.5912 12.4318 33.3041 12.4024 32.0169 12.3709C31.7023 12.3633 31.3876 12.3559 31.073 12.3489C28.8115 12.2971 26.57 12.1733 24.3221 11.9024C22.9 11.7426 22.9 11.7426 21.6995 12.461Z" fill="#103255"/>
<path d="M83.6128 41.6486C83.7596 41.6505 83.9064 41.6524 84.0576 41.6543C84.375 41.6586 84.6923 41.664 85.0096 41.6702C85.5181 41.6799 86.0266 41.6859 86.5352 41.6911C94.1301 41.7766 94.1301 41.7766 97.1362 42.1899C97.3149 42.2144 97.4936 42.2389 97.6776 42.2641C99.3273 42.5265 100.632 43.0815 101.836 44.2578C102.532 45.5511 102.527 47.0761 102.595 48.5144C102.605 48.7005 102.614 48.8866 102.624 49.0783C102.818 53.0722 102.96 57.0666 102.986 61.0654C102.989 61.4948 102.994 61.9242 103 62.3536C103.007 62.9561 103.009 63.5585 103.009 64.1611C103.012 64.3366 103.015 64.5121 103.018 64.693C103.007 66.1375 102.62 67.4423 101.666 68.5536C99.1779 70.3009 96.3324 70.2871 93.3941 70.2975C92.9869 70.2994 92.9869 70.2994 92.5714 70.3013C91.9988 70.3033 91.4263 70.3048 90.8537 70.3055C90.1288 70.3067 89.4041 70.3119 88.6792 70.318C87.9771 70.323 87.2749 70.3234 86.5728 70.3244C86.1893 70.3284 86.1893 70.3284 85.798 70.3324C83.5729 70.3266 80.9281 70.2444 79.18 68.698C77.5825 66.8826 77.5175 64.0129 77.5813 61.6962C77.6294 61.1074 77.6959 60.5268 77.7734 59.9414C77.5889 59.888 77.5889 59.888 77.4007 59.8335C75.8716 59.3834 74.3633 58.8833 72.8589 58.3569C72.5 58.2365 72.5 58.2365 72.1338 58.1136C71.789 57.9923 71.789 57.9923 71.4372 57.8685C71.127 57.7616 71.127 57.7616 70.8104 57.6525C70.1308 57.2993 69.8058 56.9314 69.3945 56.2891C69.4068 55.5759 69.4235 55.0468 69.8448 54.4538C70.449 53.9913 71.1297 53.7918 71.8451 53.5607C72 53.5092 72.1549 53.4576 72.3146 53.4045C72.6415 53.2962 72.9687 53.1888 73.2962 53.0823C73.7977 52.9191 74.2981 52.7528 74.7984 52.5859C75.1164 52.481 75.4344 52.3762 75.7526 52.2717C75.9023 52.222 76.052 52.1723 76.2063 52.1211C76.8271 51.9203 77.3312 51.7773 77.9883 51.7773C77.9849 51.5582 77.9849 51.5582 77.9815 51.3347C77.9724 50.6632 77.9669 49.9916 77.9614 49.3201C77.9578 49.0903 77.9542 48.8606 77.9505 48.6239C77.9373 46.4653 78.1348 44.7039 79.4922 42.9688C80.6583 41.8027 82.0131 41.622 83.6128 41.6486ZM95.8282 43.0693C95.0138 43.282 94.1803 43.3335 93.3437 43.406C93.0516 43.4329 93.0516 43.4329 92.7535 43.4604C92.3421 43.4981 91.9305 43.535 91.519 43.5714C90.9008 43.626 90.2829 43.6826 89.665 43.7396C87.5749 43.93 85.4888 44.0953 83.3919 44.1887C82.4345 44.2864 81.9402 44.4921 81.2109 45.1172C80.7622 45.9777 80.7333 46.6997 80.7468 47.6609C80.7492 47.9424 80.7515 48.2239 80.754 48.514C80.7584 48.8095 80.7631 49.1051 80.7678 49.4006C80.7757 49.98 80.7817 50.5593 80.7871 51.1387C80.7929 51.5233 80.7929 51.5233 80.7988 51.9158C80.782 52.6074 80.6982 53.2476 80.5664 53.9258C80.4437 53.9598 80.321 53.9939 80.1946 54.029C78.6349 54.4778 77.1331 55.0465 75.625 55.6445C76.1512 55.9953 76.52 56.1875 77.1012 56.3906C77.26 56.4464 77.4189 56.5022 77.5825 56.5597C77.7474 56.6166 77.9124 56.6735 78.0823 56.7322C78.3284 56.8188 78.3284 56.8188 78.5795 56.9072C79.3093 57.1618 80.0288 57.3991 80.7812 57.5781C81.1117 59.0612 80.9996 60.5746 80.9688 62.0836C80.8797 64.3925 80.8797 64.3925 81.8286 66.3867C82.7465 66.8187 83.5519 66.8407 84.5627 66.8313C84.7736 66.8298 84.7736 66.8298 84.9886 66.8282C85.4521 66.8244 85.9155 66.8189 86.3789 66.8131C86.7022 66.8095 87.0254 66.8059 87.3486 66.8023C88.0259 66.7945 88.7031 66.7856 89.3804 66.7762C90.2462 66.7644 91.1121 66.7566 91.9781 66.7497C92.6457 66.7437 93.3133 66.7348 93.9808 66.7253C94.3 66.7212 94.6191 66.7181 94.9383 66.7161C95.3857 66.713 95.8328 66.7059 96.2801 66.6979C96.6612 66.6933 96.6612 66.6933 97.05 66.6887C97.8447 66.5903 98.3631 66.3755 99.043 65.957C99.4859 65.2927 99.5276 65.141 99.5377 64.3874C99.5413 64.2005 99.5449 64.0137 99.5486 63.8212C99.5504 63.6184 99.5522 63.4157 99.5541 63.2069C99.5577 62.9949 99.5614 62.7829 99.5651 62.5644C99.5765 61.8826 99.5852 61.2007 99.5935 60.5188C99.6062 59.6334 99.6201 58.748 99.6346 57.8626C99.6382 57.6432 99.6418 57.4238 99.6455 57.1977C99.6728 55.6777 99.7203 54.1596 99.7874 52.6409C99.7995 52.3578 99.7995 52.3578 99.8118 52.069C99.8611 51.0317 99.9446 50.0053 100.069 48.9742C100.271 47.2107 100.372 45.5134 99.2578 44.043C98.1852 42.9703 97.2756 42.6252 95.8282 43.0693Z" fill="#103255"/>
<path d="M30.3146 43.1258C31.9625 44.8246 31.8684 46.9569 31.9309 49.2127C31.9392 49.4602 31.9475 49.7076 31.9561 49.9626C31.9762 50.5675 31.9946 51.1724 32.0115 51.7774C32.2348 51.8499 32.4581 51.9224 32.6881 51.997C33.5189 52.2677 34.3482 52.5431 35.177 52.8199C35.5354 52.9389 35.8942 53.0566 36.2535 53.173C36.7709 53.3409 37.2866 53.5133 37.8022 53.6867C37.9622 53.7375 38.1223 53.7884 38.2872 53.8408C39.2667 54.1762 39.8439 54.5 40.3904 55.4298C40.2964 56.1012 40.2964 56.1012 39.9607 56.7188C39.1455 57.2936 38.2605 57.6203 37.3247 57.9433C37.1784 57.9948 37.0321 58.0464 36.8813 58.0995C36.4177 58.2625 35.9535 58.4239 35.4893 58.5853C35.1733 58.6961 34.8573 58.807 34.5414 58.918C33.7701 59.1888 32.9984 59.4581 32.2263 59.7266C32.2232 59.8987 32.2201 60.0709 32.2168 60.2482C32.2007 61.0368 32.18 61.8251 32.1592 62.6136C32.1543 62.8843 32.1495 63.155 32.1445 63.434C32.0827 65.5863 31.9162 67.4136 30.2927 68.9649C28.5156 70.0694 26.8509 70.101 24.8008 70.16C24.6544 70.1643 24.508 70.1687 24.3572 70.1731C21.7478 70.2481 19.1375 70.2887 16.5271 70.3037C16.1193 70.3063 15.7115 70.3101 15.3038 70.3149C14.7256 70.3214 14.1475 70.3235 13.5693 70.3245C13.399 70.3271 13.2287 70.3298 13.0533 70.3325C11.4865 70.3264 9.92562 69.9967 8.74122 68.9112C8.60912 68.7949 8.47701 68.6786 8.34091 68.5587C6.97379 66.9779 6.96765 65.6921 6.99058 63.6509C6.99109 63.3587 6.99129 63.0664 6.99118 62.7742C6.99185 62.1602 6.99539 61.5462 7.00118 60.9322C7.00834 60.1641 7.01008 59.396 7.00985 58.6279C7.01006 55.6209 7.06697 52.6261 7.28263 49.6256C7.30745 49.2763 7.30745 49.2763 7.33276 48.9198C7.64727 45.0198 7.64727 45.0198 9.0232 43.6134C10.0439 42.9102 10.8312 42.8721 12.031 42.9688C12.5681 43.1837 12.5681 43.1837 12.8904 43.3985C13.1031 43.2567 13.3158 43.1149 13.5349 42.9688C14.0057 42.8677 14.0057 42.8677 14.5613 42.801C14.7707 42.7755 14.9802 42.7499 15.196 42.7236C15.5369 42.6855 15.5369 42.6855 15.8848 42.6466C16.1207 42.6193 16.3566 42.5921 16.5996 42.5641C18.4219 42.3614 20.2464 42.2034 22.075 42.0692C22.3173 42.0512 22.5596 42.0332 22.8092 42.0146C28.4936 41.6263 28.4936 41.6263 30.3146 43.1258ZM10.742 44.4727C9.95813 45.453 9.7802 46.0712 9.82147 47.3188C9.82516 47.4677 9.82885 47.6165 9.83266 47.7699C9.84108 48.0862 9.85152 48.4024 9.86384 48.7186C9.88217 49.1889 9.89518 49.659 9.90653 50.1295C9.93152 51.1121 9.96539 52.0943 10.0009 53.0766C10.0072 53.2525 10.0135 53.4284 10.02 53.6096C10.0534 54.5356 10.0876 55.4616 10.1225 56.3875C10.1511 57.1501 10.1779 57.9126 10.2031 58.6753C10.2338 59.6043 10.2675 60.5332 10.3034 61.4621C10.3165 61.8139 10.3286 62.1658 10.3396 62.5177C10.3551 63.0072 10.3745 63.4963 10.3948 63.9855C10.4048 64.2633 10.4148 64.5411 10.4251 64.8273C10.5319 65.5602 10.6473 65.8736 11.1716 66.3868C11.9162 66.635 12.5031 66.6335 13.2889 66.6397C13.5122 66.6418 13.5122 66.6418 13.7401 66.644C14.2326 66.6482 14.7251 66.6507 15.2176 66.6528C15.386 66.6537 15.5545 66.6546 15.7281 66.6555C16.6197 66.66 17.5113 66.663 18.4029 66.6651C19.3226 66.6674 20.2422 66.6748 21.1618 66.6834C21.8701 66.689 22.5784 66.6908 23.2868 66.6915C23.6257 66.6926 23.9647 66.6951 24.3036 66.6991C24.7788 66.7043 25.2536 66.7041 25.7288 66.7026C26.1338 66.7045 26.1338 66.7045 26.547 66.7064C27.4221 66.5822 27.8893 66.2906 28.574 65.7423C28.9253 65.0166 28.7991 64.1719 28.7796 63.3798C28.7748 63.084 28.7702 62.7882 28.7657 62.4923C28.7578 62.0288 28.7485 61.5655 28.7358 61.1021C28.7241 60.6528 28.7178 60.2037 28.7125 59.7543C28.7037 59.3524 28.7037 59.3524 28.6947 58.9424C28.8073 58.0813 29.0277 57.7466 29.6482 57.1485C30.1008 56.9082 30.1008 56.9082 30.5781 56.7616C30.7498 56.7069 30.9215 56.6522 31.0984 56.5959C31.3643 56.5172 31.3643 56.5172 31.6355 56.4368C31.8161 56.3802 31.9966 56.3236 32.1827 56.2652C32.6259 56.1267 33.0705 55.9926 33.5154 55.8595C33.5154 55.7177 33.5154 55.5759 33.5154 55.4298C33.2592 55.3442 33.003 55.2586 32.7391 55.1704C32.4025 55.0556 32.066 54.9406 31.7295 54.8255C31.5607 54.7694 31.3919 54.7134 31.218 54.6556C31.0553 54.5995 30.8926 54.5434 30.7249 54.4856C30.5753 54.435 30.4257 54.3844 30.2715 54.3322C29.6662 54.0484 29.314 53.7432 29.0707 53.1138C28.9819 52.4816 28.9919 51.8736 29.0053 51.2353C29.0107 50.8265 29.0107 50.8265 29.0163 50.4095C29.0251 49.837 29.0369 49.2648 29.0498 48.6924C29.0529 48.4193 29.0559 48.1463 29.0591 47.8649C29.0638 47.6161 29.0685 47.3673 29.0734 47.111C28.9937 46.306 28.7833 45.8027 28.3591 45.1173C27.6104 44.6181 26.9877 44.5467 26.1175 44.4526C25.8766 44.4255 25.8766 44.4255 25.6308 44.3979C23.4923 44.1761 21.3467 44.1701 19.1989 44.1437C18.6511 44.1363 18.1034 44.1271 17.5557 44.1169C17.3791 44.114 17.2026 44.1111 17.0207 44.108C15.5736 44.0724 14.1808 43.8816 12.7583 43.6197C11.8089 43.6114 11.4549 43.8575 10.742 44.4727Z" fill="#103255"/>
<path d="M32.2267 14.7705C32.8713 14.8242 32.8713 14.8242 33.301 15.2539C33.301 15.5375 33.301 15.8211 33.301 16.1133C33.4206 16.2285 33.5402 16.3437 33.6635 16.4624C34.2968 17.1129 34.5951 17.8179 34.9668 18.6394C35.2208 19.183 35.2208 19.183 35.8791 19.5508C36.3573 19.5995 36.3573 19.5995 36.8836 19.5701C37.0793 19.5658 37.275 19.5615 37.4766 19.5571C37.8861 19.544 38.2957 19.53 38.7052 19.5151C39.8689 19.4913 40.6748 19.5306 41.6799 20.1953C42.1517 20.7492 42.113 21.1229 42.1498 21.8604C41.9871 22.9355 41.2864 23.4479 40.4814 24.1137C39.9611 24.4922 39.9611 24.4922 39.3871 24.8237C38.832 25.1234 38.832 25.1234 38.4572 25.7812C38.4754 26.1973 38.4754 26.1973 38.6049 26.6406C38.6467 26.8109 38.6886 26.9813 38.7316 27.1568C38.8389 27.5422 38.9541 27.9254 39.0757 28.3065C39.4903 29.6431 39.6748 30.4904 39.1017 31.7969C38.3967 32.4851 38.0037 32.6465 37.0204 32.6965C35.7687 32.4694 34.7528 31.6525 33.7306 30.9375C33.1311 30.4475 33.1311 30.4475 32.4802 30.528C31.6516 30.7641 31.1932 31.1376 30.5348 31.6895C29.4693 32.5176 28.8573 32.9647 27.5002 32.8711C26.6096 32.5518 26.013 32.2129 25.5666 31.3672C25.3156 30.214 25.4038 29.4485 25.768 28.3325C26.2299 27.0752 26.2299 27.0752 26.2111 25.7812C25.7264 25.3773 25.2781 25.0514 24.7475 24.7205C23.69 24.0554 22.9931 23.5754 22.5588 22.3437C22.4718 21.3811 22.6571 20.6058 23.1496 19.7791C24.3821 18.6492 25.77 18.8797 27.334 18.9419C27.5113 18.9459 27.6885 18.9499 27.8711 18.9541C28.1123 18.9633 28.1123 18.9633 28.3584 18.9726C28.9191 18.8863 29.083 18.6991 29.4338 18.2617C29.7354 17.7593 30.0251 17.2577 30.3066 16.7444C31.3542 14.8432 31.3542 14.8432 32.2267 14.7705ZM32.4416 17.1875C32.3895 17.3742 32.3375 17.5608 32.2838 17.7531C31.4185 20.7285 31.4185 20.7285 30.2394 21.6455C29.4803 21.9906 28.7443 22.1643 27.9299 22.3437C28.0154 22.4349 28.101 22.526 28.1892 22.6199C29.6485 24.2354 29.9683 25.5681 29.8635 27.7148C30.1027 27.6085 30.342 27.5021 30.5886 27.3926C32.3138 26.7525 33.802 26.9827 35.4494 27.7148C35.4394 27.5642 35.4295 27.4135 35.4192 27.2583C35.3656 25.8508 35.4409 24.7782 36.3088 23.6328C36.694 23.255 37.0868 22.9156 37.5139 22.5863C37.6125 22.5063 37.7111 22.4262 37.8127 22.3437C37.8127 22.2729 37.8127 22.202 37.8127 22.1289C37.6235 22.0923 37.4344 22.0558 37.2395 22.0181C36.99 21.9661 36.7404 21.914 36.4833 21.8604C36.2366 21.8105 35.9898 21.7607 35.7356 21.7093C34.8377 21.4272 34.1942 21.0554 33.7147 20.2255C33.6712 20.0915 33.6277 19.9574 33.5829 19.8193C33.5342 19.672 33.4855 19.5247 33.4352 19.3729C33.2267 18.6482 33.0418 17.9222 32.8713 17.1875C32.7295 17.1875 32.5877 17.1875 32.4416 17.1875Z" fill="#103255"/>
<path d="M96.0354 49.6288C97.3024 50.908 97.8156 51.9127 97.8347 53.7512C97.8079 56.7416 96.2426 58.8156 94.2369 60.9006C93.0297 62.0241 91.9023 62.7901 90.2749 63.1103C88.423 63.005 86.7209 61.0627 85.5089 59.8029C83.8909 57.9011 82.8216 55.5956 82.9299 53.0663C83.2341 51.7189 83.9665 50.7804 85.0322 49.9251C86.012 49.3151 86.9752 49.1525 88.113 49.2663C88.3168 49.315 88.5207 49.3638 88.7307 49.414C89.6623 49.6342 90.1956 49.7174 91.0134 49.226C91.2527 49.0753 91.4919 48.9247 91.7385 48.7695C93.259 48.2493 94.8315 48.6122 96.0354 49.6288ZM86.3447 51.1084C85.6807 51.8491 85.4781 52.5065 85.508 53.496C85.988 55.8858 87.6069 57.9229 89.59 59.2968C89.9963 59.5237 89.9963 59.5237 90.4494 59.5117C92.1547 58.4262 93.6572 56.6166 94.2713 54.6802C94.4202 53.8116 94.3421 53.3444 94.0078 52.5158C93.4815 51.9119 93.4815 51.9119 92.6247 51.8847C92.0414 51.9269 91.6173 52.0325 91.0537 52.2204C90.3502 52.4549 90.072 52.4453 89.3752 52.207C88.9489 51.716 88.9489 51.716 88.5695 51.1193C88.34 50.7636 88.1082 50.4094 87.8713 50.0585C87.3069 50.0585 86.7377 50.7551 86.3447 51.1084Z" fill="#103255"/>
<path d="M71.9829 15.6072C73.0744 15.7053 73.7018 16.1007 74.6047 16.6906C74.7712 16.7961 74.9377 16.9017 75.1093 17.0104C75.6426 17.3512 76.1715 17.6979 76.6994 18.0468C76.8739 18.1617 77.0484 18.2765 77.2282 18.3948C79.0282 19.5863 80.796 20.8165 82.5002 22.1423C82.6226 22.237 82.7449 22.3317 82.871 22.4293C83.4892 22.9209 83.9955 23.4035 84.4338 24.0625C83.4375 25.1041 82.4017 26.0281 81.2514 26.8957C81.0948 27.0146 80.9381 27.1334 80.7767 27.2558C79.0387 28.5598 77.2409 29.768 75.4104 30.9375C75.2786 31.0224 75.1468 31.1074 75.011 31.1949C72.7536 32.6378 72.7536 32.6378 71.5432 32.4414C70.8573 31.8935 70.5097 31.5709 70.3355 30.6987C70.3359 30.4486 70.3363 30.1985 70.3368 29.9409C70.335 29.7326 70.335 29.7326 70.3332 29.5202C70.3306 29.0637 70.3358 28.6077 70.3414 28.1512C70.3418 27.8326 70.3418 27.514 70.3414 27.1953C70.3417 26.5285 70.3457 25.8619 70.3525 25.1951C70.361 24.3419 70.362 23.4889 70.3604 22.6356C70.3597 21.978 70.3623 21.3204 70.366 20.6627C70.3675 20.3482 70.3682 20.0337 70.368 19.7192C70.3684 19.279 70.373 18.839 70.3788 18.3989C70.3806 18.1488 70.3824 17.8987 70.3842 17.641C70.5196 16.5731 70.8788 15.736 71.9829 15.6072ZM73.6916 19.7656C73.6853 20.6473 73.6815 21.5291 73.6782 22.4108C73.6764 22.6575 73.6746 22.9041 73.6727 23.1582C73.6684 24.6901 73.7352 26.1923 73.9065 27.7148C74.1053 27.629 74.1053 27.629 74.3082 27.5414C77.356 26.2326 80.4102 25.0579 83.5744 24.0625C82.958 23.6515 82.4044 23.4012 81.7189 23.1267C81.4765 23.029 81.2341 22.9314 80.9844 22.8307C80.7269 22.7276 80.4694 22.6245 80.2041 22.5183C78.0168 21.6357 75.8435 20.7311 73.6916 19.7656Z" fill="#103255"/>
<path d="M20.1819 54.5459C20.7719 54.8644 20.8622 55.1501 21.0681 55.7788C21.1433 56.0903 21.2131 56.4033 21.2696 56.7187C20.302 57.4444 19.6457 57.456 18.4766 57.3632C17.9395 57.1484 17.9395 57.1484 17.6172 56.9336C17.5904 55.5102 17.5904 55.5102 17.8321 54.7851C18.6423 54.2348 19.2653 54.3243 20.1819 54.5459Z" fill="#103255"/>
<path d="M25.5666 54.5702C26.1037 55.161 26.1037 55.161 26.426 55.8593C26.3646 56.78 26.3646 56.78 25.9963 57.1483C25.5715 57.1696 25.146 57.1762 24.7207 57.1752C24.3721 57.176 24.3721 57.176 24.0166 57.1769C23.4182 57.1483 23.4182 57.1483 22.9885 56.9335C22.6686 55.6292 22.6686 55.6292 23.0422 54.9193C23.8312 54.1867 24.5818 54.311 25.5666 54.5702Z" fill="#103255"/>
<path d="M15.0391 54.5703C15.6081 55.2122 15.8775 55.6184 15.9522 56.477C15.9345 56.6277 15.9168 56.7783 15.8985 56.9335C15.3118 57.2269 14.8338 57.1768 14.1798 57.1752C13.8341 57.1761 13.8341 57.1761 13.4815 57.1769C12.8907 57.1484 12.8907 57.1484 12.461 56.9335C12.2339 56.1649 12.1857 55.7806 12.5147 55.0402C13.2277 54.149 14.0116 54.2999 15.0391 54.5703Z" fill="#103255"/>
</svg>
