<svg width="113" height="113" viewBox="0 0 113 113" fill="none" xmlns="http://www.w3.org/2000/svg">
<path d="M8.80951 16.0819C9.12023 16.0889 9.12023 16.0889 9.43722 16.096C9.66079 16.1034 9.88436 16.1108 10.1147 16.1185C10.3532 16.1245 10.5917 16.1306 10.8374 16.1368C11.6259 16.1574 12.4143 16.1813 13.2027 16.2053C13.7543 16.2204 14.306 16.2354 14.8576 16.2501C16.0157 16.2816 17.1738 16.3145 18.3318 16.3488C19.8043 16.3924 21.2769 16.4334 22.7496 16.4735C24.1653 16.5121 25.581 16.5517 26.9967 16.5915C27.2615 16.599 27.5263 16.6064 27.7992 16.614C36.903 16.8716 36.903 16.8716 39.6509 17.2743C39.9418 17.3148 39.9418 17.3148 40.2386 17.3561C40.6406 17.4125 41.0425 17.4698 41.4442 17.5281C42.0436 17.6148 42.6434 17.698 43.2433 17.7808C45.232 18.06 47.2093 18.3793 49.1799 18.7667C49.4455 18.8183 49.4455 18.8183 49.7165 18.8709C54.7541 19.8947 58.9292 22.1962 61.8109 26.4569C65.3022 31.7614 66.0302 37.9297 66.0197 44.1622C66.0199 44.4807 66.0201 44.7993 66.0204 45.1178C66.0207 45.7828 66.0202 46.4478 66.0192 47.1127C66.0179 47.9527 66.0187 48.7927 66.02 49.6327C66.0208 50.2904 66.0205 50.9481 66.02 51.6058C66.0198 51.9148 66.02 52.2238 66.0205 52.5329C66.0236 54.8928 65.9191 57.2353 65.7697 59.5899C65.965 59.5889 66.1602 59.5879 66.3614 59.5869C68.2427 59.5779 70.124 59.5712 72.0053 59.567C72.9715 59.5647 73.9376 59.5617 74.9038 59.5566C78.9986 59.5355 83.0842 59.5621 87.1745 59.7709C87.3408 59.7786 87.5071 59.7863 87.6785 59.7942C90.0661 59.908 92.4361 60.0554 94.2404 61.7969C97.3809 65.5517 97.7539 69.5213 97.8924 74.2158C97.8969 74.3666 97.9015 74.5175 97.9062 74.673C98.0126 78.2441 98.0412 81.8151 98.0454 85.3876C98.0466 86.2813 98.052 87.1749 98.0582 88.0686C98.0623 88.7724 98.0635 89.4762 98.0638 90.18C98.0644 90.5097 98.0662 90.8394 98.0691 91.169C98.0941 94.1642 97.8894 96.95 95.8716 99.2862C91.5075 103.641 81.7022 102.452 76.0876 102.448C75.6896 102.448 75.6896 102.448 75.2836 102.448C71.4055 102.445 67.5341 102.373 63.6592 102.213C63.4437 102.204 63.2282 102.196 63.0062 102.187C61.7799 102.136 60.5546 102.076 59.3295 102.002C58.8983 101.976 58.4671 101.952 58.0358 101.928C57.3559 101.89 56.6769 101.845 55.9976 101.798C55.793 101.787 55.5885 101.776 55.3778 101.765C53.7385 101.639 52.1505 101.193 50.9936 99.9619C49.592 98.1646 49.4157 96.4921 49.3135 94.2678C49.304 94.0738 49.2945 93.8798 49.2847 93.6799C49.2614 93.2046 49.2391 92.7293 49.217 92.2539C43.1268 91.8525 37.0412 91.7573 30.94 91.7573C30.7524 91.7573 30.5648 91.7573 30.3715 91.7573C24.5409 91.7595 18.7231 91.8685 12.8979 92.1278C12.0806 92.1641 11.2631 92.1985 10.4457 92.2319C9.98327 92.2517 9.52103 92.275 9.05882 92.2988C8.82201 92.3067 8.5852 92.3147 8.34121 92.3229C8.15207 92.3311 7.96293 92.3394 7.76806 92.3479C7.0758 92.2137 6.84058 91.9137 6.40058 91.3711C6.29093 90.7817 6.29093 90.7817 6.29195 90.094C6.29019 89.8316 6.28843 89.5692 6.28662 89.2989C6.28919 89.0104 6.29176 88.7218 6.29441 88.4245C6.29403 88.1152 6.29326 87.8058 6.29213 87.4964C6.29015 86.6453 6.29369 85.7943 6.29811 84.9433C6.30192 84.0259 6.30063 83.1085 6.29996 82.191C6.2995 80.6013 6.30227 79.0115 6.30724 77.4217C6.31441 75.1231 6.31671 72.8246 6.31782 70.526C6.31975 66.7969 6.32563 63.0678 6.33398 59.3387C6.34208 55.7158 6.34833 52.093 6.35208 48.4701C6.35231 48.2469 6.35255 48.0236 6.35278 47.7936C6.35394 46.6736 6.35505 45.5537 6.35615 44.4337C6.3653 35.14 6.38085 25.8464 6.40058 16.5527C7.24222 16.2608 7.91653 16.0569 8.80951 16.0819ZM8.82831 18.7598C8.83103 18.8863 8.83374 19.0129 8.83654 19.1433C9.01217 27.4029 9.08058 35.6579 9.07186 43.9193C9.07023 45.5089 9.06995 47.0985 9.0697 48.688C9.06923 51.5196 9.06778 54.3511 9.06566 57.1826C9.06362 59.9227 9.06206 62.6627 9.06114 65.4028C9.06108 65.5735 9.06102 65.7442 9.06096 65.9201C9.06067 66.7772 9.06039 67.6343 9.06012 68.4914C9.05786 75.5294 9.05397 82.5674 9.04901 89.6055C9.53724 89.6068 10.0255 89.6077 10.5137 89.6084C10.7856 89.609 11.0575 89.6095 11.3376 89.6101C12.2535 89.6048 13.1656 89.5698 14.0804 89.5284C18.9938 89.3099 23.913 89.3513 28.8301 89.356C30.1607 89.3573 31.4914 89.3565 32.8221 89.3552C38.2906 89.3508 43.753 89.3585 49.217 89.6055C49.216 89.3995 49.215 89.1935 49.214 88.9812C49.2049 87.0054 49.1984 85.0296 49.1941 83.0537C49.1918 82.0388 49.1888 81.0239 49.1837 80.0089C49.1643 76.0314 49.1575 72.0594 49.398 68.0878C49.4134 67.8156 49.4287 67.5435 49.4446 67.2631C49.5867 65.2235 49.8005 63.2193 51.2602 61.6796C52.6567 60.5023 54.1871 60.252 55.9657 60.1494C56.2399 60.1322 56.5142 60.1149 56.7968 60.0972C57.3749 60.0622 57.9531 60.0283 58.5313 59.9955C58.8045 59.978 59.0776 59.9605 59.359 59.9425C59.7351 59.9203 59.7351 59.9203 60.1187 59.8977C60.4033 59.8546 60.4033 59.8546 60.6935 59.8106C61.0138 59.1701 61.0195 58.504 61.0806 57.8001C61.1023 57.5559 61.1023 57.5559 61.1244 57.3068C61.7617 49.9117 62.2087 42.217 60.9142 34.8711C60.874 34.6398 60.8338 34.4086 60.7924 34.1703C59.9696 29.1784 59.9696 29.1784 57.383 24.9395C56.7595 24.6277 56.3109 24.6679 55.6174 24.7188C53.614 25.4993 51.9454 26.8235 50.2981 28.1716C49.1261 29.124 49.1261 29.124 48.3893 29.1742C46.501 28.4842 45.6438 26.081 44.737 24.4118C43.335 21.8254 43.335 21.8254 41.051 20.084C38.909 19.6273 36.7246 19.5196 34.5437 19.4098C34.3733 19.4008 34.203 19.3918 34.0275 19.3825C30.1973 19.1799 26.3652 19.0636 22.5311 18.9663C21.8376 18.9483 21.144 18.9289 20.4505 18.9096C19.7608 18.8904 19.0711 18.8721 18.3813 18.8539C18.0629 18.8455 17.7445 18.8369 17.4261 18.828C15.4019 18.7726 13.3795 18.7553 11.3546 18.7577C11.1108 18.7578 10.867 18.758 10.6158 18.7581C10.0199 18.7585 9.42413 18.7591 8.82831 18.7598ZM52.9689 63.5625C51.9704 64.7343 51.9108 65.8091 51.824 67.3145C51.8088 67.5204 51.7936 67.7264 51.7779 67.9386C51.7255 68.6867 51.6843 69.4348 51.6447 70.1836C51.6354 70.3541 51.626 70.5246 51.6164 70.7002C51.4431 73.9083 51.3798 77.1097 51.3826 80.3222C51.3826 80.5583 51.3826 80.7945 51.3826 81.0378C51.3852 84.3299 51.4487 87.6142 51.6171 90.9021C51.6258 91.0776 51.6344 91.253 51.6433 91.4338C51.6853 94.844 51.6853 94.844 52.6931 98.006C53.8667 99.0166 54.9808 99.2106 56.4691 99.2975C56.6574 99.3106 56.8456 99.3238 57.0395 99.3374C57.6504 99.3793 58.2615 99.417 58.8727 99.4544C59.298 99.4821 59.7233 99.5099 60.1486 99.5378C61.3599 99.6161 62.5715 99.688 63.7834 99.7578C64.2062 99.7826 64.2062 99.7826 64.6375 99.8079C71.7087 100.203 78.7952 100.066 85.8537 99.5371C86.0989 99.5206 86.3441 99.5041 86.5967 99.4871C87.2415 99.4437 87.8856 99.3951 88.5297 99.344C88.7961 99.3261 88.7961 99.3261 89.0679 99.3079C90.2505 99.2012 91.2998 98.9508 92.2541 98.2129C93.2631 96.9811 93.3156 95.4654 93.399 93.9368C93.415 93.6827 93.431 93.4286 93.4475 93.1667C93.8291 86.5625 93.8745 79.9546 93.5994 73.3461C93.5778 72.8199 93.5577 72.2937 93.5378 71.7675C93.5042 70.898 93.4654 70.0288 93.4227 69.1597C93.4071 68.8358 93.3928 68.5118 93.3797 68.1877C93.3071 66.4464 93.2402 65.0319 92.2541 63.5625C90.5061 62.0141 87.4057 62.3169 85.1778 62.2107C84.9901 62.2015 84.8024 62.1923 84.609 62.1828C67.9602 60.3975 67.9602 60.3975 52.9689 63.5625Z" fill="#103255"/>
<path d="M71.0766 10.5617C71.2579 10.5603 71.4392 10.5589 71.626 10.5575C71.9231 10.5571 71.9231 10.5571 72.2262 10.5567C72.4351 10.5558 72.644 10.5548 72.8592 10.5539C73.5537 10.5517 74.2482 10.5517 74.9427 10.5524C75.1832 10.5524 75.4236 10.5525 75.6713 10.5526C80.8872 10.5585 86.0893 10.7394 91.2981 10.9988C92.0699 11.037 92.8417 11.0738 93.6136 11.1104C94.9453 11.1741 96.2768 11.2417 97.6083 11.3121C98.1178 11.3388 98.6274 11.3646 99.137 11.3895C99.8443 11.4245 100.551 11.4634 101.258 11.5033C101.467 11.513 101.676 11.5226 101.892 11.5326C103.258 11.6154 104.285 11.8267 105.303 12.8146C106.705 15.0111 106.741 17.1155 106.71 19.6426C106.709 19.8387 106.708 20.0348 106.707 20.2368C106.679 24.3188 106.479 28.3964 106.254 32.4716C106.227 32.9672 106.202 33.4629 106.178 33.9587C106.139 34.7468 106.094 35.5344 106.044 36.322C106.019 36.7555 105.998 37.1893 105.977 37.6231C105.832 39.7704 105.832 39.7704 105.202 40.4496C104.163 41.1218 103.242 41.0909 102.026 41.1034C101.852 41.1055 101.678 41.1076 101.498 41.1098C100.914 41.1153 100.329 41.118 99.7442 41.1198C99.5425 41.1206 99.3408 41.1214 99.1329 41.1222C95.1374 41.1284 91.1618 40.9005 87.178 40.6232C87.0317 40.6131 86.8854 40.603 86.7346 40.5926C85.7557 40.525 84.777 40.4547 83.7984 40.3827C83.4215 40.3554 83.4215 40.3554 83.0369 40.3276C82.8065 40.3099 82.5762 40.2923 82.3389 40.2741C82.1376 40.2589 81.9364 40.2437 81.7291 40.228C81.219 40.168 81.219 40.168 80.5569 39.9473C80.4749 40.2113 80.393 40.4753 80.3086 40.7473C80.1722 41.1433 80.034 41.5386 79.8948 41.9336C79.8086 42.1914 79.7223 42.4491 79.6335 42.7147C78.7495 45.0938 78.7495 45.0938 77.4808 45.7821C76.5391 46.1971 75.8094 46.1816 74.8186 45.9063C74.3436 45.3657 74.3436 45.3657 73.9496 44.651C73.8401 44.4621 73.8401 44.4621 73.7283 44.2693C73.3332 43.5815 72.9737 42.8801 72.6262 42.1672C71.9538 40.6683 71.9538 40.6683 70.7089 39.7197C70.1225 39.6571 70.1225 39.6571 69.5657 39.7093C69.0803 39.7266 69.0803 39.7266 68.4182 39.2852C68.4182 39.1395 68.4182 38.9938 68.4182 38.8438C68.2759 38.7906 68.1337 38.7374 67.9871 38.6826C67.5354 38.4024 67.5354 38.4024 67.4009 37.9911C67.3239 36.6501 67.3045 35.3121 67.3052 33.9693C67.3053 33.7702 67.3054 33.5711 67.3055 33.366C67.3108 30.8163 67.3531 28.2671 67.3968 25.7178C67.4112 24.874 67.4244 24.0302 67.4375 23.1863C67.4638 21.5635 67.4978 19.941 67.5354 18.3184C67.5408 18.0608 67.5462 17.8033 67.5518 17.538C67.5684 16.8062 67.5895 16.0748 67.6121 15.3432C67.6166 15.1269 67.6211 14.9106 67.6257 14.6878C67.667 13.5343 67.7719 12.6923 68.4182 11.6973C69.2676 10.9116 69.9225 10.5679 71.0766 10.5617ZM70.4045 13.2422C70.1911 15.0171 70.1087 16.78 70.0597 18.5667C70.055 18.7279 70.0503 18.8891 70.0455 19.0552C69.9109 23.8109 69.943 28.5691 69.9631 33.3262C70.5506 32.7416 71.137 32.1581 71.6994 31.5494C71.8084 31.4314 71.9174 31.3135 72.0296 31.192C72.1948 31.0126 72.1948 31.0126 72.3633 30.8295C72.4717 30.7124 72.5801 30.5953 72.6917 30.4747C73.2813 29.8354 73.8596 29.1885 74.428 28.5302C75.4385 27.3731 76.494 26.2625 77.5636 25.1602C77.6635 25.0533 77.7633 24.9464 77.8662 24.8363C79.5456 23.042 79.5456 23.042 80.4337 22.8161C80.9233 22.8152 80.9233 22.8152 81.6604 22.9531C81.7198 23.0819 81.7793 23.2106 81.8405 23.3432C82.1033 23.8387 82.392 24.2277 82.751 24.6576C82.8789 24.8117 83.0068 24.9659 83.1386 25.1248C83.2744 25.2867 83.4102 25.4486 83.5502 25.6154C83.8301 25.9516 84.11 26.2878 84.3899 26.6241C84.595 26.87 84.595 26.87 84.8043 27.1209C85.1443 27.5309 85.4805 27.9434 85.8141 28.3586C86.0727 28.6804 86.0727 28.6804 86.3365 29.0087C86.4853 29.195 86.6341 29.3814 86.7874 29.5734C87.1839 30.0605 87.1839 30.0605 87.8401 30.457C89.7284 29.0419 91.5891 27.6304 93.3266 26.0318C95.197 24.3287 95.197 24.3287 96.1578 24.1946C97.7247 25.1262 98.6465 27.8222 99.5235 29.4225C99.6774 29.7023 99.8313 29.982 99.9852 30.2618C100.87 31.8698 101.75 33.4801 102.627 35.0918C102.7 35.0918 102.773 35.0918 102.848 35.0918C102.906 33.006 102.964 30.9203 103.021 28.8345C103.047 27.8655 103.074 26.8965 103.101 25.9275C103.127 24.9888 103.153 24.05 103.178 23.1112C103.188 22.7568 103.197 22.4024 103.208 22.0479C103.28 19.4799 103.301 16.9147 103.289 14.3457C102.353 14.1753 101.436 14.0755 100.486 14.0189C100.272 14.006 100.272 14.006 100.053 13.9927C99.5789 13.9644 99.1046 13.9373 98.6304 13.9103C98.4644 13.9008 98.2983 13.8912 98.1273 13.8814C96.8502 13.8081 95.573 13.7385 94.2956 13.6698C94.1081 13.6596 93.9206 13.6495 93.7273 13.639C85.9484 13.2182 78.1928 13.1367 70.4045 13.2422ZM79.4845 26.8389C79.3142 27.0117 79.3142 27.0117 79.1404 27.1879C79.0222 27.3062 78.904 27.4244 78.7823 27.5463C78.5311 27.7981 78.2805 28.0505 78.0304 28.3034C77.6529 28.6848 77.2737 29.0646 76.8941 29.4441C75.6411 30.7011 74.4201 31.9699 73.2737 33.3262C73.0518 33.5802 72.8297 33.8339 72.6072 34.0874C72.4016 34.3256 72.1962 34.5638 71.9908 34.8021C71.8857 34.9218 71.7806 35.0414 71.6723 35.1647C71.0912 35.8421 70.6781 36.4464 70.4045 37.2988C70.5459 37.2892 70.6873 37.2795 70.833 37.2695C71.7434 37.2722 72.3753 37.2956 73.0555 37.9403C73.4633 38.5194 73.8154 39.1058 74.1565 39.7266C74.3489 40.0663 74.3489 40.0663 74.5453 40.4128C74.8656 40.9893 75.1769 41.569 75.4807 42.1543C76.4493 41.2765 77.1675 40.2704 77.9162 39.2015C78.727 38.1199 78.727 38.1199 79.2326 37.7403C79.8411 37.6591 80.3501 37.6367 80.9569 37.6575C81.1322 37.6603 81.3076 37.6632 81.4882 37.6661C84.417 37.7357 87.3464 37.9708 90.2678 38.1817C89.4247 36.8728 88.5308 35.641 87.5366 34.4435C87.2831 34.1349 87.0296 33.8263 86.7762 33.5176C86.6552 33.3707 86.5342 33.2238 86.4096 33.0725C85.9803 32.5494 85.5577 32.0212 85.1365 31.4916C84.3684 30.5279 83.5869 29.5756 82.8036 28.6242C82.2131 27.894 81.6477 27.1466 81.0888 26.3921C80.9861 26.2769 80.8834 26.1617 80.7776 26.043C80.1397 26.043 79.9165 26.4098 79.4845 26.8389ZM93.9508 28.788C92.5032 30.06 90.9945 31.1639 89.385 32.2227C89.5158 32.9055 89.7159 33.314 90.16 33.846C90.2719 33.9826 90.3838 34.1191 90.499 34.2598C90.6782 34.4736 90.6782 34.4736 90.8609 34.6918C91.6486 35.6325 92.3165 36.4887 92.8473 37.6023C93.1202 38.0835 93.1202 38.0835 93.5783 38.4024C94.6633 38.6359 95.7015 38.655 96.8076 38.6324C97.3371 38.6229 97.8647 38.6284 98.3942 38.6377C100.007 38.7524 100.007 38.7524 101.524 38.4024C101.14 37.363 100.633 36.4004 100.117 35.4229C100.022 35.2422 99.9264 35.0615 99.8283 34.8754C98.7615 32.8665 97.6273 30.8965 96.485 28.9299C96.237 28.4888 96.0075 28.0424 95.7854 27.5879C95.0126 27.5879 94.5049 28.2921 93.9508 28.788Z" fill="#103255"/>
<path d="M69.0517 71.3483C70.0978 71.7034 70.9314 72.4814 71.7838 73.1631C72.0936 73.4053 72.0936 73.4053 72.4097 73.6525C72.9946 74.1114 73.5761 74.5743 74.1564 75.039C74.3567 75.1985 74.3567 75.1985 74.5611 75.3612C75.0514 75.7521 75.5363 76.1481 76.016 76.5521C76.46 76.922 76.9084 77.2773 77.366 77.6297C77.6342 77.842 77.9023 78.0544 78.1704 78.2668C78.298 78.3621 78.4256 78.4573 78.5571 78.5555C79.233 79.1008 79.4423 79.383 79.5774 80.2523C79.4052 81.2865 79.0534 81.519 78.2575 82.1421C75.8745 83.8184 71.717 86.7224 68.6388 86.2949C68.2828 86.049 68.2828 86.049 67.9767 85.6328C67.8883 84.9899 67.8883 84.9899 67.8793 84.2017C67.8737 83.9109 67.8681 83.6201 67.8624 83.3205C67.86 83.0895 67.86 83.0895 67.8576 82.8539C67.8491 82.0526 67.8302 81.2516 67.8112 80.4506C67.8075 80.2904 67.8039 80.1303 67.8001 79.9653C67.7583 78.329 67.6236 76.7051 67.4602 75.0768C67.1744 72.213 67.1744 72.213 67.5491 71.5078C68.08 71.2338 68.4689 71.2532 69.0517 71.3483ZM70.1837 75.4804C70.2565 78.0296 70.3294 80.5787 70.4044 83.2051C71.874 82.7642 72.9973 82.4172 74.2667 81.6601C74.4004 81.5845 74.5341 81.5088 74.6719 81.4308C75.3433 81.0399 75.7044 80.7726 76.1427 80.1152C74.8414 78.8765 73.4826 77.7571 72.0459 76.6805C71.8881 76.5621 71.7304 76.4437 71.5678 76.3217C70.9336 75.7477 70.9336 75.7477 70.1837 75.4804Z" fill="#103255"/>
<path d="M61.1347 88.7227C61.5623 89.0951 61.5623 89.0951 61.7968 89.6055C61.7011 90.1891 61.7011 90.1891 61.5761 90.709C61.7435 90.7122 61.9108 90.7154 62.0833 90.7188C67.0601 90.8206 72.0355 90.9872 77.0099 91.1707C77.9626 91.2059 78.9153 91.2399 79.8681 91.2714C80.7816 91.3017 81.6949 91.335 82.6082 91.3707C82.9506 91.3835 83.293 91.3953 83.6355 91.4059C84.1085 91.4208 84.5812 91.4396 85.054 91.4594C85.4549 91.4738 85.4549 91.4738 85.8639 91.4885C86.5155 91.5918 86.5155 91.5918 86.9328 91.8898C87.318 92.4627 87.2614 92.9081 87.1776 93.5781C86.9308 93.9488 86.9308 93.9488 86.5155 94.2403C85.8773 94.3006 85.8773 94.3006 85.0846 94.2688C84.9392 94.2639 84.7939 94.259 84.6441 94.2539C84.1582 94.2368 83.6726 94.2148 83.1869 94.1928C82.8413 94.1797 82.4958 94.1669 82.1502 94.1544C81.4127 94.1271 80.6753 94.0977 79.938 94.0668C78.7993 94.0193 77.6604 93.9774 76.5215 93.9367C74.4069 93.8605 72.2925 93.7796 70.1781 93.6975C69.1774 93.6587 68.1767 93.6204 67.176 93.582C65.2358 93.5076 63.2956 93.4327 61.3554 93.3574C61.3281 93.5304 61.3008 93.7034 61.2726 93.8816C61.1347 94.461 61.1347 94.461 60.6933 94.9024C60.0449 94.9851 60.0449 94.9851 59.369 94.9024C58.9552 94.5023 58.9552 94.5023 58.7069 94.0195C58.7069 93.8011 58.7069 93.5826 58.7069 93.3574C58.5738 93.3518 58.4406 93.3461 58.3035 93.3402C57.4539 93.2799 56.8676 93.2312 56.1413 92.7643C55.8378 92.2539 55.8378 92.2539 55.8516 91.5642C56.0585 90.9297 56.0585 90.9297 56.7206 90.4883C57.3163 90.4935 57.3163 90.4935 57.9759 90.5711C58.3049 90.6078 58.3049 90.6078 58.6406 90.6452C58.8081 90.6663 58.9757 90.6873 59.1483 90.709C59.1347 90.5042 59.121 90.2993 59.107 90.0883C59.1483 89.3848 59.1483 89.3848 59.3966 88.971C60.0115 88.602 60.4328 88.6203 61.1347 88.7227Z" fill="#103255"/>
<path d="M14.8785 65.1924C15.1883 65.1881 15.4982 65.1901 15.8079 65.1972C15.972 65.1972 16.136 65.1972 16.305 65.1972C16.6516 65.1983 16.9981 65.2022 17.3446 65.2086C17.8752 65.2178 18.4051 65.2177 18.9357 65.2162C19.2725 65.2185 19.6093 65.2213 19.9461 65.2248C20.1841 65.2248 20.1841 65.2248 20.4268 65.2249C21.0544 65.2398 21.5221 65.2616 22.0619 65.5981C22.3674 66.1211 22.3627 66.4688 22.3437 67.0732C22.3376 67.2891 22.3315 67.505 22.3252 67.7275C22.3083 68.0693 22.3083 68.0693 22.2911 68.4181C22.2746 68.7565 22.2746 68.7565 22.2578 69.1017C22.2176 69.7943 22.1662 70.4853 22.1117 71.1769C22.0962 71.413 22.0807 71.6491 22.0648 71.8924C22.047 72.1183 22.0292 72.3442 22.0109 72.5769C21.9883 72.8814 21.9883 72.8814 21.9654 73.1921C21.8497 73.7149 21.8497 73.7149 21.6047 74.1121C20.9621 74.5203 20.4038 74.459 19.6495 74.4572C19.4255 74.4574 19.4255 74.4574 19.1969 74.4576C18.8816 74.4571 18.5662 74.4549 18.2508 74.4513C17.7684 74.446 17.2862 74.4467 16.8037 74.4482C14.4382 74.4387 14.4382 74.4387 13.6836 73.9356C13.3016 72.7895 13.4132 71.5611 13.4099 70.3611C13.4078 69.8834 13.4009 69.406 13.394 68.9284C13.3925 68.6233 13.3914 68.3181 13.3905 68.0129C13.3874 67.5979 13.3874 67.5979 13.3843 67.1746C13.5078 66.0085 13.66 65.412 14.8785 65.1924ZM16.1114 67.756C16.1114 69.0669 16.1114 70.3779 16.1114 71.7286C17.2039 71.7286 18.2963 71.7286 19.4219 71.7286C19.6203 70.3894 19.6614 69.1102 19.6426 67.756C18.4773 67.756 17.312 67.756 16.1114 67.756Z" fill="#103255"/>
<path d="M16.5519 30.9941C16.6999 30.9928 16.8479 30.9914 17.0004 30.99C17.3125 30.9884 17.6248 30.9891 17.9369 30.9919C18.4129 30.995 18.8878 30.9875 19.3637 30.9791C19.6679 30.9788 19.9721 30.9793 20.2763 30.9804C20.5515 30.9802 20.8267 30.98 21.1103 30.9799C22.0687 31.1604 22.3925 31.4297 22.9531 32.2227C23.0484 32.9823 23.0484 32.9823 22.9876 33.8443C22.9778 33.9974 22.968 34.1505 22.958 34.3083C22.9361 34.6307 22.9115 34.9529 22.8842 35.2748C22.8429 35.7666 22.8111 36.2584 22.7807 36.751C22.6162 39.0535 22.6162 39.0535 22.2708 39.8193C21.6357 40.3451 20.9949 40.2901 20.2073 40.2775C20.0476 40.2778 19.8879 40.2781 19.7234 40.2784C19.3863 40.2781 19.0493 40.2755 18.7122 40.2709C18.1953 40.2646 17.6788 40.2664 17.1618 40.2693C16.8344 40.2679 16.5069 40.2661 16.1794 40.2637C15.947 40.2646 15.947 40.2646 15.7099 40.2656C15.2746 40.2572 15.2746 40.2572 14.5664 40.168C14.0313 39.3653 14.0538 38.7596 14.0509 37.8308C14.0494 37.6672 14.0479 37.5037 14.0464 37.3352C14.0442 36.9896 14.0431 36.644 14.0432 36.2984C14.0423 35.7703 14.0342 35.2426 14.0259 34.7146C14.0246 34.3785 14.0237 34.0425 14.0233 33.7064C14.0201 33.5489 14.0169 33.3914 14.0137 33.2291C14.0202 32.5132 14.0829 32.0668 14.4763 31.4618C15.1942 30.999 15.7003 31.0016 16.5519 30.9941ZM16.7735 33.7676C16.7735 35.0786 16.7735 36.3895 16.7735 37.7402C17.8659 37.7402 18.9584 37.7402 20.084 37.7402C20.1932 35.7738 20.1932 35.7738 20.3047 33.7676C19.1394 33.7676 17.9741 33.7676 16.7735 33.7676Z" fill="#103255"/>
<path d="M15.783 47.3899C16.031 47.3912 16.031 47.3912 16.2839 47.3926C16.4537 47.3922 16.6235 47.3918 16.7984 47.3913C17.1576 47.391 17.5168 47.3918 17.876 47.3937C18.4267 47.396 18.9773 47.3937 19.5281 47.3909C19.8767 47.3912 20.2253 47.3917 20.5739 47.3926C20.7392 47.3917 20.9045 47.3908 21.0748 47.3899C22.2405 47.4005 22.2405 47.4005 22.7326 47.8926C22.9477 50.4075 22.9331 53.6909 22.0705 56.0586C21.0248 56.7558 19.9027 56.5737 18.6724 56.5697C18.2243 56.569 17.7765 56.5742 17.3284 56.5798C17.0455 56.5799 16.7625 56.5801 16.471 56.5802C16.2117 56.5809 15.9524 56.5815 15.6853 56.5822C14.9197 56.4893 14.6139 56.4383 14.1252 55.8379C14.0412 55.213 14.0117 54.675 14.0235 54.0508C14.0237 53.8764 14.0239 53.702 14.0241 53.5224C14.0254 53.1541 14.0289 52.7859 14.0343 52.4176C14.0424 51.8528 14.0434 51.2883 14.0433 50.7234C14.0455 50.3658 14.048 50.0081 14.051 49.6505C14.0515 49.4811 14.052 49.3116 14.0525 49.137C14.0786 47.6852 14.3242 47.4031 15.783 47.3899ZM16.5529 49.879C16.5529 51.1899 16.5529 52.5009 16.5529 53.8516C17.6454 53.8516 18.7379 53.8516 19.8635 53.8516C20.0259 52.8771 20.1087 52.0898 20.098 51.1204C20.0934 50.7107 20.0889 50.3011 20.0842 49.879C18.9189 49.879 17.7536 49.879 16.5529 49.879Z" fill="#103255"/>
<path d="M29.8937 35.2298C30.195 35.2275 30.195 35.2275 30.5023 35.2251C30.832 35.2276 30.832 35.2276 31.1684 35.2302C31.4003 35.2294 31.6321 35.2286 31.871 35.2278C32.6392 35.226 33.4073 35.229 34.1754 35.2322C34.7078 35.2323 35.2402 35.2322 35.7726 35.2319C36.889 35.2319 38.0053 35.2342 39.1217 35.2382C40.5554 35.2432 41.989 35.2433 43.4227 35.2418C44.5221 35.2411 45.6216 35.2425 46.721 35.2447C47.2498 35.2456 47.7786 35.2458 48.3074 35.2455C49.0451 35.2454 49.7827 35.2482 50.5204 35.2518C50.8508 35.2509 50.8508 35.2509 51.1879 35.2501C51.3881 35.2517 51.5883 35.2532 51.7946 35.2548C51.9691 35.2553 52.1436 35.2558 52.3234 35.2562C52.7481 35.3124 52.7481 35.3124 53.1895 35.7538C53.2447 36.5262 53.2447 36.5262 53.1895 37.2987C52.6525 37.8357 52.5202 37.7958 51.7847 37.7977C51.5823 37.7992 51.3799 37.8008 51.1714 37.8024C50.9488 37.8018 50.7261 37.8013 50.4967 37.8007C50.2627 37.8019 50.0287 37.803 49.7876 37.8042C49.0111 37.8072 48.2346 37.807 47.4581 37.8065C46.9205 37.8074 46.3828 37.8083 45.8451 37.8094C44.7171 37.811 43.589 37.8109 42.4609 37.8098C41.0122 37.8085 39.5634 37.8122 38.1146 37.8174C37.004 37.8206 35.8934 37.8208 34.7828 37.8201C34.2485 37.8202 33.7142 37.8214 33.1798 37.8236C32.4341 37.8263 31.6886 37.8249 30.9429 37.8223C30.6089 37.8248 30.6089 37.8248 30.2681 37.8274C30.0658 37.8258 29.8634 37.8243 29.6549 37.8227C29.4784 37.8227 29.302 37.8228 29.1202 37.8228C28.9787 37.7955 28.8373 37.7682 28.6915 37.7401C28.2158 37.0267 28.1466 36.8018 28.2501 35.9745C28.7447 35.324 29.0916 35.2296 29.8937 35.2298Z" fill="#103255"/>
<path d="M31.3204 51.8045C31.587 51.8028 31.587 51.8028 31.8589 51.8011C32.4469 51.798 33.0348 51.7982 33.6227 51.7987C34.0309 51.7979 34.4391 51.7969 34.8472 51.7959C35.7029 51.7942 36.5585 51.7943 37.4142 51.7954C38.5119 51.7967 39.6095 51.793 40.7072 51.7879C41.5501 51.7846 42.393 51.7844 43.2359 51.7851C43.6407 51.785 44.0455 51.7838 44.4503 51.7816C45.0157 51.7789 45.5809 51.7804 46.1463 51.7829C46.3142 51.7813 46.4821 51.7796 46.655 51.7778C47.7799 51.7891 47.7799 51.7891 48.3284 52.1591C48.6796 52.7305 48.6241 53.1985 48.5547 53.8514C47.9941 54.412 47.6373 54.3466 46.8727 54.3527C46.6996 54.3518 46.5264 54.3509 46.3481 54.35C46.1657 54.3507 45.9834 54.3515 45.7955 54.3523C45.191 54.3543 44.5865 54.353 43.982 54.3515C43.5631 54.3518 43.1441 54.3522 42.7252 54.3528C41.8465 54.3534 40.9679 54.3525 40.0892 54.3504C38.961 54.3479 37.8329 54.3493 36.7048 54.352C35.8395 54.3536 34.9743 54.3531 34.1091 54.3519C33.693 54.3516 33.2769 54.352 32.8609 54.353C32.2801 54.3541 31.6994 54.3524 31.1187 54.35C30.859 54.3513 30.859 54.3513 30.594 54.3527C29.4039 54.3433 29.4039 54.3433 28.9121 53.8514C28.8431 53.079 28.8431 53.079 28.9121 52.3065C29.734 51.7586 30.3691 51.8014 31.3204 51.8045Z" fill="#103255"/>
<path d="M90.0193 17.3805C91.0711 18.4005 91.4094 19.2704 91.4677 20.7324C91.4308 21.9717 91.2722 22.6506 90.4883 23.6154C89.3112 24.4874 88.1945 24.8384 86.7363 24.7189C85.2277 24.2179 84.3725 23.3781 83.5775 22.0153C83.2759 20.8087 83.2736 19.6493 83.6741 18.4702C84.4766 17.3199 85.3302 16.6378 86.7053 16.3675C87.9799 16.2721 89.0223 16.5829 90.0193 17.3805ZM86.0742 19.422C85.8503 19.9341 85.8503 19.9341 85.8535 20.5255C86.1593 21.1517 86.4649 21.5783 86.957 22.0704C87.7359 22.0511 87.7359 22.0511 88.502 21.8497C89.009 21.2301 89.009 21.2301 88.9158 20.5393C88.6936 19.7616 88.4932 19.4524 87.8399 18.9806C87.008 18.8589 86.7911 18.9441 86.0742 19.422Z" fill="#103255"/>
<path d="M30.9758 68.9978C31.2653 68.9964 31.5547 68.9951 31.8529 68.9937C32.1692 68.9956 32.4855 68.9976 32.8018 68.9998C33.1259 68.9999 33.4499 68.9998 33.774 68.9995C34.453 68.9995 35.132 69.0018 35.811 69.0058C36.6816 69.0108 37.5521 69.0109 38.4227 69.0094C39.0918 69.0087 39.7609 69.0102 40.43 69.0123C40.751 69.0132 41.072 69.0134 41.393 69.0131C41.8416 69.013 42.2901 69.0161 42.7386 69.0194C42.9939 69.0204 43.2492 69.0214 43.5123 69.0225C44.1404 69.08 44.1404 69.08 44.8025 69.5214C44.8991 70.2801 44.8991 70.2801 44.8025 71.0663C44.3084 71.5772 44.0005 71.7176 43.2931 71.8125C43.0514 71.813 42.8097 71.8136 42.5606 71.8141C42.2859 71.8162 42.0112 71.8183 41.7281 71.8204C41.429 71.8192 41.1299 71.8179 40.8307 71.8164C40.5229 71.8168 40.2151 71.8175 39.9072 71.8183C39.2625 71.8193 38.6179 71.8178 37.9732 71.8147C37.1484 71.811 36.3238 71.8131 35.499 71.8171C34.8634 71.8195 34.2278 71.8187 33.5922 71.817C33.2882 71.8166 32.9841 71.8171 32.6801 71.8187C32.2545 71.8204 31.8288 71.8173 31.4031 71.8141C31.1612 71.8136 30.9193 71.813 30.6701 71.8125C29.9238 71.7167 29.504 71.5269 28.9119 71.0663C28.7972 70.3779 28.7616 69.9627 29.1623 69.3748C29.7662 68.9424 30.2382 68.9974 30.9758 68.9978Z" fill="#103255"/>
</svg>
