<svg width="165" height="165" viewBox="0 0 165 165" fill="none" xmlns="http://www.w3.org/2000/svg">
<path d="M138.432 65.7234C140.097 66.7273 141.403 68.1077 142.119 69.9317C142.178 70.7625 142.199 71.5516 142.186 72.3814C142.184 72.6326 142.181 72.8838 142.179 73.1426C142.127 76.8429 141.908 80.5384 141.696 84.2322C141.663 84.81 141.663 84.81 141.63 85.3993C140.782 100.267 139.821 113.611 129.228 125.039C128.994 125.303 128.76 125.567 128.518 125.838C126.094 128.548 123.512 131.099 120.926 133.652C119.385 135.177 117.883 136.713 116.475 138.362C115.897 139.035 115.28 139.666 114.666 140.306C112.409 142.886 111.957 145.675 111.544 148.987C111.511 149.242 111.477 149.497 111.442 149.759C111.415 149.987 111.388 150.214 111.36 150.449C111.114 151.406 110.844 151.98 110.215 152.754C109.317 152.91 108.616 152.955 107.719 152.932C107.465 152.932 107.212 152.931 106.95 152.931C106.111 152.928 105.272 152.914 104.433 152.9C103.851 152.896 103.268 152.893 102.686 152.891C101.152 152.883 99.6188 152.865 98.0853 152.846C95.9224 152.82 93.7594 152.807 91.5963 152.792C90.444 152.784 89.2917 152.773 88.1393 152.759C87.6146 152.754 87.09 152.748 86.5653 152.743C86.325 152.739 86.0848 152.736 85.8372 152.732C84.6115 152.699 84.6115 152.699 83.4667 153.076C82.997 153.114 82.5258 153.133 82.0547 153.142C81.7593 153.149 81.464 153.155 81.1597 153.162C80.6747 153.17 80.6747 153.17 80.1798 153.178C79.8425 153.185 79.5051 153.192 79.1575 153.199C78.0494 153.22 76.9412 153.239 75.833 153.258C75.4576 153.264 75.0821 153.27 74.6953 153.277C72.774 153.308 70.8527 153.338 68.9314 153.365C67.2099 153.39 65.4888 153.422 63.7676 153.458C62.6072 153.48 61.4469 153.495 60.2864 153.508C59.7502 153.516 59.2139 153.526 58.6778 153.539C57.9377 153.556 57.1983 153.563 56.4581 153.567C56.0466 153.574 55.6352 153.58 55.2112 153.587C53.8344 153.345 53.3694 152.886 52.5292 151.787C52.2984 151.06 52.2984 151.06 52.251 150.319C52.226 150.044 52.201 149.768 52.1753 149.485C52.1411 149.049 52.1411 149.049 52.1062 148.605C51.3304 141.661 46.5757 136.435 41.3745 132.066C40.8093 131.615 40.2441 131.164 39.6788 130.713C29.2963 122.218 25.0079 112.166 23.6247 99.0052C23.0069 92.5669 22.8104 86.1253 22.7675 79.6597C22.7625 78.9525 22.7555 78.2454 22.7464 77.5383C22.7349 76.5393 22.7323 75.5407 22.7322 74.5416C22.7276 74.2443 22.723 73.947 22.7183 73.6406C22.7316 71.7145 23.069 70.2475 24.1698 68.6426C25.8113 67.1184 26.8882 66.9209 29.0781 66.9382C30.3042 67.0661 30.9954 67.5048 31.9042 68.3204C32.749 69.5876 32.871 70.6804 32.871 72.1876C33.1905 72.5125 33.5131 72.8345 33.8378 73.1544C34.1331 73.7951 34.1331 73.7951 34.3829 74.5441C34.5278 74.976 34.5278 74.976 34.6756 75.4165C34.778 75.7335 34.8804 76.0504 34.9859 76.377C35.1509 76.8774 35.1509 76.8774 35.3194 77.3879C36.0005 79.4893 36.6266 81.6016 37.2216 83.7287C37.2902 83.9731 37.3588 84.2176 37.4294 84.4694C37.7673 85.6766 38.1002 86.8849 38.4251 88.0957C39.6807 92.6938 41.4182 98.4642 44.8615 101.901C45.4393 102.481 45.4393 102.481 45.4393 103.125C45.6291 103.21 45.8188 103.294 46.0143 103.382C46.7617 103.788 47.2471 104.214 47.8412 104.819C48.0406 105.021 48.24 105.222 48.4455 105.43C48.6499 105.64 48.8543 105.85 49.0648 106.066C49.2742 106.278 49.4836 106.49 49.6993 106.709C50.2144 107.232 50.7279 107.756 51.2401 108.281C51.5564 108.16 51.5564 108.16 51.8792 108.036C54.0748 107.222 55.7938 107.188 58.0077 107.959C60.4415 109.12 62.397 110.909 64.392 112.686C66.091 114.186 67.869 115.554 69.6898 116.902C71.9712 118.592 74.2165 120.294 76.3768 122.139C76.6531 122.368 76.9294 122.597 77.214 122.834C78.9877 124.353 80.3532 125.945 81.664 127.879C82.1183 128.616 82.1183 128.616 82.8222 128.906C82.9019 128.675 82.9817 128.444 83.0639 128.206C84.858 124.147 89.0145 121.271 92.4301 118.624C94.1362 117.296 95.7327 115.867 97.3241 114.404C97.9599 113.844 98.5993 113.288 99.2401 112.734C99.7221 112.308 100.196 111.873 100.665 111.432C103.161 109.104 105.666 106.943 109.208 106.952C109.539 106.951 109.871 106.95 110.212 106.949C111.182 106.992 111.182 106.992 111.959 107.23C112.817 107.406 112.817 107.406 113.502 106.845C113.736 106.61 113.97 106.374 114.21 106.131C114.471 105.87 114.732 105.609 115.001 105.339C115.269 105.061 115.538 104.782 115.814 104.495C116.08 104.231 116.346 103.967 116.62 103.695C122.164 98.0544 123.227 90.8965 125.059 83.4669C125.258 82.6645 125.457 81.8622 125.656 81.0599C125.753 80.6694 125.85 80.2788 125.95 79.8765C126.141 79.1082 126.332 78.34 126.523 77.5718C126.917 75.9832 127.309 74.3947 127.676 72.7994C127.76 72.4428 127.76 72.4428 127.845 72.079C127.984 71.4822 128.12 70.8845 128.255 70.2867C128.781 68.6876 129.613 67.3888 131.021 66.4472C131.208 66.3188 131.394 66.1905 131.586 66.0582C133.479 64.9561 136.417 64.982 138.432 65.7234ZM26.4257 70.5762C25.5901 73.0831 26.232 76.076 26.5062 78.653C26.5724 79.2888 26.6386 79.9245 26.7045 80.5602C26.7517 81.0145 26.7989 81.4688 26.8464 81.923C27.0342 83.7316 27.2069 85.5413 27.3761 87.3517C28.6446 105.012 28.6446 105.012 36.7382 120.205C37.0257 120.529 37.3122 120.853 37.598 121.178C39.4424 123.259 41.4167 125.139 43.5058 126.973C44.9181 128.245 46.3098 129.539 47.6952 130.84C47.8641 130.997 48.033 131.155 48.2071 131.317C53.5703 136.351 55.8624 140.95 57.6854 148.242C65.0234 148.242 72.3614 148.242 79.9218 148.242C79.9417 146.348 79.9616 144.454 79.9822 142.502C79.991 141.912 79.9998 141.321 80.0089 140.713C80.0534 135.567 79.1748 131.631 75.585 127.801C73.4088 125.601 71.103 123.62 68.6345 121.758C67.3726 120.803 66.1575 119.806 64.9566 118.775C63.3028 117.357 61.6121 115.995 59.891 114.659C59.0041 113.971 58.1292 113.274 57.2713 112.549C56.3008 111.697 56.3008 111.697 55.1073 111.504C54.0554 111.955 53.1591 112.481 52.2069 113.115C52.4577 114.745 53.3938 115.979 54.6315 117.025C54.9347 117.237 55.238 117.449 55.5504 117.667C58.7647 120 61.7137 122.634 64.6343 125.321C64.8185 125.49 65.0027 125.658 65.1924 125.832C68.085 128.523 68.085 128.523 68.6425 130.195C64.3062 130.713 61.3254 128.181 58.104 125.65C57.7579 125.377 57.7579 125.377 57.4047 125.1C56.2885 124.226 55.1492 123.433 53.9592 122.662C51.4389 121.013 49.0364 119.382 48.1585 116.358C47.8312 114.613 48.2694 113.427 48.9843 111.826C46.7918 109.582 46.7918 109.582 44.4524 107.496C37.8763 101.81 36.6775 93.4537 34.9114 85.4052C34.5905 83.946 34.2581 82.4899 33.9196 81.0348C33.8311 80.65 33.7426 80.2653 33.6514 79.8689C33.4864 79.1522 33.3194 78.436 33.1499 77.7204C32.6718 75.6192 32.4474 73.6359 32.4246 71.4784C32.159 70.2692 31.6364 69.942 30.6151 69.2872C28.8923 68.8434 27.6435 69.2846 26.4257 70.5762ZM133.74 70.8985C133.367 71.7373 133.101 72.4981 132.854 73.3759C132.734 73.7844 132.734 73.7844 132.612 74.2012C131.749 77.2996 131.148 80.456 130.517 83.6079C127.318 99.5918 127.318 99.5918 122.139 105.381C121.819 105.79 121.819 105.79 121.493 106.207C120.917 106.909 120.357 107.462 119.661 108.04C119.441 108.233 119.221 108.426 118.994 108.625C118.488 109.061 117.972 109.486 117.448 109.901C115.864 111.215 115.864 111.215 115.294 113.103C115.372 113.768 115.467 114.431 115.577 115.092C115.749 116.459 115.428 117.427 114.726 118.594C114.062 119.379 114.062 119.379 113.115 120.205C112.919 120.394 112.723 120.583 112.521 120.778C107.89 125.156 102.451 129.091 96.6796 131.807C96.6939 128.704 98.0946 127.162 100.184 125.019C101.228 124.003 102.306 123.035 103.409 122.085C104.43 121.201 105.432 120.297 106.432 119.389C107.072 118.812 107.717 118.243 108.368 117.677C108.722 117.365 109.076 117.053 109.429 116.741C109.598 116.597 109.768 116.452 109.942 116.304C110.945 115.409 111.404 114.792 111.504 113.438C111.166 113.156 110.823 112.883 110.477 112.612C110.286 112.458 110.095 112.305 109.899 112.147C109.01 111.709 108.564 111.837 107.637 112.149C107.087 112.533 107.087 112.533 106.589 113.055C105.302 114.238 103.931 115.238 102.501 116.237C102.265 116.402 102.029 116.567 101.786 116.737C101.297 117.077 100.808 117.418 100.319 117.758C93.4746 122.499 93.4746 122.499 87.0166 127.746C86.0448 128.584 86.0448 128.584 85.1737 129.201C84.3637 129.826 83.9369 130.252 83.4667 131.162C83.5575 132.207 83.5575 132.207 83.8758 133.364C84.6385 136.796 84.6154 140.23 84.655 143.731C84.6658 144.39 84.6769 145.05 84.6884 145.709C84.7154 147.306 84.7371 148.902 84.7558 150.498C87.1755 150.524 89.5732 150.451 91.9878 150.298C92.3257 150.277 92.6635 150.257 93.0116 150.235C93.7203 150.192 94.429 150.147 95.1377 150.103C96.2145 150.035 97.2914 149.969 98.3683 149.903C99.0613 149.86 99.7543 149.817 100.447 149.774C100.765 149.755 101.083 149.735 101.41 149.715C103.383 149.59 105.348 149.42 107.314 149.209C107.791 147.794 108.264 146.379 108.697 144.949C111.18 136.887 115.673 131.013 122.208 125.767C132.739 117.229 135.125 105.268 136.561 92.338C136.991 87.9035 137.049 83.4418 137.093 78.9894C137.1 78.3241 137.11 77.6589 137.122 76.9937C137.137 76.0562 137.141 75.1192 137.143 74.1816C137.149 73.897 137.155 73.6124 137.162 73.3192C137.156 72.5835 137.141 71.9346 136.963 71.2208C135.734 70.1895 135.058 69.9733 133.74 70.8985Z" fill="#103255"/>
<path d="M84.8366 27.7349C85.9922 28.549 86.7866 29.5103 87.6565 30.6151C89.0885 32.5474 89.0885 32.5474 91.2014 33.5155C93.166 33.5155 94.5348 32.677 96.2116 31.7028C97.842 30.7889 99.3644 30.7473 101.192 30.9374C103.146 31.5077 104.682 32.721 105.703 34.4823C106.159 35.8649 106.298 37.2857 106.47 38.7259C106.516 39.0669 106.562 39.408 106.61 39.7594C106.645 40.0743 106.68 40.3892 106.717 40.7136C107.09 41.8755 107.564 42.2403 108.604 42.8612C109.572 43.0375 109.572 43.0375 110.598 43.0223C113.059 43.145 115.022 43.6518 116.942 45.2379C118.491 47.1506 119.356 48.6022 119.332 51.0664C119.123 52.8965 118.283 54.5513 117.345 56.1144C116.937 57.1563 116.898 57.8925 117.222 58.972C117.945 60.1264 119.122 60.6536 120.28 61.3197C122.016 62.4 123.126 63.796 123.75 65.7421C124.01 68.2715 124.102 70.7646 122.461 72.8319C121.37 73.9894 120.181 74.786 118.795 75.551C117.814 76.1524 117.659 76.2936 117.224 77.4242C117.33 79.0074 117.907 80.1237 118.594 81.5331C119.639 83.9203 119.855 85.9505 118.956 88.4366C118.011 90.393 116.657 91.5233 114.727 92.4901C113.298 92.9724 111.77 92.9153 110.277 92.9811C109.15 93.1492 108.535 93.4079 107.637 94.1014C106.854 95.1761 106.909 96.2464 106.872 97.5457C106.712 100.107 106.258 102.069 104.374 103.89C102.22 105.536 99.8489 105.905 97.2036 105.571C95.8703 105.271 94.4428 104.755 93.4572 103.769C91.7234 103.581 91.7234 103.581 90.1943 104.233C89.6544 104.971 89.1598 105.721 88.6635 106.489C87.2596 108.615 85.7973 109.748 83.3323 110.395C80.9916 110.795 78.9923 110.205 77.0217 108.926C75.8572 107.96 75.1321 106.882 74.3227 105.622C73.6002 104.589 73.285 104.153 72.1273 103.608C70.5246 103.818 69.3305 104.461 67.924 105.237C66.2058 106.134 64.3948 106.323 62.5034 105.865C59.7665 104.925 58.0284 103.455 56.719 100.869C56.2397 99.4312 56.271 97.9767 56.1965 96.4693C56.0857 95.4899 55.9736 94.9102 55.4299 94.1014C54.5724 93.6727 53.7401 93.6789 52.7967 93.604C49.5518 93.3312 47.568 92.8417 45.3188 90.3954C43.7773 88.5697 43.4811 86.4402 43.5061 84.1112C43.7908 82.4765 44.3255 81.0674 45.198 79.6599C45.8314 78.7015 45.8314 78.7015 45.7619 77.7666C45.1288 76.3025 44.0297 75.6493 42.7205 74.8259C40.7524 73.5408 39.4877 71.9416 38.9943 69.6092C38.7526 67.2249 38.9201 65.186 40.2834 63.1639C41.625 61.6917 43.2152 60.6189 44.9349 59.6329C45.4944 59.3206 45.4944 59.3206 45.7619 58.6522C46.0241 56.9046 45.3573 55.774 44.5345 54.2903C43.5819 52.3195 43.5915 50.227 44.2312 48.1584C45.0682 45.8759 46.2475 44.4021 48.34 43.1835C49.7098 42.7269 51.1025 42.7593 52.5358 42.7227C53.9723 42.6585 54.946 42.484 56.0744 41.5721C57.0344 40.2709 57.0352 38.4547 57.2319 36.8873C57.5521 34.777 58.334 33.2742 60.0574 31.9759C62.3688 30.8542 64.1015 30.4978 66.5682 31.3201C67.4103 31.7641 68.1433 32.2183 68.9248 32.7501C70.2956 33.6235 71.5284 33.9428 73.1545 33.8378C74.0668 33.6101 74.8873 33.2793 75.7326 32.871C75.9985 32.7447 76.2644 32.6184 76.5383 32.4883C76.6978 32.4019 76.8573 32.3155 77.0217 32.2264C76.9951 31.9473 76.9685 31.6681 76.9411 31.3805C77.0439 29.9923 77.4021 29.4077 78.3107 28.3593C80.3651 27.1266 82.5616 26.9911 84.8366 27.7349ZM77.7871 31.5618C77.5345 31.8875 77.2819 32.2131 77.0217 32.5487C76.4909 33.0921 75.9546 33.6301 75.4104 34.16C75.2641 34.3395 75.1179 34.519 74.9672 34.7039C73.6842 35.7402 72.2196 35.8356 70.6368 35.7311C69.4276 35.5824 68.4301 35.2664 67.3134 34.7844C65.8003 34.1393 64.8049 33.9139 63.1643 34.16C62.1943 34.7327 61.4203 35.392 60.9084 36.4159C60.8579 37.1202 60.8195 37.8254 60.7876 38.5308C60.6261 40.9183 60.4052 42.8767 58.854 44.7545C56.8575 46.3707 55.2073 46.6625 52.7208 46.9632C51.1555 47.1836 50.059 47.405 48.9846 48.662C48.3738 50.6012 48.8958 51.7318 49.7701 53.4355C50.8633 55.7539 51.4534 57.5446 50.679 60.0798C49.6378 62.7043 47.802 64.0119 45.5064 65.5331C44.722 66.0571 44.722 66.0571 44.1506 67.0311C44.1024 68.146 44.1024 68.146 44.4729 69.287C45.1228 69.9369 45.6623 70.3906 46.4065 70.8983C46.7068 71.1245 46.7068 71.1245 47.0132 71.3553C48.0487 72.2153 48.0487 72.2153 49.3068 72.5096C49.5285 72.9359 49.741 73.3668 49.9514 73.7987C50.1242 74.1177 50.297 74.4368 50.4751 74.7655C51.4122 77.0099 51.1816 79.4915 50.3139 81.7144C49.9255 82.5905 49.5197 83.3086 48.9846 84.1112C48.8143 85.4245 48.8528 86.1338 49.5083 87.2936C50.9912 88.2273 52.2712 88.1592 53.9961 88.2276C55.9829 88.3582 57.6798 88.978 59.1737 90.3576C60.7587 92.2113 61.2975 94.024 61.3918 96.4379C61.4408 98.2707 61.4408 98.2707 62.278 99.8418C63.2207 100.592 63.5952 100.789 64.7756 100.869C65.7589 100.502 65.7589 100.502 66.7293 99.9425C69.0802 98.6677 71.199 98.1759 73.8695 98.773C76.6754 99.7281 77.9408 101.472 79.4022 103.954C79.8991 104.811 79.8991 104.811 80.8889 105.381C81.814 105.623 81.814 105.623 82.8225 105.381C83.7966 104.553 84.4939 103.495 85.2281 102.458C86.5065 100.674 87.766 99.3286 89.9123 98.6132C92.7613 98.2893 94.6232 98.7297 97.1117 100.11C98.2371 100.683 98.9882 100.824 100.225 100.547C101.237 100.047 101.237 100.047 101.836 98.9354C101.988 97.8903 102.04 96.862 102.085 95.8072C102.249 93.4262 102.991 91.5795 104.737 89.912C106.696 88.6944 108.365 88.2949 110.658 88.2201C112.46 88.0962 112.46 88.0962 114.022 87.2734C114.771 86.4349 114.771 86.4349 114.948 85.501C114.676 84.1877 114.14 83.1459 113.499 81.9737C112.493 79.9738 112.411 77.4421 113.002 75.2967C113.871 73.3735 115.322 72.1402 117.117 71.0846C118.577 70.2762 118.577 70.2762 119.528 68.971C119.706 67.9197 119.623 67.1631 119.169 66.2028C118.525 65.3257 118.006 65.003 117.043 64.5134C114.979 63.3382 113.847 61.9695 112.995 59.76C112.478 56.9169 113.074 54.4581 114.611 52.0093C115.249 50.8896 115.059 50.2032 114.727 48.9843C114.117 48.2372 113.651 47.8018 112.793 47.3729C112.136 47.3226 111.478 47.2842 110.819 47.2521C108.114 47.0525 106.357 46.4872 104.267 44.7595C102.746 42.8963 102.663 40.9363 102.661 38.6308C102.616 36.9956 102.22 36.068 101.192 34.8046C100.056 34.237 98.8858 34.3069 97.6467 34.4823C96.7988 34.8442 96.0087 35.2713 95.1982 35.7097C93.5268 36.5386 92.0403 36.534 90.2346 36.0936C87.417 35.13 85.9076 33.2213 84.5383 30.6592C84.1219 29.8809 84.1219 29.8809 83.1447 29.326C80.7803 29.0532 79.3133 29.8538 77.7871 31.5618Z" fill="#103255"/>
<path d="M82.8222 44.4727C83.6279 44.9762 83.6279 44.9762 84.1113 45.7618C84.1919 46.9703 84.1919 46.9703 84.1113 48.0176C84.4303 48.124 84.7494 48.2303 85.0781 48.3399C85.4695 49.0559 85.8032 49.7486 86.1255 50.495C86.324 50.9346 86.5229 51.3739 86.7222 51.8131C86.8232 52.0382 86.9243 52.2633 87.0284 52.4952C87.5078 53.5599 87.9977 54.6184 88.5022 55.6714C88.7577 56.2173 88.7577 56.2173 89.0183 56.7742C89.7542 57.9478 90.5013 58.4454 91.8212 58.8358C92.9235 59.0646 94.0364 58.9933 95.1565 58.9721C95.6869 58.9665 96.2172 58.961 96.7476 58.9558C97.58 58.9458 98.4123 58.9344 99.2446 58.9194C100.05 58.9057 100.856 58.8982 101.662 58.8916C101.909 58.8856 102.156 58.8796 102.41 58.8734C103.963 58.866 104.998 59.0915 106.348 59.9415C107.618 61.3494 107.99 62.1489 108.065 64.0453C107.849 65.5327 107.226 66.4949 106.129 67.5009C105.789 67.7514 105.449 68.0018 105.099 68.2599C104.916 68.397 104.733 68.534 104.545 68.6752C103.599 69.3775 102.637 70.0476 101.652 70.6933C98.7111 72.5213 98.7111 72.5213 97.0019 75.4102C96.6699 78.3148 97.9128 80.9228 98.8713 83.6185C99.7891 86.3121 100.654 88.9967 99.3585 91.6846C98.1247 93.0185 97.2674 93.5118 95.451 93.5981C92.7868 93.6633 90.7474 91.8916 88.8244 90.2546C86.7114 88.5168 84.7289 86.9312 81.9562 86.5082C79.4216 86.9386 77.3597 88.8917 75.3699 90.4157C74.8056 90.8465 74.2408 91.2767 73.6754 91.706C73.4282 91.8953 73.181 92.0845 72.9263 92.2795C70.9103 93.734 69.5097 94.1074 67.0312 93.7793C65.5967 93.0751 64.7145 92.1875 63.8086 90.879C62.7414 87.6774 64.2975 84.6644 65.3557 81.6472C66.0897 79.4814 66.6144 77.7014 66.3867 75.4102C65.9488 74.6365 65.9488 74.6365 65.4199 74.1211C65.4199 73.9084 65.4199 73.6958 65.4199 73.4766C65.231 73.3857 65.042 73.2948 64.8474 73.2011C61.6183 71.5382 56.7638 68.7297 55.3692 65.279C54.9709 63.7204 55.1655 62.3931 55.7519 60.9083C56.5959 59.5218 57.4498 58.8747 58.9746 58.3301C61.6146 57.839 64.2777 58.038 66.9363 58.2555C69.1094 58.4081 71.1444 58.3661 73.0134 57.1467C73.943 56.2588 74.3238 55.4746 74.8273 54.2943C74.9149 54.0932 75.0026 53.8922 75.0929 53.6851C75.3707 53.0464 75.6425 52.4055 75.9137 51.764C76.1869 51.1252 76.4613 50.4871 76.7379 49.8498C76.9889 49.2703 77.236 48.6891 77.4829 48.1078C78.6966 45.5693 79.8049 43.9931 82.8222 44.4727ZM81.3548 46.7626C80.7362 47.5727 80.5548 48.3195 80.2982 49.3054C80.1938 49.692 80.0893 50.0785 79.9816 50.4768C79.7702 51.2831 79.5596 52.0896 79.3497 52.8963C77.5425 59.5678 77.5425 59.5678 74.9469 61.4319C71.6031 63.3291 67.8447 63.2146 64.1071 63.1523C62.8873 63.1373 61.7713 63.1889 60.5859 63.4864C61.6962 64.7077 62.9665 65.5444 64.3323 66.4472C70.8047 70.8304 70.8047 70.8304 71.7217 74.5177C72.3236 78.2826 70.7662 82.1318 69.5753 85.6515C69.4918 85.9027 69.4083 86.1538 69.3223 86.4126C69.2458 86.637 69.1693 86.8614 69.0904 87.0927C68.8957 87.6874 68.8957 87.6874 69.2871 88.3008C69.4392 88.1857 69.5913 88.0706 69.748 87.9521C78.6677 81.2444 78.6677 81.2444 83.1445 81.5333C86.7549 82.2493 89.5204 84.3045 92.3402 86.5517C93.2135 87.2446 94.043 87.855 95.0683 88.3008C94.6311 86.1144 94.0271 83.9971 93.3812 81.865C92.5028 78.9466 91.7834 75.7205 93.0932 72.8132C95.2695 69.0705 99.4021 66.6414 102.981 64.3688C103.372 64.0915 103.372 64.0915 103.77 63.8086C103.77 63.5959 103.77 63.3833 103.77 63.1641C102.497 62.8652 101.305 62.7977 99.9993 62.7852C99.5828 62.7775 99.1663 62.7698 98.7373 62.7619C98.0833 62.7507 97.4295 62.7412 96.7754 62.7368C93.6585 62.7121 91.0448 62.5 88.4569 60.6514C85.0546 56.8201 84.3173 51.6116 83.4668 46.7286C82.3636 46.3516 82.3636 46.3516 81.3548 46.7626Z" fill="#103255"/>
<path d="M65.7424 12.2462C68.1154 12.088 68.1154 12.088 68.9865 12.7598C70.6155 14.787 71.961 17.9994 71.8655 20.6251C71.2968 21.5467 70.9001 22.0746 69.9319 22.5587C68.8269 22.6788 68.2344 22.74 67.3361 22.0501C65.5705 19.8519 65.2659 16.2881 65.3434 13.5591C65.4202 12.8907 65.4202 12.8907 65.7424 12.2462Z" fill="#103255"/>
<path d="M137.608 51.5626C137.989 52.5889 137.962 53.0822 137.594 54.1205C136.817 55.3368 135.954 55.7883 134.667 56.3361C134.451 56.4314 134.234 56.5266 134.011 56.6247C132.391 57.3105 131.011 57.8006 129.229 57.6856C128.242 57.0411 128.242 57.0411 127.617 56.0743C127.436 54.9262 127.436 54.9262 127.617 53.8184C129.366 51.5371 134.957 50.2371 137.608 51.5626Z" fill="#103255"/>
<path d="M43.5059 26.7481C44.2276 27.1491 44.7923 27.5391 45.4395 28.0371C46.003 28.4204 46.567 28.803 47.1313 29.1852C48.1134 29.8533 48.6396 30.2592 49.3066 31.2598C49.4561 32.6045 49.4515 33.2859 48.7225 34.4422C48.0176 35.127 48.0176 35.127 47.0508 35.4492C44.4651 34.638 42.4056 32.7953 40.895 30.5649C40.3889 29.5263 40.3435 28.5385 40.2832 27.3926C41.4932 26.586 42.071 26.6021 43.5059 26.7481Z" fill="#103255"/>
<path d="M34.7644 52.3278C35.7715 52.8515 35.7715 52.8515 36.416 53.8183C36.585 54.7004 36.5981 55.5156 36.416 56.3964C35.5309 57.1586 34.6573 57.4952 33.5156 57.6855C30.8511 57.3026 27.7292 56.4107 25.7812 54.4628C25.8512 53.5531 25.9797 53.0092 26.5466 52.2876C28.4314 50.8378 32.6183 51.5741 34.7644 52.3278Z" fill="#103255"/>
<path d="M122.461 26.1035C123.262 27.3055 123.363 28.2563 123.105 29.6484C122.646 30.5874 122.045 31.3717 121.393 32.1863C121.152 32.5066 121.152 32.5066 120.906 32.8333C120.17 33.7926 119.614 34.447 118.594 35.127C117.291 35.2717 116.556 35.2429 115.391 34.6234C114.727 33.8379 114.727 33.8379 114.485 32.7905C115.001 30.2115 117.534 28.2917 119.561 26.748C120.693 26.1563 121.152 26.1035 122.461 26.1035Z" fill="#103255"/>
<path d="M96.1761 11.6016C97.3069 12.0429 97.6557 12.4984 98.291 13.5352C98.4247 14.5085 98.3545 15.4393 98.2708 16.4154C98.2577 16.6686 98.2446 16.9218 98.2312 17.1827C98.1229 18.7419 97.8588 19.9235 97.0019 21.2695C95.9554 21.9672 95.7522 21.9951 94.5648 21.8738C94.3118 21.853 94.0588 21.8322 93.7981 21.8108C93.1347 21.5918 93.1347 21.5918 92.7231 21.0908C92.0762 18.9018 92.5807 17.0882 93.3965 15.0458C93.4807 14.8196 93.5648 14.5934 93.6515 14.3603C94.7166 11.6016 94.7166 11.6016 96.1761 11.6016Z" fill="#103255"/>
</svg>
