<svg width="1035" height="546" viewBox="0 0 1035 546" fill="none" xmlns="http://www.w3.org/2000/svg">
<g filter="url(#filter0_f_23_113)">
<ellipse cx="541.449" cy="511.686" rx="313.352" ry="11.107" fill="#103255" fill-opacity="0.15"/>
</g>
<path d="M837.196 126.022C839.46 125.915 840.747 126.168 842.567 127.52C843.372 128.031 843.996 128.164 844.933 128.315C847.71 128.832 849.485 130.733 851.191 132.865C851.764 133.516 852.363 133.986 853.055 134.505C856.427 137.342 857.43 143.356 857.91 147.551C858.038 149.595 858.051 151.647 858.071 153.694C858.078 154.201 858.078 154.201 858.086 154.717C858.087 156.393 858.069 157.744 857.266 159.263C856.901 159.263 856.537 159.263 856.161 159.263C855.918 159.02 855.675 158.777 855.425 158.526C855.463 158.953 855.463 158.953 855.503 159.389C855.611 161.475 855.668 162.933 854.343 164.624C854.143 164.844 853.942 165.065 853.735 165.292C853.13 165.91 853.13 165.91 852.848 166.994C853.091 166.994 853.334 166.994 853.584 166.994C853.706 169.302 853.827 171.61 853.952 173.988C853.466 173.745 852.98 173.502 852.48 173.252C852.237 173.252 851.994 173.252 851.743 173.252C850.737 175.265 851.219 178.234 851.858 180.316C852.098 181.103 852.098 181.103 852.48 181.719C852.844 181.841 853.209 181.962 853.584 182.087C853.584 182.33 853.584 182.573 853.584 182.824C853.798 182.912 854.012 183 854.233 183.091C855.218 183.652 855.745 184.294 856.46 185.171C857.725 186.644 858.836 187.511 860.579 188.346C860.579 188.589 860.579 188.832 860.579 189.082C860.845 189.113 861.11 189.143 861.384 189.174C862.42 189.45 862.42 189.45 863.202 190.095C864.156 190.841 864.865 191.216 865.963 191.682C871.151 193.965 875.954 197.076 880.459 200.495C880.734 200.702 881.009 200.908 881.293 201.122C882.191 201.798 883.086 202.48 883.979 203.164C884.4 203.483 884.4 203.483 884.83 203.809C886.944 205.448 888.608 207.11 889.892 209.491C890.034 209.749 890.175 210.007 890.321 210.272C891.556 212.763 892.536 215.375 893.559 217.959C893.84 218.666 894.123 219.373 894.417 220.075C895.145 221.869 895.578 223.732 896.033 225.609C896.575 227.828 897.181 230.027 897.808 232.224C897.901 232.554 897.994 232.884 898.091 233.225C898.528 234.748 899.012 236.206 899.602 237.677C899.648 238.713 899.648 238.713 899.602 239.518C899.116 239.518 898.63 239.518 898.13 239.518C898.174 241.927 898.219 244.336 898.267 246.744C898.282 247.561 898.298 248.378 898.313 249.195C898.389 253.37 898.497 257.527 898.786 261.694C898.919 264.005 898.934 266.314 898.934 268.629C898.935 269.435 898.942 270.24 898.949 271.046C898.967 275.354 898.851 279.303 896.542 283.051C896.208 283.623 895.875 284.195 895.543 284.767C895.276 285.219 895.276 285.219 895.005 285.68C894 287.414 893.053 289.18 892.101 290.943C891.899 291.316 891.697 291.688 891.489 292.072C890.294 294.282 889.126 296.504 887.978 298.738C881.936 310.471 881.936 310.471 877.374 315.107C874.96 317.572 873.281 320.444 871.623 323.455C871.431 323.763 871.238 324.07 871.04 324.388C870.331 326.124 870.391 327.638 870.421 329.493C870.42 330.246 870.419 330.999 870.417 331.752C870.42 332.932 870.427 334.111 870.442 335.29C870.454 336.434 870.45 337.576 870.444 338.72C870.453 339.07 870.461 339.421 870.47 339.781C870.444 342.212 870.444 342.212 869.572 343.362C868.87 344.041 868.87 344.041 868.167 344.61C867.125 345.603 867.114 346.765 867.044 348.144C867.023 348.433 867.001 348.723 866.978 349.021C866.916 349.948 866.875 350.874 866.837 351.802C866.822 352.086 866.806 352.37 866.79 352.662C866.027 367.727 868.56 384.883 874.547 398.673C875.003 399.83 875.246 400.963 875.48 402.179C875.911 403.958 876.726 405.626 877.703 407.166C878.302 408.22 878.6 409.192 878.917 410.36C879.543 412.518 880.418 414.373 881.536 416.318C882.105 417.777 881.823 418.818 881.306 420.258C879.988 422.576 877.941 424.032 875.847 425.609C875.634 425.77 875.422 425.93 875.203 426.096C874.568 426.536 874.568 426.536 873.327 427.168C872.253 428.101 872.199 428.273 872.035 429.613C871.996 430.274 871.967 430.936 871.945 431.598C871.901 432.328 871.854 433.058 871.804 433.788C871.779 434.168 871.753 434.547 871.726 434.939C871.554 436.888 871.225 438.806 870.887 440.732C870.795 441.256 870.795 441.256 870.701 441.791C870.579 442.484 870.457 443.177 870.333 443.87C870.14 445.006 869.973 446.144 869.807 447.284C869.422 449.81 868.876 452.283 868.287 454.768C868.177 455.24 868.066 455.712 867.953 456.199C867.344 458.784 866.691 461.353 865.983 463.912C863.067 474.48 861.634 484.852 861.554 495.829C861.548 496.457 861.538 497.085 861.524 497.713C861.504 498.636 861.496 499.558 861.491 500.481C861.478 500.901 861.478 500.901 861.465 501.329C861.449 502.219 861.449 502.219 861.683 503.478C862.546 504.365 862.546 504.365 863.524 504.95C864.128 506.125 864.368 507.342 864.628 508.632C864.706 508.917 864.783 509.202 864.863 509.496C865.074 510.854 864.967 511.795 864.201 512.966C863.044 514.475 861.757 515.854 860.434 517.218C859.943 517.731 859.474 518.266 859.011 518.805C856.329 521.846 852.34 522.054 848.499 522.506C848.112 522.552 847.726 522.598 847.327 522.646C841.225 523.338 835.975 523.329 830.759 519.676C830.391 519.308 830.391 519.308 830.23 518.411C830.434 516.748 831.124 515.765 832.015 514.37C832.993 512.779 833.675 511.074 834.382 509.351C834.807 508.328 835.121 507.584 835.913 506.791C835.407 506.834 834.901 506.881 834.395 506.929C834.113 506.955 833.831 506.98 833.54 507.007C832.584 507.132 832.584 507.132 831.659 507.5C830.067 507.997 828.486 508.236 826.839 508.479C826.135 508.588 825.431 508.696 824.726 508.804C823.63 508.971 822.533 509.136 821.436 509.301C817.427 509.905 813.495 510.558 809.586 511.643C807.461 512.143 805.328 512.245 803.148 512.313C803.148 512.556 803.148 512.799 803.148 513.05C800.432 513.708 797.862 513.899 795.072 513.878C794.701 513.881 794.33 513.884 793.948 513.887C787.814 513.871 787.814 513.871 785.408 512.267C784.481 510.796 784.544 509.983 784.741 508.264C785.581 507.423 786.001 507.347 787.134 507.067C788.959 506.551 790.397 505.746 791.99 504.732C792.84 504.214 792.84 504.214 794.175 503.662C796.087 502.812 797.77 501.671 799.053 500.003C800.294 498.507 801.915 497.567 803.516 496.483C804.356 495.898 805.191 495.305 806.024 494.711C806.24 494.558 806.456 494.405 806.678 494.247C808.475 492.961 810.225 491.62 811.952 490.242C813.378 489.12 813.378 489.12 814.193 489.12C814.299 488.908 814.405 488.695 814.515 488.476C814.929 487.648 814.929 487.648 815.317 487.035C815.808 485.824 815.77 484.654 815.763 483.368C815.764 483.094 815.764 482.821 815.765 482.539C815.766 481.96 815.764 481.381 815.761 480.801C815.757 479.93 815.761 479.058 815.766 478.187C815.77 474.336 815.661 470.644 814.193 467.031C814.141 466.442 814.112 465.851 814.101 465.26C813.943 463.159 813.281 461.373 812.509 459.439C811.804 457.65 811.249 455.868 810.764 454.008C809.009 447.42 806.613 441.036 803.921 434.778C803.772 434.431 803.623 434.083 803.469 433.726C803.336 433.421 803.203 433.115 803.066 432.801C802.78 432.058 802.78 432.058 802.78 431.321C802.517 431.29 802.253 431.258 801.982 431.225C799.861 430.926 797.823 430.495 795.785 429.826C795.398 429.7 795.011 429.574 794.612 429.445C792.851 428.254 792.318 426.538 791.923 424.497C791.785 423.429 791.687 422.363 791.598 421.289C791.512 420.405 791.424 419.521 791.335 418.638C791.31 418.396 791.286 418.155 791.261 417.906C790.936 414.751 790.494 411.611 790.065 408.469C789.769 406.293 789.481 404.116 789.193 401.94C788.989 400.404 788.784 398.869 788.57 397.334C787.361 388.577 786.923 379.781 786.444 370.961C786.081 364.299 785.709 357.639 785.198 350.987C785.14 350.225 785.083 349.463 785.029 348.7C784.712 344.294 784.099 340.226 782.9 335.972C782.728 335.229 782.558 334.485 782.394 333.74C781.787 331.305 780.828 329.027 779.867 326.717C779.282 325.286 778.753 323.835 778.215 322.387C777.807 321.314 777.807 321.314 777.385 320.639C776.114 318.464 776.068 316.545 776.095 314.068C776.093 313.653 776.092 313.237 776.091 312.809C776.088 311.44 776.096 310.071 776.104 308.702C776.105 307.742 776.105 306.783 776.105 305.823C776.106 303.811 776.112 301.799 776.122 299.786C776.134 297.481 776.138 295.175 776.137 292.869C776.137 290.632 776.141 288.395 776.147 286.159C776.149 285.217 776.15 284.275 776.151 283.332C776.163 273.508 776.441 264.327 780.714 255.345C782.157 252.281 783.303 249.13 784.281 245.892C784.367 245.622 784.453 245.352 784.541 245.074C784.982 243.609 785.314 242.477 784.741 240.991C784.242 240.392 784.242 240.392 783.614 239.955C783.078 239.557 783.078 239.557 782.532 239.15C782.808 237.401 782.808 237.401 783.637 236.573C784.028 235.719 784.388 234.866 784.741 233.996C784.852 233.75 784.962 233.505 785.076 233.251C786.194 230.676 786.787 228.027 787.342 225.286C787.505 224.477 787.674 223.67 787.844 222.863C788.33 220.53 788.798 218.199 789.18 215.846C789.764 212.267 790.551 209.426 792.416 206.305C793.509 204.461 794.296 202.475 795.094 200.49C795.795 198.826 796.395 197.776 797.994 196.813C799.146 196.386 799.146 196.386 800.41 196.054C800.866 195.931 801.322 195.807 801.792 195.68C802.621 195.473 803.451 195.275 804.286 195.093C808.712 194.119 812.452 191.963 816.137 189.376C817.921 188.196 819.613 187.474 821.694 186.988C822.279 186.85 822.279 186.85 822.876 186.708C823.316 186.608 823.316 186.608 823.764 186.505C824.071 184.335 824.222 182.208 824.248 180.017C824.258 179.715 824.269 179.413 824.28 179.102C824.301 177.048 823.939 176.029 822.66 174.356C822.194 173.281 822.194 173.281 821.832 172.24C821.708 171.892 821.585 171.545 821.458 171.187C821.187 170.307 821.187 170.307 821.187 169.571C820.337 169.571 819.487 169.571 818.61 169.571C818.519 169.252 818.428 168.933 818.334 168.604C817.518 166.399 816.394 165.106 814.561 163.68C814.561 163.437 814.561 163.194 814.561 162.944C815.168 162.701 815.776 162.458 816.402 162.208C816.181 159.477 815.876 156.74 815.073 154.11C813.623 149.085 814.968 144.011 816.87 139.334C817.245 138.37 817.527 137.381 817.828 136.392C818.6 134.313 819.803 133.312 821.556 132.02C822.119 131.563 822.119 131.563 822.694 131.097C827.393 127.297 831.301 126.517 837.196 126.022Z" fill="#103255"/>
<path d="M558.332 150.059C558.332 150.302 558.332 150.545 558.332 150.796C559.911 151.16 561.491 151.525 563.118 151.9C563.118 152.143 563.118 152.386 563.118 152.636C563.375 152.665 563.632 152.693 563.897 152.723C565.253 153.083 566.097 153.724 567.213 154.569C567.594 154.852 567.975 155.135 568.367 155.426C570.268 157.105 570.716 158.847 571.275 161.243C571.603 162.263 572.028 162.849 572.69 163.681C572.962 164.212 573.222 164.749 573.472 165.291C574.41 167.229 575.552 168.995 576.759 170.773C577.844 172.401 577.844 172.401 577.844 173.621C577.601 173.621 577.358 173.621 577.107 173.621C577.214 173.904 577.321 174.187 577.431 174.479C577.963 176.221 578.258 177.969 578.557 179.764C578.62 180.141 578.683 180.517 578.748 180.905C578.876 181.674 579.004 182.443 579.131 183.212C579.294 184.168 579.471 185.12 579.657 186.071C580.581 190.995 580.535 195.867 580.421 200.863C580.178 200.863 579.935 200.863 579.684 200.863C580.049 202.503 580.049 202.503 580.421 204.177C580.915 204.191 580.915 204.191 581.419 204.205C584.316 204.341 586.672 204.682 589.256 206.017C589.525 206.155 589.794 206.292 590.072 206.433C592.306 207.694 593.479 209.286 594.594 211.563C595.71 213.748 597.273 215.171 599.219 216.625C599.427 216.781 599.635 216.938 599.849 217.099C600.488 217.58 601.13 218.057 601.773 218.534C602.533 219.102 603.292 219.669 604.051 220.237C604.412 220.507 604.773 220.777 605.145 221.055C606.747 222.269 608.31 223.529 609.872 224.793C610.44 225.245 611.007 225.698 611.575 226.15C612.235 226.679 612.894 227.209 613.554 227.738C613.88 227.998 613.88 227.998 614.213 228.263C617.31 230.732 620.312 233.257 623.193 235.975C624.018 236.744 624.855 237.469 625.725 238.184C629.009 241.035 631.722 244.555 633.802 248.354C634.198 249.015 634.597 249.675 634.998 250.333C636.383 252.618 637.054 254.114 636.747 256.821C636.446 257.913 636.019 258.921 635.55 259.951C635.44 260.206 635.329 260.462 635.215 260.726C634.989 261.247 634.758 261.767 634.525 262.286C634.286 262.82 634.054 263.358 633.829 263.898C632.953 265.972 631.869 267.802 630.603 269.66C630.408 269.949 630.213 270.238 630.012 270.536C626.296 275.972 621.332 282.585 615.026 285.168C614.662 285.168 614.297 285.168 613.922 285.168C613.411 284.605 613.411 284.605 612.932 283.88C612.772 283.641 612.611 283.402 612.445 283.155C612.325 282.969 612.205 282.783 612.081 282.591C610.486 283.126 609.301 283.987 608.009 285.03C606.14 286.502 604.231 287.86 602.239 289.162C600.774 290.128 599.329 291.121 597.885 292.117C597.386 292.461 596.887 292.806 596.388 293.15C596.175 293.297 595.962 293.444 595.742 293.595C595.179 293.982 594.611 294.361 594.042 294.74C594.462 297.704 596.622 299.906 598.598 302.034C600.159 303.727 601.446 305.524 602.722 307.438C603.356 308.378 604.03 309.272 604.735 310.159C604.924 310.4 605.112 310.641 605.306 310.889C605.672 311.356 606.045 311.817 606.424 312.273C607.36 313.479 607.796 314.246 607.625 315.796C606.418 320.928 602.842 325.235 599.583 329.264C598.065 331.162 596.792 333.17 595.541 335.251C594.778 336.341 594.778 336.341 593.822 336.953C592.365 338.369 592.317 340.188 591.994 342.139C591.841 342.978 591.687 343.817 591.531 344.655C591.458 345.063 591.384 345.47 591.308 345.889C590.606 349.64 589.535 353.279 588.361 356.905C587.252 360.353 586.263 363.838 585.265 367.32C584.627 369.542 583.986 371.754 583.208 373.931C582.846 375.129 582.743 376.329 582.63 377.573C582.387 377.573 582.144 377.573 581.893 377.573C581.848 377.907 581.802 378.241 581.755 378.585C581.471 380.585 581.126 382.576 580.789 384.568C580.546 384.568 580.303 384.568 580.053 384.568C580.051 384.889 580.051 384.889 580.049 385.216C580.019 390.506 579.984 395.795 579.947 401.085C579.928 403.643 579.911 406.201 579.897 408.759C579.787 428.448 579.787 428.448 579.348 437.132C579.334 437.417 579.32 437.702 579.305 437.996C579.043 443.129 578.687 448.349 577.637 453.388C577.579 453.671 577.521 453.955 577.462 454.247C576.507 458.758 575.3 463.217 574.135 467.678C574.036 468.057 574.036 468.057 573.935 468.444C573.669 469.457 573.389 470.455 573.058 471.45C572.304 477.412 571.625 484.75 575.215 489.897C575.971 491.15 576.177 492.473 576.371 493.907C576.443 494.289 576.443 494.289 576.516 494.68C576.601 495.425 576.601 495.425 576.371 496.852C575.276 498.138 573.772 499.695 572.011 499.861C571.74 499.87 571.47 499.878 571.191 499.887C570.891 499.9 570.591 499.912 570.282 499.924C569.656 499.946 569.03 499.967 568.404 499.987C566.413 500.07 564.673 500.382 562.75 500.901C561.007 501.152 559.852 501.191 558.378 500.165C556.567 497.608 556.334 495.441 556.56 492.411C556.577 492.095 556.593 491.778 556.61 491.452C556.751 489.167 557.241 487.24 557.964 485.071C557.999 484.07 558.015 483.081 558.01 482.08C558.011 481.807 558.013 481.534 558.014 481.253C558.136 479.924 558.136 479.924 557.596 478.813C557.541 477.92 557.509 477.036 557.492 476.142C557.482 475.737 557.482 475.737 557.472 475.323C557.45 474.454 557.431 473.584 557.412 472.715C557.393 471.855 557.373 470.995 557.352 470.135C557.338 469.599 557.326 469.064 557.316 468.528C557.273 466.78 557.091 465.085 556.859 463.35C556.81 462.5 556.779 461.648 556.767 460.797C556.753 460.176 556.753 460.176 556.739 459.544C556.842 458.393 556.999 457.773 557.41 456.737C558.204 454.512 558.116 452.235 558.088 449.903C558.079 449.14 558.08 448.377 558.082 447.614C558.076 444.658 557.831 441.82 557.401 438.89C557.138 436.9 557.073 434.915 557.02 432.91C556.954 430.673 556.877 428.448 556.672 426.22C556.527 424.589 556.456 422.971 556.427 421.335C556.418 420.885 556.409 420.436 556.4 419.973C556.384 419.055 556.373 418.137 556.365 417.218C556.298 414.248 555.772 411.966 554.651 409.233C553.706 406.19 553.077 403.044 552.601 399.897C552.46 399.04 552.27 398.224 552.051 397.384C551.434 394.772 551.454 392.024 551.337 389.353C551.094 389.353 550.851 389.353 550.601 389.353C550.587 389.592 550.572 389.83 550.558 390.076C550.388 392.379 550.004 394.544 549.471 396.788C547.593 404.785 547.227 412.915 546.824 421.095C546.808 421.409 546.793 421.723 546.777 422.046C546.747 422.64 546.719 423.233 546.692 423.827C546.633 425.049 546.542 426.232 546.368 427.445C546.146 429.006 546.068 430.551 545.999 432.124C545.968 432.769 545.938 433.413 545.907 434.057C545.861 435.065 545.815 436.074 545.769 437.082C545.725 438.06 545.678 439.038 545.631 440.016C545.618 440.321 545.605 440.625 545.591 440.938C545.489 443.061 545.489 443.061 545.079 443.471C544.999 444.145 544.942 444.822 544.895 445.5C544.865 445.921 544.835 446.342 544.804 446.775C544.773 447.226 544.742 447.677 544.711 448.142C544.678 448.599 544.645 449.056 544.611 449.526C544.414 452.247 544.414 452.247 544.265 454.971C544.142 457.413 543.754 459.684 543.215 462.062C541.989 467.431 541.989 467.431 543.399 472.6C543.566 472.844 543.732 473.088 543.904 473.339C544.919 474.929 544.799 476.619 544.711 478.444C544.468 478.687 544.225 478.93 543.974 479.181C543.821 480.161 543.821 480.161 543.78 481.316C543.755 481.756 543.73 482.197 543.704 482.65C543.667 483.359 543.667 483.359 543.629 484.082C543.421 487.495 543.179 490.887 542.709 494.275C542.668 494.586 542.628 494.898 542.586 495.218C542.347 496.839 542.074 498.111 541.029 499.429C537.434 500.867 531.983 501.303 528.305 500.119C526.453 499.108 525.629 497.865 524.463 496.115C523.985 492.57 525.126 490.401 527.178 487.625C528.074 486.451 528.975 485.32 529.985 484.243C530.97 482.888 531.004 481.942 531.089 480.285C530.603 480.285 530.117 480.285 529.617 480.285C529.585 479.876 529.553 479.467 529.52 479.046C529.226 475.766 528.769 473.204 527.04 470.345C524.053 464.631 523.89 458.604 523.602 452.283C523.403 447.962 523.062 443.469 521.656 439.352C519.949 434.118 520.741 427.692 520.765 422.271C520.772 420.692 520.775 419.113 520.778 417.534C520.787 413.048 520.8 408.563 520.817 404.078C520.826 401.59 520.832 399.102 520.836 396.614C520.838 395.049 520.844 393.483 520.852 391.918C520.857 390.711 520.858 389.505 520.859 388.298C520.864 387.66 520.864 387.66 520.869 387.008C520.866 384.604 520.662 382.34 520.216 379.977C519.938 378.46 519.881 376.94 519.803 375.403C519.706 374.229 519.706 374.229 519.32 373.013C518.846 371.351 518.672 369.698 518.495 367.987C518.309 366.327 517.931 364.816 517.468 363.215C517.329 362.32 517.206 361.423 517.1 360.523C516.857 358.579 516.56 356.677 516.131 354.767C515.995 354.012 515.995 354.012 515.995 352.539C515.563 352.562 515.563 352.562 515.121 352.585C514.155 352.539 514.155 352.539 513.418 351.803C512.685 351.625 512.685 351.625 511.836 351.538C506.858 350.84 503.009 349.729 499.755 345.681C498.077 343.057 497.455 340.434 497.496 337.353C497.499 337.079 497.501 336.804 497.504 336.522C497.598 331.455 497.598 331.455 498.677 329.416C500.035 326.806 499.994 324.398 499.935 321.5C499.929 321.009 499.924 320.518 499.919 320.027C500.056 313.099 500.056 313.099 498.324 306.521C498.089 306.308 497.854 306.096 497.611 305.877C494.96 302.984 495.344 298.176 495.287 294.51C495.275 294.079 495.275 294.079 495.263 293.64C495.251 291.433 495.602 289.379 496.035 287.219C496.611 284.285 496.913 281.329 497.227 278.358C499.846 253.717 499.846 253.717 502.37 242.694C503.401 238.149 503.912 233.647 504.292 229.008C504.591 225.431 504.922 222.21 506.424 218.902C506.546 218.612 506.668 218.321 506.795 218.022C507.151 217.182 507.521 216.351 507.896 215.52C508.018 215.247 508.139 214.974 508.264 214.692C508.626 213.884 508.996 213.079 509.369 212.276C509.486 212.019 509.603 211.762 509.723 211.498C510.532 209.79 511.459 208.475 512.705 207.053C513.603 206.023 514.429 205.073 515.12 203.893C515.807 202.781 516.682 202.545 517.836 201.968C518.548 200.986 518.926 200.172 519.309 199.023C518.094 199.023 516.879 199.023 515.627 199.023C515.059 197.886 515.178 196.972 515.259 195.709C515.51 195.004 515.764 194.3 516.049 193.608C516.418 192.619 516.667 191.628 516.916 190.601C517.01 190.223 517.105 189.844 517.202 189.454C517.366 188.772 517.519 188.088 517.653 187.4C518.171 185.148 519.203 183.789 520.735 182.077C523.204 179.261 525.02 175.864 526.672 172.516C526.322 172.759 525.973 173.002 525.613 173.252C524.463 173.989 524.463 173.989 523.726 173.989C524.286 172.452 525.056 171.086 525.889 169.686C526.754 168.216 527.517 166.825 528.052 165.199C529.035 162.509 531.041 160.308 532.802 158.088C533.36 157.372 533.36 157.372 533.912 156.293C535.258 154.601 537.052 153.766 538.935 152.751C539.499 152.438 539.499 152.438 540.074 152.118C541.953 151.082 543.82 150.114 545.815 149.323C546.249 149.15 546.249 149.15 546.691 148.974C550.808 147.582 554.646 147.681 558.332 150.059Z" fill="#103255"/>
<path d="M430.954 139.75C430.954 139.993 430.954 140.236 430.954 140.486C431.267 140.582 431.581 140.678 431.904 140.777C433.216 141.241 434.391 141.821 435.624 142.465C437.239 143.299 438.818 144.009 440.548 144.582C442.163 145.134 443.105 145.77 444.207 147.113C444.394 147.282 444.581 147.452 444.774 147.626C447.781 150.933 447.467 158.569 447.504 162.794C447.52 164.002 447.553 165.209 447.591 166.417C447.623 167.553 447.645 168.688 447.664 169.824C447.676 170.387 447.69 170.949 447.708 171.511C447.845 175.967 447.845 175.967 447.06 177.412C445.879 178.654 444.769 178.986 443.102 179.141C442.54 180.266 442.646 181.452 442.618 182.688C442.606 183.103 442.606 183.103 442.595 183.526C442.571 184.412 442.549 185.297 442.527 186.182C442.511 186.782 442.495 187.381 442.479 187.981C442.44 189.452 442.402 190.923 442.366 192.394C442.659 192.373 442.952 192.351 443.253 192.329C446.833 192.174 446.833 192.174 448.052 193.19C448.378 193.542 448.703 193.895 449.039 194.258C449.404 194.633 449.771 195.007 450.14 195.378C450.406 195.653 450.406 195.653 450.678 195.933C451.929 197.155 453.421 198.074 454.883 199.021C455.14 199.195 455.397 199.368 455.662 199.547C456.899 200.36 458.061 200.977 459.462 201.46C459.895 201.627 460.327 201.794 460.773 201.966C460.895 202.331 461.016 202.695 461.142 203.071C461.872 203.332 462.61 203.574 463.35 203.807C464.238 204.279 465.093 204.758 465.95 205.28C466.191 205.426 466.432 205.572 466.68 205.723C469.144 207.248 471.436 208.945 473.658 210.802C473.882 210.986 474.106 211.17 474.337 211.36C478.173 214.556 480.634 217.618 481.107 222.784C481.127 223.112 481.146 223.44 481.167 223.777C481.416 227.521 481.682 230.998 482.858 234.573C483.539 236.882 483.835 239.267 484.196 241.643C484.338 242.482 484.524 243.303 484.711 244.132C485.193 246.496 485.282 248.884 485.399 251.287C485.467 252.68 485.545 254.072 485.622 255.464C485.644 255.877 485.644 255.877 485.668 256.299C485.799 258.639 485.984 260.974 486.198 263.308C486.245 263.82 486.245 263.82 486.292 264.342C486.35 264.982 486.408 265.623 486.466 266.263C487.235 274.805 486.992 283.434 486.759 291.999C486.738 292.87 486.722 293.741 486.712 294.613C486.696 295.902 486.662 297.19 486.624 298.479C486.623 298.864 486.622 299.248 486.621 299.645C486.499 302.725 485.295 304.31 483.23 306.519C482.674 307.22 482.15 307.938 481.62 308.659C481.262 309.141 481.262 309.141 480.898 309.633C479.9 311.157 479.473 312.539 479.297 314.344C478.689 319.57 477.568 325.435 473.658 329.344C473.548 330.006 473.459 330.671 473.38 331.337C473.329 331.764 473.277 332.191 473.224 332.63C473.169 333.098 473.115 333.565 473.059 334.047C473.002 334.528 472.945 335.009 472.887 335.505C472.767 336.531 472.648 337.557 472.53 338.582C472.41 339.622 472.287 340.66 472.162 341.699C470.979 351.514 470.979 351.514 471.367 361.368C472.112 368.062 472.166 376.811 469.908 383.162C468.257 388.043 469.366 394.021 470.261 399C470.85 402.391 471.102 405.818 471.384 409.245C471.425 409.727 471.465 410.21 471.507 410.707C471.529 410.962 471.55 411.218 471.572 411.481C471.704 412.977 471.872 414.464 472.076 415.952C473.008 422.823 473.271 429.685 473.51 436.608C473.555 437.876 473.603 439.145 473.652 440.413C473.711 441.957 473.767 443.5 473.824 445.044C473.834 445.326 473.845 445.608 473.856 445.899C473.926 447.789 473.984 449.678 474.027 451.568C474.037 452.008 474.037 452.008 474.047 452.457C474.065 453.352 474.076 454.247 474.085 455.143C474.093 455.55 474.093 455.55 474.102 455.965C474.112 458.044 473.624 459.673 472.888 461.592C471.969 464.403 472.509 467.039 473.29 469.815C473.925 472.086 474.178 474.22 474.188 476.579C474.191 476.862 474.195 477.145 474.198 477.436C474.171 479.278 473.787 480.766 473.167 482.494C472.699 483.9 472.751 484.717 473.395 486.044C475.4 489.119 477.527 491.32 480.435 493.531C487.501 499.022 487.501 499.022 489.489 502.004C489.722 504.256 489.456 506.433 488.016 508.263C485.917 509.451 483.858 509.627 481.482 509.804C481.141 509.834 480.8 509.865 480.449 509.896C475.838 510.278 471.915 510.566 468.136 507.526C467.813 507.072 467.5 506.611 467.193 506.146C464.752 502.721 459.994 500.663 455.929 499.963C455.584 499.908 455.239 499.852 454.883 499.795C454.842 499.469 454.802 499.142 454.76 498.806C454.606 497.578 454.45 496.35 454.294 495.122C454.227 494.593 454.161 494.065 454.095 493.536C453.655 489.948 453.655 489.948 453.008 486.393C452.701 484.955 452.576 483.562 452.497 482.096C452.242 477.574 451.225 473.362 450.003 469.021C448.692 464.266 448.417 460.029 450.498 455.477C453.013 449.911 450.969 443.386 449.364 437.774C448.114 433.292 447.81 428.818 447.497 424.188C447.416 423.004 447.334 421.821 447.246 420.639C447.192 419.909 447.142 419.18 447.096 418.45C446.944 416.392 446.579 414.57 445.908 412.617C445.679 411.809 445.679 411.809 445.679 410.336C445.436 410.336 445.193 410.336 444.943 410.336C444.903 410.1 444.862 409.864 444.821 409.621C444.763 409.303 444.704 408.985 444.644 408.656C444.589 408.345 444.533 408.033 444.476 407.712C444.225 406.6 444.225 406.6 443.65 405.405C443.088 404.042 442.908 402.913 442.734 401.455C441.989 396.581 439.107 392.16 436.438 388.098C436.108 387.511 436.108 387.511 436.108 386.775C435.865 386.775 435.622 386.775 435.371 386.775C434.955 385.318 434.542 383.861 434.129 382.403C434.012 381.995 433.895 381.587 433.775 381.166C433.173 379.034 432.632 376.914 432.221 374.737C431.963 373.394 431.641 372.067 431.322 370.738C431.193 370.197 431.065 369.656 430.936 369.115C430.876 368.861 430.815 368.606 430.753 368.343C430.438 367.004 430.142 365.662 429.849 364.318C428.083 364.668 428.083 364.668 426.674 365.696C426.107 366.626 425.83 367.454 425.548 368.506C425.443 368.895 425.338 369.285 425.229 369.686C425.121 370.101 425.014 370.517 424.902 370.945C424.788 371.373 424.674 371.802 424.556 372.243C423.885 374.811 423.323 377.376 422.854 379.987C422.269 383.193 421.187 386.004 419.865 388.971C419.336 390.193 418.874 391.439 418.414 392.688C418.325 392.928 418.236 393.168 418.144 393.416C417.964 393.9 417.785 394.385 417.606 394.87C417.134 396.146 416.658 397.42 416.182 398.694C416.043 399.067 416.043 399.067 415.902 399.448C415.414 400.754 414.895 402.039 414.341 403.318C413.598 405.147 413.184 407.042 412.757 408.963C412.225 411.331 411.537 413.628 410.796 415.939C409.237 421.482 408.779 427.348 408.106 433.046C407.918 434.62 407.729 436.194 407.541 437.767C407.496 438.141 407.451 438.515 407.405 438.9C407.162 440.925 406.894 442.943 406.593 444.96C406.091 448.375 406.196 451.72 406.472 455.158C406.91 461.059 406.499 466.645 405.734 472.494C405.331 475.595 405 478.673 404.969 481.804C404.929 483.574 404.681 486.309 403.343 487.647C403.31 488.521 403.3 489.385 403.307 490.259C403.307 490.52 403.308 490.781 403.308 491.05C403.31 491.887 403.315 492.723 403.32 493.56C403.322 494.126 403.323 494.692 403.325 495.257C403.329 496.647 403.335 498.037 403.343 499.427C399.903 501.474 396.773 502.113 392.763 502.223C390.239 502.537 388.712 503.971 386.914 505.617C383.4 508.691 380.402 510.515 375.577 510.25C373.582 510.092 371.596 509.871 369.612 509.62C369.094 509.555 369.094 509.555 368.567 509.489C366.73 509.229 365.161 508.939 363.583 507.894C362.725 505.455 363.572 503.618 364.496 501.287C365.956 498.356 368.505 496.206 371.544 495.032C373.484 494.23 374.458 492.951 375.732 491.328C376.424 490.487 377.125 489.654 377.826 488.82C377.997 488.613 378.167 488.405 378.343 488.192C379.23 487.129 380.072 486.171 381.254 485.438C381.497 485.438 381.74 485.438 381.99 485.438C381.982 485.105 381.982 485.105 381.973 484.766C381.805 477.313 381.805 477.313 382.543 473.68C383.435 469.218 383.46 464.457 382.909 459.943C382.707 458.195 382.673 456.47 382.678 454.712C382.677 454.391 382.677 454.07 382.677 453.74C382.676 453.066 382.677 452.392 382.679 451.719C382.681 450.699 382.679 449.68 382.676 448.661C382.677 448.001 382.677 447.341 382.678 446.682C382.677 446.383 382.676 446.084 382.676 445.776C382.682 444.214 382.755 442.68 382.909 441.125C383.119 438.978 383.157 436.847 383.172 434.691C383.183 433.867 383.193 433.043 383.204 432.219C383.219 430.94 383.233 429.66 383.243 428.381C383.253 427.133 383.27 425.884 383.288 424.636C383.289 424.259 383.29 423.882 383.291 423.494C383.36 419.407 384.485 416.087 386.455 412.556C388.079 409.507 388.355 406.328 388.388 402.92C388.395 402.577 388.401 402.234 388.407 401.881C388.427 400.795 388.442 399.71 388.456 398.625C388.472 397.543 388.49 396.462 388.509 395.38C388.52 394.711 388.53 394.043 388.538 393.374C388.566 391.611 388.656 389.867 388.803 388.109C388.994 385.754 389.045 383.416 389.047 381.054C389.048 380.639 389.049 380.223 389.051 379.795C389.053 378.927 389.053 378.059 389.053 377.191C389.054 375.859 389.061 374.527 389.068 373.195C389.069 372.348 389.07 371.501 389.07 370.654C389.074 370.057 389.074 370.057 389.078 369.448C389.076 368.896 389.076 368.896 389.075 368.334C389.075 368.01 389.076 367.687 389.076 367.354C389.038 366.422 389.038 366.422 388.249 365.422C386.372 360.134 386.49 354.668 386.385 349.127C386.36 347.936 386.327 346.746 386.293 345.556C386.289 345.197 386.285 344.838 386.281 344.468C386.212 342.066 385.69 340.296 384.567 338.18C383.979 337.057 383.719 336.247 383.624 334.976C383.597 334.645 383.569 334.314 383.541 333.973C383.515 333.63 383.489 333.287 383.463 332.934C383.148 328.62 383.148 328.62 381.612 324.627C380.669 322.835 380.511 321.03 380.311 319.036C380.075 316.853 379.81 314.7 379.371 312.547C378.665 309.069 378.417 305.642 378.263 302.102C378.223 301.252 378.181 300.403 378.139 299.554C378.113 299.033 378.089 298.512 378.066 297.99C378.011 296.803 377.914 295.643 377.754 294.465C377.562 292.962 377.523 291.474 377.532 289.961C377.532 289.683 377.532 289.405 377.532 289.118C377.533 288.201 377.537 287.285 377.541 286.368C377.543 285.714 377.544 285.059 377.545 284.405C377.551 282.328 377.561 280.25 377.573 278.172C377.575 277.666 377.575 277.666 377.578 277.15C377.604 272.753 377.642 268.356 377.69 263.959C377.704 262.577 377.717 261.195 377.728 259.813C377.843 245.548 377.843 245.548 378.588 239.538C378.735 238.287 378.827 237.034 378.926 235.778C379.004 234.877 379.082 233.976 379.16 233.074C379.194 232.623 379.228 232.171 379.263 231.705C379.703 226.854 381.554 222.865 383.808 218.602C384.084 218.065 384.084 218.065 384.365 217.518C387.481 211.573 391.667 208.362 397.374 205.057C399.404 203.865 401.065 202.59 402.752 200.942C404.697 199.285 406.992 198.115 409.215 196.871C409.909 196.478 410.594 196.076 411.277 195.665C411.658 195.436 412.039 195.207 412.431 194.972C412.923 194.675 412.923 194.675 413.425 194.373C414.457 193.83 415.482 193.47 416.596 193.131C416.86 189.362 416.86 189.362 415.253 186.079C414.719 185.351 414.411 184.643 414.065 183.812C413.312 182.238 412.324 181.957 410.706 181.35C409.338 179.945 408.497 178.549 408.497 176.564C408.254 176.564 408.011 176.564 407.761 176.564C407.761 175.106 407.761 173.649 407.761 172.147C408.125 172.147 408.489 172.147 408.865 172.147C408.79 171.802 408.79 171.802 408.714 171.451C408.564 170.766 408.415 170.082 408.267 169.397C408.097 168.619 407.928 167.842 407.758 167.064C407.394 165.398 407.031 163.732 406.695 162.06C406.255 159.893 405.807 157.93 404.815 155.948C404.054 154.426 404.228 152.601 404.725 151.008C405.786 148.524 407.234 146.782 409.325 145.065C409.654 144.791 409.982 144.517 410.32 144.235C412.588 142.61 414.923 141.711 417.608 141.015C417.897 140.938 418.186 140.861 418.484 140.782C419.061 140.629 419.638 140.477 420.216 140.327C420.916 140.144 421.613 139.95 422.309 139.756C425.355 138.927 427.959 138.521 430.954 139.75Z" fill="#103255"/>
<path d="M307.86 138.855C308.375 139.036 308.886 139.231 309.39 139.44C310.389 139.822 311.389 140.015 312.435 140.234C314.937 140.857 316.681 141.791 318.171 143.935C318.549 144.565 318.915 145.202 319.268 145.845C319.719 146.646 320.2 147.335 320.764 148.057C324.157 152.806 322.734 159.369 321.983 164.784C322.428 164.955 322.428 164.955 322.881 165.13C323.824 165.521 323.824 165.521 324.192 165.889C324.276 166.993 324.227 168.096 324.192 169.202C324.19 169.466 324.189 169.731 324.187 170.003C324.061 172.453 323.262 175.096 321.615 176.933C319.975 177.115 319.975 177.115 318.302 177.301C317.938 180.946 317.938 180.946 317.566 184.664C318.173 184.664 318.781 184.664 319.406 184.664C320.192 185.485 320.192 185.485 320.925 186.574C321.169 186.928 321.413 187.283 321.664 187.648C322.1 188.324 322.516 189.012 322.904 189.716C323.935 191.282 325.357 191.63 327.138 192.027C329.08 192.223 331.031 192.261 332.982 192.323C339.058 192.525 346.465 194.106 351.135 198.265C351.792 198.986 352.357 199.689 352.908 200.494C353.052 200.694 353.196 200.893 353.344 201.098C354.737 203.141 355.346 205.193 355.922 207.581C356.013 207.935 356.104 208.288 356.197 208.653C357.245 212.825 357.801 216.966 358.075 221.256C358.105 221.709 358.136 222.163 358.168 222.63C358.265 224.064 358.359 225.498 358.453 226.932C358.548 228.372 358.644 229.813 358.742 231.254C358.802 232.146 358.861 233.038 358.919 233.931C359.052 235.934 359.224 237.903 359.534 239.886C360.511 250.365 359.788 260.937 359.1 271.407C359.005 272.86 358.916 274.314 358.832 275.768C358.321 284.575 357.442 293.044 355.396 301.636C355.076 303.011 354.803 304.391 354.548 305.78C354.071 307.886 352.838 309.794 351.803 311.674C351.676 311.911 351.549 312.147 351.419 312.391C351.026 313.116 350.623 313.834 350.216 314.55C350.099 314.766 349.982 314.981 349.861 315.203C348.964 316.731 347.97 317.606 346.559 318.683C345.415 319.681 344.88 320.233 344.5 321.713C344.419 323.116 344.449 324.468 344.532 325.871C344.55 326.371 344.566 326.872 344.581 327.373C344.629 328.769 344.714 330.161 344.808 331.554C344.828 331.86 344.847 332.165 344.867 332.48C344.989 334.155 345.244 335.795 345.545 337.444C345.614 337.836 345.683 338.228 345.754 338.632C346.518 343.618 346.518 343.618 347.754 348.489C347.789 349.44 347.805 350.382 347.803 351.333C347.803 351.764 347.803 351.764 347.804 352.203C347.804 352.817 347.803 353.43 347.802 354.043C347.8 354.946 347.802 355.848 347.804 356.75C347.805 358.319 347.791 359.887 347.769 361.455C347.758 362.152 347.75 362.848 347.744 363.545C347.67 369.789 346.812 375.708 345.614 381.829C345.368 383.115 345.125 384.401 344.881 385.688C344.722 386.531 344.561 387.375 344.401 388.219C343.862 391.056 343.347 393.895 342.863 396.741C342.802 397.092 342.741 397.443 342.678 397.804C341.744 403.394 341.964 408.015 343.854 413.351C344.784 416.026 345.256 418.811 345.751 421.594C345.862 422.205 345.98 422.816 346.103 423.425C346.644 426.157 346.856 428.866 347.017 431.643C347.227 435.252 347.227 435.252 347.568 438.85C348.019 442.853 348.193 446.827 348.222 450.854C348.225 451.114 348.227 451.373 348.229 451.64C348.248 454.062 348.259 456.484 348.262 458.906C348.264 460.247 348.273 461.588 348.286 462.929C348.29 463.434 348.29 463.938 348.289 464.443C348.197 468.08 348.197 468.08 349.962 471.081C350.596 471.676 351.24 472.259 351.895 472.829C353.149 474.061 353.897 474.809 353.92 476.603C353.819 477.51 353.819 477.51 353.644 478.444C353.594 478.786 353.543 479.128 353.491 479.48C353.339 480.386 353.193 481.252 352.908 482.125C352.665 482.247 352.422 482.368 352.171 482.493C352.743 484.545 353.412 486.079 354.633 487.831C355.864 489.702 356.283 490.966 355.853 493.169C355.541 494.419 355.174 495.636 354.748 496.851C354.505 496.851 354.262 496.851 354.012 496.851C353.914 497.069 353.816 497.287 353.715 497.512C353.267 498.34 352.811 498.873 352.141 499.53C351.919 499.75 351.697 499.969 351.469 500.195C351.238 500.42 351.006 500.645 350.768 500.877C350.541 501.101 350.314 501.325 350.08 501.556C349.634 501.995 349.187 502.433 348.739 502.871C348.197 503.404 347.66 503.944 347.125 504.484C344.162 507.412 339.673 511.011 335.306 511.047C334.546 510.981 333.787 510.912 333.028 510.84C332.471 510.843 331.915 510.851 331.358 510.863C326.934 510.9 326.934 510.9 325.5 509.749C324.04 507.569 323.765 505.55 323.778 502.971C323.777 502.693 323.775 502.415 323.774 502.129C323.776 500.688 323.839 499.362 324.192 497.955C317.735 497.811 312.833 499.259 306.832 501.575C301.094 503.767 293.788 504.821 287.884 502.672C286.104 501.837 284.24 500.884 283.328 499.06C283.241 497.482 283.208 496.356 284.065 495.01C284.664 494.586 284.664 494.586 285.376 494.245C285.637 494.116 285.899 493.986 286.168 493.852C286.584 493.651 286.584 493.651 287.01 493.446C289.268 492.306 291.239 491.112 293.166 489.455C294.334 488.475 295.593 487.65 296.866 486.815C299.889 484.454 301.405 479.993 301.94 476.295C301.991 473.741 301.523 471.453 300.877 468.994C300.453 466.878 300.544 464.761 300.631 462.613C300.874 462.613 301.117 462.613 301.367 462.613C302.284 455.841 302.931 449.846 300.191 443.463C296.633 434.69 295.807 424.491 295.018 415.155C294.841 413.055 294.578 411.004 294.189 408.933C294.093 408.409 293.997 407.885 293.901 407.362C293.741 406.487 293.58 405.613 293.419 404.738C293.278 403.778 293.231 402.885 293.245 401.916C293.249 401.628 293.252 401.34 293.255 401.044C293.26 400.831 293.264 400.617 293.268 400.397C293.025 400.397 292.782 400.397 292.532 400.397C292.447 400.165 292.362 399.934 292.274 399.695C291.676 398.124 291.078 396.665 290.139 395.266C289.002 393.54 288.405 391.668 287.746 389.721C287.557 389.214 287.365 388.707 287.171 388.202C286.312 385.909 285.571 383.644 285.031 381.253C284.525 379.177 283.734 377.526 282.592 375.731C282.247 375.187 281.902 374.642 281.557 374.098C281.325 373.745 281.325 373.745 281.089 373.386C280.751 372.786 280.751 372.786 280.751 372.05C280.508 372.05 280.265 372.05 280.015 372.05C278.027 367.701 277.145 363.213 276.303 358.54C276.236 358.169 276.236 358.169 276.168 357.791C276.045 357.109 275.926 356.426 275.807 355.743C275.699 354.782 275.699 354.782 275.229 354.379C275.153 353.778 275.101 353.175 275.058 352.571C275.03 352.185 275.001 351.798 274.972 351.401C274.943 350.979 274.914 350.558 274.884 350.124C274.837 349.476 274.837 349.476 274.789 348.815C274.689 347.425 274.591 346.036 274.493 344.646C274.395 343.268 274.296 341.891 274.196 340.513C274.135 339.655 274.074 338.796 274.013 337.938C273.932 336.791 273.846 335.645 273.757 334.499C273.729 334.146 273.702 333.792 273.674 333.428C273.632 332.936 273.632 332.936 273.589 332.435C273.564 332.148 273.54 331.862 273.516 331.567C273.318 330.405 272.774 329.688 272.031 328.793C271.031 327.53 270.134 326.305 269.339 324.904C268.585 323.609 267.764 322.468 266.808 321.315C262.344 315.895 262.344 315.895 262.344 313.883C262.101 313.883 261.858 313.883 261.608 313.883C261.526 313.686 261.445 313.488 261.36 313.285C260.645 311.709 259.954 310.342 258.726 309.111C254.436 304.615 254.265 299.023 253.718 293.095C253.592 291.687 253.592 291.687 253.311 290.304C249.537 274.444 254.893 253.824 257.076 237.906C257.502 234.793 257.913 231.678 258.306 228.56C258.674 225.683 259.19 222.849 259.767 220.006C259.864 219.52 259.96 219.034 260.056 218.548C260.325 217.193 260.598 215.838 260.871 214.484C260.994 213.863 261.117 213.241 261.24 212.62C261.299 212.331 261.358 212.042 261.419 211.744C261.558 211.053 261.686 210.359 261.808 209.665C262.95 203.621 265.33 196.191 270.075 192.027C273.102 190.193 276.547 190.283 279.969 190.186C284.045 190.071 287.695 189.844 291.427 187.977C292.286 187.963 293.146 187.962 294.004 187.977C294.004 185.104 293.042 183.54 291.358 181.24C290.755 180.341 290.566 179.793 290.323 178.774C289.406 178.297 289.406 178.297 288.482 178.038C288.482 177.795 288.482 177.552 288.482 177.301C287.996 177.301 287.51 177.301 287.01 177.301C286.258 176.058 286.187 175.113 286.202 173.672C286.204 173.261 286.206 172.851 286.209 172.428C286.218 171.788 286.218 171.788 286.227 171.135C286.231 170.703 286.234 170.27 286.237 169.825C286.246 168.758 286.258 167.692 286.273 166.625C286.638 166.625 287.002 166.625 287.378 166.625C287.276 166.425 287.174 166.226 287.069 166.02C286.935 165.756 286.802 165.493 286.665 165.222C286.532 164.961 286.4 164.7 286.263 164.432C284.547 160.826 284.819 154.795 286.091 151.082C287.637 147.384 289.878 144.33 293.61 142.668C294.453 142.292 295.247 141.859 296.052 141.407C296.327 141.253 296.601 141.1 296.883 140.941C297.635 140.516 298.386 140.088 299.136 139.659C301.684 138.202 304.988 138.238 307.86 138.855Z" fill="#103255"/>
<path d="M704.855 148.615C706.014 149.151 707.202 149.588 708.397 150.036C708.781 150.184 709.166 150.331 709.562 150.483C709.83 150.586 710.099 150.689 710.376 150.796C710.376 151.038 710.376 151.281 710.376 151.532C710.604 151.631 710.831 151.729 711.066 151.831C711.848 152.268 711.848 152.268 712.585 153.373C712.22 153.373 711.856 153.373 711.48 153.373C711.714 153.802 711.714 153.802 711.953 154.241C713.329 156.866 714.477 159.503 715.461 162.3C715.567 162.6 715.674 162.9 715.784 163.209C716.904 166.478 717.51 169.632 717.486 173.091C717.483 173.409 717.481 173.728 717.479 174.055C717.374 179.718 715.866 184.855 714.057 190.187C713.571 190.066 713.085 189.944 712.585 189.819C712.643 190.722 712.759 191.516 712.953 192.396C713.015 192.684 713.077 192.973 713.141 193.27C713.92 195.525 715.185 196.432 717.244 197.462C719.689 198.599 722.122 199.538 724.719 200.27C725.47 200.495 725.47 200.495 726.206 200.863C726.206 201.106 726.206 201.349 726.206 201.599C726.457 201.679 726.709 201.759 726.968 201.841C728.368 202.483 729.417 203.358 730.578 204.361C730.806 204.557 731.034 204.754 731.269 204.956C733.109 206.586 734.528 208.313 735.778 210.435C735.936 210.691 736.094 210.947 736.257 211.21C737.25 212.866 737.25 212.866 737.25 213.748C737.493 213.748 737.736 213.748 737.987 213.748C741.901 221.075 741.901 221.075 743.509 224.793C743.974 225.868 744.442 226.941 744.912 228.014C745.037 228.297 745.161 228.581 745.289 228.873C746.331 231.216 747.518 233.451 748.786 235.679C749.471 237.089 749.804 238.359 750.135 239.887C750.378 239.887 750.621 239.887 750.872 239.887C753.69 244.943 755.659 250.012 757.244 255.572C757.715 257.204 758.206 258.83 758.695 260.457C758.79 260.774 758.885 261.092 758.983 261.419C759.335 262.591 759.688 263.759 760.075 264.92C760.173 266.591 760.161 268.263 760.167 269.936C760.179 270.625 760.179 270.625 760.19 271.327C760.2 273.636 760.102 275.549 759.258 277.701C758.656 279.465 758.507 281.349 758.258 283.19C757.884 285.797 757.508 288.33 756.739 290.852C755.979 293.422 755.736 295.989 755.473 298.652C754.88 304.593 753.383 309.181 750.204 314.229C750.044 314.484 749.884 314.74 749.718 315.003C745.763 321.231 745.763 321.231 743.509 321.983C742.811 322.008 742.113 322.014 741.415 322.006C741.049 322.003 740.683 321.999 740.306 321.996C739.887 321.989 739.887 321.989 739.459 321.983C739.353 322.257 739.247 322.531 739.137 322.814C738.173 325.163 737.347 326.571 735.018 327.689C733.605 328.637 733.08 329.441 732.729 331.063C732.611 331.773 732.502 332.484 732.401 333.197C732.312 333.777 732.312 333.777 732.221 334.37C731.522 339.19 731.226 344.045 730.923 348.903C730.833 350.292 730.741 351.68 730.649 353.069C730.592 353.923 730.537 354.776 730.484 355.63C730.459 356.014 730.435 356.399 730.409 356.794C730.378 357.296 730.378 357.296 730.346 357.808C730.256 358.797 730.256 358.797 730.074 359.857C729.389 364.07 729.449 368.464 729.419 372.721C729.416 373.118 729.416 373.118 729.413 373.524C729.403 374.931 729.396 376.338 729.39 377.744C729.385 378.879 729.375 380.013 729.36 381.147C729.254 389.288 729.948 396.797 731.581 404.791C732.165 407.89 732.204 410.953 732.194 414.094C732.195 414.658 732.195 415.223 732.196 415.787C732.197 416.961 732.196 418.136 732.192 419.31C732.188 420.809 732.19 422.307 732.195 423.806C732.198 424.968 732.197 426.13 732.195 427.293C732.194 427.845 732.195 428.398 732.197 428.95C732.203 431.689 732.149 434.205 731.36 436.844C731.249 437.675 731.157 438.508 731.085 439.343C731.043 439.812 731 440.281 730.957 440.764C730.915 441.247 730.874 441.73 730.831 442.228C730.573 445.207 730.279 448.162 729.842 451.12C729.158 455.786 728.893 460.412 728.737 465.122C728.697 466.242 728.656 467.361 728.613 468.48C728.587 469.167 728.563 469.854 728.54 470.541C728.476 472.34 728.345 474.11 728.116 475.896C727.662 480.546 729.93 486.976 732.833 490.593C734.517 492.356 736.365 493.95 738.284 495.451C739.091 496.115 739.091 496.115 739.459 496.852C739.616 498.553 739.666 500.059 738.976 501.637C738.256 502.49 737.658 503.06 736.519 503.199C736.107 503.197 736.107 503.197 735.687 503.195C735.228 503.194 735.228 503.194 734.759 503.194C734.435 503.189 734.11 503.184 733.776 503.179C733.279 503.174 733.279 503.174 732.771 503.169C724.243 503.055 724.243 503.055 721.604 500.878C721.052 500.165 721.052 500.165 721.052 499.429C720.809 499.429 720.566 499.429 720.316 499.429C720.283 499.203 720.251 498.977 720.217 498.744C720.018 497.921 720.018 497.921 719.349 497.502C719.095 497.378 718.842 497.254 718.581 497.126C718.167 496.917 718.167 496.917 717.744 496.703C717.309 496.492 717.309 496.492 716.864 496.276C716.293 495.994 715.722 495.71 715.153 495.424C714.772 495.238 714.772 495.238 714.383 495.049C713.645 494.617 713.132 494.194 712.585 493.538C712.115 490.516 712.695 487.427 714.057 484.703C714.093 483.923 714.105 483.141 714.106 482.36C714.107 481.654 714.107 481.654 714.108 480.933C714.107 480.687 714.106 480.441 714.105 480.187C714.103 479.44 714.105 478.694 714.108 477.947C714.107 477.475 714.107 477.003 714.106 476.516C714.105 475.866 714.105 475.866 714.105 475.204C714.09 474.066 714.09 474.066 713.874 473.125C713.629 471.881 713.632 470.655 713.624 469.392C713.617 468.836 713.609 468.28 713.601 467.724C713.597 467.435 713.593 467.145 713.589 466.847C713.506 461.748 713.146 456.942 712.071 451.947C711.649 449.836 711.33 447.707 711.002 445.58C710.887 444.835 710.77 444.091 710.652 443.347C710.23 440.632 709.859 437.916 709.528 435.189C709.258 432.996 708.871 430.846 708.454 428.677C707.539 423.337 707.304 418.056 707.235 412.65C707.152 406.744 706.613 401.556 704.071 396.141C702.384 392.368 702.384 388.124 702.092 384.061C701.975 377.88 701.975 377.88 700.436 372.051C700.378 371.515 700.334 370.977 700.298 370.44C700.099 368.21 699.543 366.107 698.963 363.951C697.991 368.768 698.168 373.582 698.227 378.47C698.247 380.119 698.261 381.767 698.273 383.416C698.279 383.789 698.285 384.162 698.291 384.546C698.305 386.563 698.138 388.181 697.491 390.09C697.364 390.67 697.245 391.253 697.137 391.837C696.884 393.148 696.598 394.443 696.28 395.74C694.983 401.182 694.701 406.235 694.914 411.81C694.935 412.576 694.956 413.342 694.977 414.108C695.106 418.298 695.425 422.437 695.903 426.599C696.145 428.785 696.357 430.974 696.57 433.163C696.594 433.407 696.618 433.651 696.643 433.902C696.978 437.357 697.267 440.813 697.514 444.276C697.726 447.247 697.948 450.215 698.227 453.18C698.266 453.627 698.266 453.627 698.306 454.082C698.454 455.584 698.723 456.82 699.331 458.196C699.51 458.892 699.679 459.59 699.838 460.29C700.198 461.792 700.634 463.174 701.241 464.593C701.807 465.957 702.193 467.01 701.908 468.504C701.521 468.835 701.521 468.835 701.126 469.172C700.898 469.437 700.671 469.703 700.436 469.977C700.49 470.693 700.49 470.693 700.718 471.478C700.791 471.774 700.865 472.07 700.941 472.375C701.017 472.677 701.094 472.979 701.172 473.29C701.289 473.838 701.403 474.385 701.514 474.934C701.572 475.206 701.629 475.477 701.688 475.757C701.804 476.304 701.917 476.852 702.028 477.4C702.353 478.918 702.778 480.251 703.421 481.666C704.347 483.9 704.31 486.018 704.255 488.407C704.25 488.843 704.244 489.278 704.238 489.727C704.049 499.49 704.049 499.49 701.908 501.637C699.286 503.67 695.328 502.892 692.206 502.53C691.543 502.443 690.881 502.352 690.22 502.259C689.904 502.215 689.589 502.172 689.263 502.128C686.346 501.672 686.346 501.672 685.342 500.533C684.691 498.369 685.524 496.051 686.17 493.975C688.261 487.247 688.922 480.69 689.023 473.658C688.594 473.495 688.594 473.495 688.156 473.329C687.006 472.848 686.448 472.458 685.71 471.45C685.566 470.178 685.566 470.178 685.618 468.781C685.631 468.315 685.645 467.85 685.658 467.371C685.675 467.016 685.692 466.661 685.71 466.296C685.467 466.296 685.224 466.296 684.974 466.296C684.276 463.96 683.739 461.63 683.317 459.232C683.008 457.502 682.677 455.864 681.985 454.243C681.398 452.738 680.968 451.176 680.515 449.626C680.074 448.163 679.509 446.976 678.715 445.679C678.443 444.792 678.443 444.792 678.232 443.816C677.902 442.389 677.535 440.99 677.089 439.595C675.779 435.492 674.912 431.499 674.406 427.22C674.304 426.454 674.304 426.454 673.929 425.431C673.915 424.573 673.913 423.713 673.929 422.854C673.686 422.854 673.443 422.854 673.193 422.854C673.144 422.544 673.095 422.234 673.045 421.914C672.947 421.309 672.947 421.309 672.848 420.692C672.784 420.29 672.72 419.889 672.654 419.475C672.51 418.459 672.51 418.459 672.089 417.7C671.832 415.819 671.684 413.924 671.524 412.032C671.498 411.736 671.473 411.44 671.448 411.135C671.002 405.696 670.874 400.271 670.848 394.815C670.846 394.419 670.844 394.022 670.841 393.614C670.827 390.346 670.823 387.078 670.823 383.81C670.824 381.339 670.819 378.869 670.806 376.398C670.802 375.254 670.806 374.11 670.811 372.965C670.807 372.273 670.804 371.58 670.8 370.888C670.803 370.572 670.807 370.257 670.81 369.932C670.814 368.249 670.814 368.249 669.913 366.898C669.155 366.534 668.414 366.197 667.625 365.907C665.745 365.176 663.886 364.405 662.034 363.606C661.748 363.487 661.462 363.368 661.167 363.245C658.982 362.294 657.599 361.176 656.258 359.165C656.103 358.286 655.968 357.404 655.844 356.519C655.54 354.558 655.124 353.091 654.043 351.392C651.686 347.646 651.896 343.595 651.951 339.311C651.974 336.752 651.989 334.587 650.742 332.275C650.108 331.053 649.87 329.741 649.586 328.402C649.47 327.88 649.354 327.358 649.238 326.836C649.182 326.578 649.126 326.319 649.069 326.053C648.907 325.345 648.709 324.646 648.509 323.949C647.954 321.757 647.906 319.491 647.768 317.243C647.712 316.346 647.654 315.45 647.594 314.554C647.57 314.16 647.546 313.766 647.521 313.36C647.48 312.417 647.48 312.417 647.055 311.675C646.919 310.531 646.807 309.393 646.71 308.246C646.679 307.881 646.648 307.516 646.616 307.14C646.022 299.812 645.535 292.43 645.49 285.076C645.487 284.795 645.483 284.514 645.48 284.224C645.49 282.396 645.685 280.625 645.922 278.812C646.532 274.022 646.655 269.189 646.871 264.368C647.736 245.27 647.736 245.27 649.31 236.872C649.365 236.571 649.42 236.27 649.477 235.959C650.487 230.445 651.811 225.068 653.365 219.681C653.653 218.637 653.903 217.595 654.134 216.537C655.244 211.596 657.64 208.604 661.871 205.753C663.493 204.568 664.31 203.303 665.186 201.507C666.347 199.283 667.651 197.731 669.512 196.077C671.282 194.387 671.751 192.973 672.089 190.555C671.481 190.555 670.874 190.555 670.248 190.555C670.041 189.842 670.041 189.842 669.88 189.083C670.001 188.961 670.123 188.84 670.248 188.714C670.41 186.932 670.293 185.711 669.581 184.067C668.028 180.465 666.638 175.489 667.977 171.635C668.23 171.094 668.493 170.559 668.767 170.03C669.419 168.598 669.635 167.067 669.88 165.521C669.394 165.521 668.908 165.521 668.407 165.521C669.35 160.273 672.004 155.161 676.433 152.031C677.422 151.421 678.422 150.878 679.48 150.399C680.222 150.062 680.222 150.062 680.986 149.539C682.387 148.754 683.84 148.294 685.365 147.804C685.66 147.707 685.956 147.61 686.26 147.51C692.593 145.439 698.839 145.752 704.855 148.615Z" fill="#103255"/>
<path d="M790.631 299.525C790.753 299.525 790.874 299.525 790.999 299.525C790.974 301.661 790.942 303.797 790.903 305.933C790.89 306.66 790.88 307.387 790.872 308.114C790.859 309.158 790.84 310.202 790.82 311.245C790.816 311.735 790.816 311.735 790.812 312.234C790.805 312.536 790.798 312.838 790.79 313.15C790.784 313.549 790.784 313.549 790.778 313.957C790.631 314.619 790.631 314.619 789.527 315.355C788.399 315.332 788.399 315.332 787.318 314.987C786.202 313.415 786.397 311.306 786.582 309.465C787.221 305.722 788.196 302.541 790.631 299.525Z" fill="white"/>
<path d="M1.00024 470.436C24.0292 409.967 86.6152 301.496 159.94 337.306C210.002 361.755 171.737 415.626 118.002 386.755C64.2673 357.884 80.0463 254.645 198.986 264.635M198.986 264.635L183.019 282.733M198.986 264.635L174.314 244" stroke="#103255" stroke-width="2" stroke-linecap="round"/>
<path d="M389.553 1C391.803 18.4165 409.203 51.1 460.803 42.5C512.403 33.9 532.638 75.0835 536.303 96.75M536.303 96.75L524.553 87.75M536.303 96.75L541.053 83.75" stroke="#103255" stroke-width="2" stroke-linecap="round"/>
<path d="M1032.05 115C1038.39 155.5 1026.95 236.5 930.553 236.5M930.553 236.5L955.553 200M930.553 236.5L961.553 261" stroke="#103255" stroke-width="2" stroke-linecap="round"/>
<defs>
<filter id="filter0_f_23_113" x="205.21" y="477.692" width="672.478" height="67.9881" filterUnits="userSpaceOnUse" color-interpolation-filters="sRGB">
<feFlood flood-opacity="0" result="BackgroundImageFix"/>
<feBlend mode="normal" in="SourceGraphic" in2="BackgroundImageFix" result="shape"/>
<feGaussianBlur stdDeviation="11.4436" result="effect1_foregroundBlur_23_113"/>
</filter>
</defs>
</svg>
