<svg width="141" height="141" viewBox="0 0 141 141" fill="none" xmlns="http://www.w3.org/2000/svg">
<g clip-path="url(#clip0_54_584)">
<path d="M115.572 42.3898C117.368 42.3739 119.164 42.3621 120.96 42.3535C121.597 42.3498 122.235 42.3447 122.873 42.3381C123.728 42.3294 124.582 42.3258 125.437 42.3235C125.682 42.3198 125.927 42.3161 126.179 42.3123C127.952 42.316 129.058 42.7182 130.467 43.8388C131.901 45.6317 131.716 47.9289 131.709 50.1176C131.71 50.4461 131.711 50.7746 131.712 51.113C131.714 52.0201 131.714 52.9272 131.713 53.8343C131.712 54.8144 131.715 55.7945 131.717 56.7747C131.72 58.6929 131.721 60.6112 131.72 62.5295C131.72 64.089 131.72 65.6485 131.721 67.208C131.722 67.4301 131.722 67.6523 131.722 67.8812C131.722 68.3326 131.723 68.7839 131.723 69.2353C131.726 73.4656 131.725 77.6958 131.724 81.9261C131.722 85.794 131.725 89.6619 131.73 93.5299C131.736 97.5042 131.738 101.479 131.737 105.453C131.737 107.683 131.737 109.913 131.741 112.143C131.744 114.042 131.745 115.94 131.741 117.839C131.74 118.807 131.74 119.775 131.743 120.743C131.746 121.793 131.743 122.844 131.74 123.894C131.742 124.199 131.744 124.503 131.746 124.816C131.733 126.645 131.697 128.72 130.411 130.155C129.164 131.223 128.431 131.396 126.823 131.399C126.635 131.4 126.447 131.4 126.254 131.401C125.613 131.403 124.972 131.403 124.331 131.402C123.863 131.403 123.394 131.404 122.925 131.404C121.609 131.406 120.293 131.405 118.977 131.404C118.121 131.403 117.266 131.403 116.411 131.403C98.5842 131.395 80.7578 131.194 62.9319 131.016C59.2132 130.979 55.4946 130.944 51.7759 130.909C47.3925 130.868 43.0091 130.826 38.6257 130.783C38.1593 130.779 37.6929 130.774 37.2264 130.77C36.9972 130.767 36.7681 130.765 36.5319 130.763C34.9316 130.747 33.3314 130.732 31.7311 130.717C29.7938 130.699 27.8565 130.68 25.9192 130.661C24.9353 130.65 23.9514 130.641 22.9675 130.632C21.8992 130.623 20.831 130.611 19.7628 130.6C19.457 130.597 19.1511 130.595 18.836 130.592C17.3228 130.575 15.8138 130.526 14.3031 130.435C14.0145 130.418 13.7259 130.401 13.4286 130.383C12.2645 130.194 11.7844 129.758 11.0158 128.883C10.6053 128.062 10.6981 127.222 10.6969 126.321C10.6955 126.111 10.6942 125.901 10.6928 125.685C10.6885 124.976 10.6862 124.266 10.6839 123.557C10.6813 123.049 10.6785 122.541 10.6756 122.033C10.6682 120.642 10.6624 119.25 10.6569 117.858C10.6508 116.376 10.6433 114.893 10.636 113.411C10.6237 110.893 10.6125 108.376 10.602 105.858C10.5915 103.331 10.5801 100.804 10.5676 98.2769C10.5653 97.8206 10.5653 97.8206 10.5631 97.3552C10.5616 97.0515 10.5601 96.7478 10.5585 96.4349C10.5298 90.5948 10.5057 84.7548 10.4879 78.9147C10.4764 75.1463 10.46 71.3781 10.4362 67.6098C10.4206 65.1154 10.4088 62.621 10.3999 60.1266C10.3945 58.658 10.3871 57.1895 10.375 55.721C10.3639 54.3633 10.3578 53.0056 10.3558 51.6478C10.3541 51.1523 10.3505 50.6568 10.3449 50.1614C10.3375 49.486 10.337 48.8109 10.3381 48.1355C10.3343 47.9406 10.3305 47.7457 10.3267 47.5449C10.3395 46.1665 10.6973 45.3949 11.5666 44.338C12.4157 43.5726 13.006 43.3942 14.1401 43.3265C14.4341 43.3088 14.728 43.291 15.0308 43.2728C16.6743 43.2093 18.3162 43.183 19.9608 43.1719C20.354 43.1684 20.7473 43.1647 21.1405 43.161C22.2127 43.1511 23.2849 43.1427 24.3571 43.1346C25.5175 43.1255 26.6778 43.115 27.8382 43.1047C30.1113 43.0848 32.3845 43.0662 34.6576 43.048C37.3192 43.0266 39.9807 43.004 42.6422 42.9813C47.4079 42.9407 52.1735 42.9014 56.9391 42.8626C61.5299 42.8253 66.1208 42.7872 70.7116 42.7481C70.9927 42.7457 71.2738 42.7433 71.5634 42.7408C71.9844 42.7372 71.9844 42.7372 72.4139 42.7336C77.6737 42.6888 82.9334 42.6448 88.1931 42.6012C89.7741 42.588 91.3551 42.5748 92.9361 42.5614C98.4306 42.5148 103.925 42.4703 109.42 42.4352C111.47 42.4221 113.521 42.4079 115.572 42.3898ZM13.4944 45.9903C12.9033 46.8769 12.8749 47.103 12.8758 48.1224C12.8747 48.3926 12.8736 48.6629 12.8725 48.9413C12.8741 49.2389 12.8757 49.5366 12.8773 49.8432C12.8769 50.1588 12.8764 50.4744 12.8759 50.7995C12.8752 51.6768 12.8769 52.5541 12.8796 53.4314C12.882 54.377 12.8812 55.3225 12.8808 56.2681C12.8805 57.9068 12.8822 59.5455 12.8853 61.1842C12.8898 63.5534 12.8912 65.9227 12.8919 68.292C12.8931 72.1358 12.8968 75.9797 12.902 79.8235C12.9071 83.5578 12.911 87.2922 12.9133 91.0266C12.9135 91.2567 12.9136 91.4868 12.9138 91.7238C12.9145 92.8782 12.9152 94.0326 12.9159 95.1869C12.9216 104.767 12.9313 114.346 12.9436 123.926C13.2039 123.712 13.4642 123.499 13.7324 123.279C13.9521 123.099 13.9521 123.099 14.1762 122.916C14.7772 122.391 15.2558 121.798 15.7491 121.172C16.6662 120.024 17.5995 118.897 18.5547 117.781C19.6016 116.554 20.6121 115.304 21.6012 114.029C22.6279 112.706 23.6876 111.421 24.7854 110.156C26.0015 108.754 27.1675 107.323 28.3063 105.858C29.2732 104.614 30.2608 103.39 31.2571 102.17C32.7635 100.323 34.2435 98.4579 35.7102 96.5796C36.0734 96.1152 36.4378 95.6516 36.8025 95.1884C36.9842 94.9576 36.9842 94.9576 37.1695 94.7221C37.4157 94.4095 37.6624 94.0971 37.9093 93.7851C38.6477 92.8493 39.3715 91.9044 40.0857 90.95C40.2544 90.7269 40.4231 90.5039 40.5969 90.2741C40.9257 89.839 41.2518 89.4018 41.5749 88.9623C42.7601 87.4022 43.8291 86.5506 45.7151 85.9219C47.6557 85.7083 49.3272 85.8885 50.9475 87.0235C52.7481 88.7301 54.2836 90.6802 55.8367 92.6098C56.4796 93.3869 57.1493 94.1302 57.8322 94.8721C58.7392 95.8575 59.6076 96.8592 60.4485 97.9014C61.5263 99.2372 62.6626 100.506 63.8263 101.768C64.3275 102.32 64.803 102.879 65.2678 103.461C65.5404 103.776 65.5404 103.776 65.8186 104.098C66.3839 104.162 66.3839 104.162 66.7093 103.761C66.9159 103.51 66.9159 103.51 67.1267 103.254C68.1111 102.093 69.145 100.987 70.1904 99.8808C71.5313 98.456 72.8019 97.0009 74.0233 95.4713C74.7026 94.6477 75.4187 93.8633 76.1457 93.0821C77.3176 91.821 78.4241 90.5229 79.5042 89.1814C80.1962 88.33 80.9062 87.496 81.6191 86.6621C82.8046 85.2715 83.9402 83.8483 85.0614 82.4055C86.0378 81.1544 87.0533 79.9421 88.0872 78.7382C89.1743 77.4653 90.2044 76.1515 91.2121 74.8149C92.3554 73.3252 93.433 72.3129 95.2854 71.877C97.3476 71.7107 98.9995 72.0851 100.638 73.3917C101.683 74.3493 102.541 75.4545 103.422 76.5608C104.124 77.4167 104.858 78.2284 105.613 79.0372C106.563 80.0584 107.476 81.0985 108.349 82.187C109.276 83.3394 110.248 84.4302 111.258 85.5089C112.492 86.8261 113.65 88.1824 114.78 89.5902C115.419 90.3647 116.086 91.1042 116.766 91.8428C117.871 93.0453 118.912 94.2843 119.937 95.5552C120.899 96.7241 121.896 97.8604 122.892 99.0001C123.975 100.243 125.012 101.511 126.022 102.814C126.148 102.965 126.274 103.116 126.405 103.272C126.495 103.272 126.586 103.272 126.68 103.272C126.727 97.8383 126.773 92.4051 126.818 86.9719C126.82 86.6712 126.82 86.6712 126.823 86.3644C126.93 73.1814 126.986 59.9999 126.955 46.8165C110.682 46.594 94.4081 46.4335 78.1338 46.294C77.7858 46.291 77.4379 46.2881 77.0794 46.285C76.7311 46.282 76.3828 46.279 76.0239 46.2759C73.57 46.2548 71.1161 46.2329 68.6622 46.2105C59.1773 46.1242 49.6924 46.0478 40.2072 45.9903C39.8764 45.9883 39.5455 45.9862 39.2046 45.9841C35.013 45.9584 30.8215 45.9384 26.6298 45.9278C25.4472 45.9247 24.2647 45.9198 23.0821 45.9131C21.7197 45.9056 20.3574 45.9021 18.995 45.9017C18.4987 45.9009 18.0025 45.8988 17.5063 45.8951C16.8344 45.8904 16.1628 45.8907 15.4909 45.8924C15.2943 45.8898 15.0977 45.8873 14.8952 45.8846C14.3 45.8799 14.3 45.8799 13.4944 45.9903ZM92.0667 76.9373C91.925 77.1057 91.7832 77.2741 91.6372 77.4476C90.3988 78.9283 89.2062 80.4444 88.0219 81.9686C86.9801 83.307 85.901 84.6147 84.8205 85.9219C85.581 86.8288 86.3412 87.718 87.1786 88.5554C87.9177 89.2945 88.5672 90.0687 89.2268 90.879C89.9781 90.5263 90.6133 90.1408 91.2599 89.6214C91.4279 89.4878 91.5958 89.3541 91.7688 89.2164C92.027 89.0085 92.027 89.0085 92.2905 88.7963C94.5566 86.9802 94.5566 86.9802 96.0427 86.9374C96.2742 86.9272 96.5056 86.9169 96.7441 86.9062C98.6803 87.2112 99.8577 88.8505 101.053 90.2604C101.817 91.1325 102.427 91.6524 103.547 91.9805C104.495 91.0491 105.402 90.0985 106.267 89.0889C106.487 88.8362 106.708 88.5834 106.936 88.323C107.473 87.6273 107.473 87.6273 107.347 86.915C107.102 86.1163 106.787 85.6372 106.272 84.9817C106.094 84.7519 105.915 84.522 105.732 84.2851C105.539 84.0414 105.346 83.7978 105.148 83.5467C104.745 83.0303 104.343 82.5136 103.942 81.9966C103.738 81.7345 103.534 81.4725 103.324 81.2025C102.746 80.4468 102.184 79.682 101.629 78.9092C101.459 78.6728 101.289 78.4364 101.113 78.1929C100.793 77.7453 100.474 77.2963 100.158 76.8457C99.2868 75.6356 98.5371 74.7862 97.2131 74.0801C94.7993 73.7353 93.4867 75.2195 92.0667 76.9373ZM40.2072 94.1837C39.9811 94.4563 39.755 94.7289 39.522 95.0098C38.9205 95.7412 38.3242 96.4766 37.7287 97.213C37.4108 97.599 37.4108 97.599 37.0865 97.9929C36.8838 98.241 36.6811 98.4892 36.4723 98.7448C36.2902 98.9667 36.108 99.1886 35.9204 99.4172C35.4721 99.9286 35.4721 99.9286 35.5256 100.518C35.9443 100.93 35.9443 100.93 36.4895 101.361C37.7664 102.442 38.8482 103.653 39.9319 104.924C40.6823 104.572 41.3126 104.189 41.9553 103.666C42.122 103.533 42.2887 103.399 42.4604 103.261C42.8069 102.98 43.1533 102.699 43.4996 102.418C43.6659 102.285 43.8322 102.151 44.0036 102.014C44.1537 101.892 44.3039 101.77 44.4587 101.644C45.4767 100.933 46.7221 100.884 47.9182 101.068C49.5605 101.808 50.7081 103.317 51.9038 104.622C52.0795 104.805 52.2553 104.989 52.4363 105.178C52.5934 105.347 52.7505 105.516 52.9123 105.691C53.4212 106.093 53.4212 106.093 54.1221 105.996C54.8813 105.722 55.1674 105.48 55.67 104.858C55.8159 104.678 55.9618 104.497 56.1121 104.311C56.3331 104.027 56.3331 104.027 56.5586 103.736C56.7123 103.55 56.866 103.363 57.0244 103.171C57.1681 102.989 57.3119 102.808 57.46 102.621C57.5912 102.455 57.7223 102.29 57.8574 102.119C58.1619 101.626 58.1619 101.626 58.0381 101.047C57.7439 100.29 57.2962 99.7316 56.7995 99.0891C56.6916 98.9483 56.5836 98.8075 56.4724 98.6625C56.2324 98.3496 55.9915 98.0373 55.75 97.7256C55.3276 97.1792 54.9085 96.6305 54.4899 96.0813C53.8824 95.2842 53.2735 94.4882 52.6633 93.6931C52.0929 92.9496 51.5256 92.2039 50.9615 91.4556C50.8365 91.2907 50.7115 91.1257 50.5827 90.9558C50.2467 90.5123 49.9118 90.068 49.577 89.6236C49.0024 88.9303 48.5455 88.4789 47.6482 88.2789C44.2615 88.0931 42.1636 91.822 40.2072 94.1837ZM95.4736 89.7537C95.2695 90.0001 95.0654 90.2465 94.8551 90.5003C94.6502 90.7424 94.4454 90.9845 94.2344 91.234C94.0359 91.4803 93.8375 91.7267 93.633 91.9805C93.4261 92.2269 93.2191 92.4733 93.0059 92.7271C92.4763 93.2993 92.4763 93.2993 92.5315 93.9083C92.167 94.0972 91.7991 94.2795 91.4299 94.4591C91.1317 94.6209 91.1317 94.6209 90.8275 94.7861C89.4203 95.1926 88.1994 95.0188 86.8698 94.4139C85.0734 93.3912 83.6266 92.1412 82.3937 90.4831C82.2318 90.2701 82.2318 90.2701 82.0666 90.0528C81.8849 90.0528 81.7031 90.0528 81.5158 90.0528C81.0224 90.6564 80.5611 91.2636 80.1045 91.8945C79.8054 92.3013 79.5059 92.708 79.2062 93.1144C79.0456 93.3326 78.885 93.5508 78.7196 93.7757C78.1996 94.4746 77.6709 95.1658 77.1386 95.8554C74.8565 98.8122 72.6837 101.817 70.6031 104.918C70.0328 105.757 69.4415 106.58 68.8479 107.402C70.0012 109.004 71.2513 110.498 72.5402 111.99C73.5808 113.196 74.5988 114.418 75.6025 115.654C76.131 116.303 76.6625 116.949 77.1967 117.593C78.9097 119.659 80.6016 121.737 82.2377 123.865C82.3421 123.997 82.4466 124.129 82.5542 124.265C82.8928 124.752 82.8928 124.752 83.2507 125.462C83.7099 126.293 84.1039 126.879 84.8205 127.506C86.2427 127.856 87.6081 127.779 89.0547 127.695C89.4362 127.684 89.8177 127.674 90.1993 127.665C92.0886 127.611 93.9619 127.474 95.8362 127.231C95.6322 126.931 95.6322 126.931 95.4241 126.626C95.2477 126.36 95.0713 126.093 94.8895 125.819C94.7138 125.557 94.5381 125.295 94.357 125.025C93.8937 124.174 93.7339 123.506 93.633 122.549C94.201 122.428 94.201 122.428 95.01 122.549C95.9957 123.272 96.7605 124.129 97.3153 125.218C97.7694 126.083 98.0938 126.621 98.8655 127.231C100.49 127.578 102.184 127.387 103.822 127.231C103.081 126.094 102.298 125.016 101.464 123.943C99.4162 121.228 99.4162 121.228 99.4162 119.52C100.599 119.648 101.255 120.398 102.05 121.206C102.196 121.35 102.342 121.493 102.493 121.641C103.293 122.453 103.948 123.255 104.528 124.238C105.629 126.253 105.629 126.253 107.494 127.412C109.044 127.587 110.545 127.446 112.084 127.231C111.984 127.114 111.883 126.998 111.78 126.878C104.924 118.913 104.924 118.913 104.924 116.49C107.097 117.483 108.649 119.377 110.156 121.172C110.401 121.455 110.647 121.738 110.892 122.021C111.158 122.329 111.423 122.637 111.688 122.945C111.888 123.174 111.888 123.174 112.092 123.409C112.856 124.302 113.423 125.163 113.96 126.215C114.295 126.823 114.295 126.823 114.838 127.231C116.52 127.542 118.296 127.594 119.795 126.68C119.612 126.486 119.428 126.292 119.239 126.092C117.274 123.995 115.484 121.8 113.737 119.52C113.479 119.186 113.221 118.852 112.963 118.518C112.301 117.66 111.64 116.801 110.983 115.94C110.822 115.74 110.661 115.54 110.495 115.335C110.053 114.686 110.092 114.229 110.156 113.461C111.652 113.868 112.52 114.895 113.564 115.974C113.749 116.162 113.935 116.351 114.125 116.545C115.327 117.776 116.49 119.025 117.592 120.346C117.826 120.617 118.06 120.887 118.301 121.167C118.493 121.391 118.493 121.391 118.69 121.619C118.956 121.928 119.222 122.237 119.49 122.544C120.335 123.532 120.991 124.543 121.654 125.664C122.117 126.389 122.117 126.389 122.824 126.955C123.594 127.05 124.203 127.08 124.963 127.036C125.155 127.03 125.347 127.024 125.544 127.018C126.015 127.003 126.485 126.98 126.955 126.955C126.974 124.959 126.989 122.962 126.998 120.966C127.002 120.039 127.008 119.112 127.018 118.185C127.028 117.119 127.032 116.053 127.036 114.987C127.04 114.654 127.045 114.321 127.049 113.978C127.049 113.669 127.049 113.361 127.049 113.043C127.052 112.635 127.052 112.635 127.055 112.218C126.938 111.415 126.756 111.199 126.129 110.707C125.942 110.557 125.755 110.406 125.562 110.251C125.346 110.083 125.13 109.916 124.907 109.743C117.566 103.889 117.566 103.889 117.041 100.518C117.223 100.518 117.405 100.518 117.592 100.518C117.152 99.5316 116.554 98.7487 115.888 97.9014C114.588 96.2354 113.316 94.55 112.05 92.8583C111.864 92.6098 111.678 92.3614 111.486 92.1053C111.043 91.5131 110.599 90.9207 110.156 90.3282C109.031 90.559 108.46 91.0499 107.592 91.8084C106.168 92.9994 105.118 93.7625 103.254 94.0288C101.293 93.7366 99.984 92.0358 98.7036 90.6472C98.1008 90.0179 97.5763 89.5411 96.7764 89.1847C96.0595 89.1646 96.0595 89.1646 95.4736 89.7537ZM46.2422 103.816C46.0341 104.057 45.8261 104.297 45.6118 104.545C45.2854 104.921 45.2854 104.921 44.9524 105.305C44.6483 105.661 44.6483 105.661 44.3381 106.025C44.1837 106.201 44.0293 106.376 43.8702 106.557C43.1701 107.287 43.1701 107.287 42.9612 108.229C42.7453 108.314 42.5295 108.399 42.3071 108.487C41.6053 108.76 41.6053 108.76 41.0334 109.055C38.8874 109.24 37.5943 108.734 35.9247 107.386C34.6667 106.281 33.5173 105.15 32.4963 103.822C31.4894 104.792 30.6093 105.81 29.7596 106.92C28.5864 108.434 27.3848 109.921 26.1623 111.396C24.8583 112.97 23.5749 114.558 22.3175 116.17C21.4177 117.324 20.5048 118.466 19.5874 119.606C17.9122 121.69 16.2835 123.81 14.6711 125.943C14.3868 126.317 14.0968 126.687 13.8052 127.055C13.4422 127.49 13.4422 127.49 13.4944 128.057C26.6741 128.087 39.8529 128.083 53.0321 127.945C53.8577 127.936 54.6832 127.928 55.5088 127.92C63.2613 127.841 71.0113 127.694 78.7619 127.506C78.0879 126.346 77.3064 125.359 76.4211 124.356C74.8935 122.599 73.4411 120.795 72.0163 118.953C71.5628 118.368 71.1075 117.783 70.6519 117.199C69.6815 115.955 68.7135 114.708 67.7463 113.461C67.6232 113.302 67.5001 113.144 67.3733 112.981C65.1679 110.138 63.0158 107.255 60.8615 104.373C59.7704 104.785 59.0169 105.251 58.1248 106.008C56.4813 107.348 55.3397 108.149 53.1506 107.953C52.2384 107.747 52.2384 107.747 51.4983 107.402C51.3896 107.168 51.3896 107.168 51.2788 106.929C50.7984 106.018 50.0658 105.4 49.3123 104.717C49.1641 104.578 49.0159 104.438 48.8632 104.295C47.6166 103.099 47.6165 103.099 46.2422 103.816Z" fill="#103255"/>
<path d="M76.5747 1.73088C78.4964 3.21458 79.4541 5.36785 79.8632 7.71094C79.9415 8.83729 79.9487 9.9331 79.5878 11.0156C79.817 11.0852 80.0462 11.1548 80.2823 11.2265C81.3543 11.6069 82.3359 12.0822 83.3475 12.5981C83.6482 12.7495 83.6482 12.7495 83.9549 12.9041C84.3831 13.1199 84.8111 13.3362 85.2389 13.5529C86.3648 14.1231 87.4929 14.689 88.6208 15.2551C88.8431 15.3668 89.0654 15.4784 89.2944 15.5934C92.7134 17.3082 96.173 18.9357 99.6354 20.5607C100.222 20.8362 100.809 21.1118 101.396 21.3874C101.797 21.5756 102.198 21.7638 102.599 21.9519C105.767 23.4386 108.918 24.9558 112.064 26.4892C115.654 28.2384 119.269 29.9286 122.899 31.5928C123.44 31.8464 123.973 32.1159 124.5 32.3951C125.232 32.7383 125.66 32.8769 126.452 32.8931C126.656 32.8999 126.86 32.9067 127.071 32.9137C127.282 32.9179 127.494 32.9221 127.712 32.9264C131.822 33.0937 135.331 33.8697 138.254 37.0261C140.706 40.1969 141.084 43.5293 141.072 47.414C141.073 47.7709 141.074 48.1278 141.075 48.4955C141.078 49.4793 141.077 50.4631 141.076 51.4469C141.075 52.5105 141.078 53.5742 141.08 54.6379C141.083 56.7189 141.084 58.7999 141.083 60.8809C141.083 62.5727 141.083 64.2645 141.084 65.9564C141.085 66.1975 141.085 66.4386 141.085 66.687C141.085 67.1769 141.086 67.6668 141.086 68.1567C141.089 72.7464 141.088 77.3362 141.087 81.9259C141.085 86.1222 141.088 90.3184 141.093 94.5147C141.099 98.8273 141.101 103.14 141.1 107.453C141.1 109.872 141.1 112.292 141.104 114.712C141.107 116.771 141.108 118.83 141.104 120.89C141.103 121.94 141.103 122.99 141.106 124.04C141.109 125.18 141.106 126.319 141.103 127.459C141.105 127.789 141.107 128.119 141.109 128.458C141.086 132.01 140.078 134.996 137.626 137.626C134.265 140.779 130.602 141.051 126.216 141.004C125.833 141.001 125.45 140.998 125.067 140.995C124.018 140.986 122.968 140.976 121.919 140.966C120.785 140.955 119.65 140.946 118.516 140.937C116.289 140.918 114.063 140.898 111.836 140.877C109.221 140.853 106.606 140.831 103.99 140.808C99.2963 140.767 94.6021 140.726 89.908 140.683C85.4062 140.642 80.9044 140.602 76.4025 140.563C76.1283 140.56 75.854 140.558 75.5715 140.555C74.4673 140.546 73.3632 140.536 72.259 140.527C67.6484 140.487 63.0379 140.446 58.4274 140.405C57.3962 140.396 56.365 140.387 55.3338 140.378C53.8418 140.365 52.3497 140.351 50.8576 140.338C50.6145 140.336 50.3715 140.334 50.121 140.332C47.4823 140.308 44.8435 140.284 42.2047 140.257C41.4981 140.25 40.7914 140.242 40.0847 140.235C39.6139 140.231 39.1431 140.226 38.6723 140.221C35.6424 140.19 32.6125 140.167 29.5825 140.151C27.4317 140.14 25.2809 140.125 23.1301 140.108C21.8495 140.098 20.5689 140.09 19.2882 140.087C18.0988 140.084 16.9096 140.076 15.7202 140.064C15.2867 140.06 14.8531 140.059 14.4195 140.059C10.3977 140.062 6.89798 139.417 3.85539 136.594C1.14713 133.42 1.06034 129.883 1.06096 125.887C1.05944 125.36 1.05943 125.36 1.05788 124.822C1.05514 123.852 1.0541 122.881 1.05337 121.911C1.05229 120.862 1.04966 119.814 1.04726 118.765C1.04184 116.236 1.03904 113.707 1.03659 111.178C1.03538 109.986 1.0339 108.793 1.03246 107.6C1.02778 103.633 1.02379 99.6664 1.0218 95.6993C1.02127 94.6715 1.02074 93.6437 1.0202 92.6158C1.02007 92.3604 1.01993 92.105 1.0198 91.8418C1.01751 87.703 1.01053 83.5643 1.00159 79.4256C0.992476 75.1712 0.98752 70.9167 0.986641 66.6623C0.986046 64.2757 0.983649 61.8891 0.976598 59.5025C0.970608 57.4704 0.968413 55.4383 0.971085 53.4062C0.972333 52.3705 0.971838 51.3349 0.966471 50.2993C0.960688 49.1737 0.963551 48.0482 0.967168 46.9226C0.964148 46.5993 0.96112 46.276 0.958008 45.943C0.985385 42.3995 1.86545 39.4596 4.3739 36.9303C6.70293 34.7657 9.16541 33.9165 12.343 33.8515C14.4675 33.6149 16.4012 32.4446 18.2962 31.515C18.7365 31.3024 19.1771 31.0902 19.6178 30.8784C20.5266 30.4413 21.4346 30.0026 22.3421 29.5628C24.1882 28.6702 26.0459 27.8024 27.9035 26.9337C31.6833 25.1646 35.4455 23.3605 39.2011 21.5407C40.8302 20.7515 42.4628 19.9701 44.0968 19.1913C45.9767 18.2942 47.8535 17.3911 49.7284 16.4836C49.936 16.3832 50.1436 16.2828 50.3576 16.1793C51.4171 15.6662 52.4755 15.1507 53.5317 14.6306C55.2454 13.788 56.9502 12.95 58.7151 12.2183C59.8961 11.7189 60.9516 11.2624 61.9628 10.4649C62.3223 9.49601 62.3478 8.79688 62.2855 7.76903C62.1863 5.91584 63.0758 4.36488 64.2004 2.94324C67.3711 -0.439778 72.7582 -0.651683 76.5747 1.73088ZM65.4224 6.90198C64.6549 8.34494 64.4904 9.66663 64.834 11.2964C65.3754 13.0335 66.463 13.9989 68.001 14.9098C69.2453 15.4254 70.6723 15.3459 71.9468 14.9572C73.2789 14.3505 74.0692 13.5846 74.9062 12.3926C75.4285 10.8256 75.509 9.08084 74.89 7.53237C74.0004 6.08099 72.9913 5.1173 71.3261 4.68165C68.7734 4.29409 67.0322 4.8794 65.4224 6.90198ZM62.5237 15.459C62.307 15.5572 62.0903 15.6553 61.8671 15.7564C61.6383 15.8559 61.4095 15.9554 61.1737 16.0579C60.4194 16.387 59.668 16.722 58.9163 17.057C58.3892 17.2882 57.8619 17.519 57.3344 17.7493C56.2626 18.2178 55.1917 18.6882 54.1214 19.1601C52.7867 19.7475 51.4481 20.3249 50.106 20.8953C49.913 20.9773 49.72 21.0593 49.5212 21.1438C49.1375 21.3068 48.7538 21.4698 48.3701 21.6328C42.5927 24.0903 36.8569 26.6433 31.1191 29.1914C30.6219 29.4121 30.1247 29.6328 29.6275 29.8535C26.8194 31.1002 24.0119 32.3483 21.205 33.5977C21.205 33.6885 21.205 33.7794 21.205 33.8731C35.8174 33.9107 50.4286 33.8651 65.0405 33.7526C65.2365 33.7511 65.4325 33.7496 65.6344 33.748C70.6475 33.7094 75.6606 33.6689 80.6737 33.6277C83.5795 33.6039 86.4852 33.5806 89.391 33.5576C89.599 33.5559 89.8069 33.5543 90.0212 33.5526C91.0657 33.5443 92.1101 33.5361 93.1546 33.5278C101.668 33.4606 110.18 33.3919 118.693 33.3223C117.931 32.5598 117.011 32.2379 116.035 31.8173C115.818 31.7224 115.6 31.6274 115.376 31.5296C114.652 31.2137 113.927 30.8997 113.203 30.5856C112.43 30.2493 111.658 29.9125 110.886 29.5756C110.35 29.3418 109.814 29.1081 109.278 28.8746C107.467 28.0853 105.66 27.2889 103.854 26.487C97.8702 23.8291 91.8746 21.2027 85.8333 18.6766C84.6673 18.188 83.5072 17.6888 82.3524 17.1742C81.5655 16.8249 80.7741 16.486 79.9837 16.1448C79.5787 15.9573 79.5787 15.9573 79.1654 15.7661C78.4615 15.4689 77.8684 15.2333 77.1093 15.1465C76.4962 15.4013 76.0954 15.7082 75.602 16.1499C74.3036 17.3036 71.9766 17.4955 70.2955 17.4292C68.3784 17.1838 66.8245 16.5711 65.2675 15.4219C64.1875 14.7528 63.6835 14.9615 62.5237 15.459ZM4.95695 39.9316C3.99994 41.4897 3.54904 42.8706 3.53643 44.7024C3.53374 45.0009 3.53103 45.2994 3.52826 45.607C3.52667 45.9345 3.52509 46.2619 3.52346 46.5993C3.52073 46.9468 3.51801 47.2944 3.5152 47.6524C3.50772 48.6148 3.50194 49.5771 3.49648 50.5395C3.49037 51.5701 3.48279 52.6007 3.47545 53.6313C3.45983 55.8685 3.44637 58.1056 3.43332 60.3428C3.42517 61.7371 3.41647 63.1314 3.4077 64.5257C3.33032 76.8888 3.27603 89.2519 3.27076 101.615C3.2702 102.634 3.26917 103.653 3.26803 104.672C3.26416 108.676 3.27132 112.68 3.29852 116.684C3.30266 117.302 3.3065 117.921 3.31003 118.539C3.32113 120.434 3.33837 122.328 3.36439 124.223C3.37177 124.811 3.3774 125.4 3.38112 125.988C3.38674 126.798 3.39919 127.608 3.41339 128.417C3.41363 128.652 3.41385 128.887 3.41409 129.129C3.47243 131.568 4.41233 133.496 6.05852 135.274C7.83043 136.862 9.619 137.455 11.959 137.454C12.1362 137.454 12.3134 137.455 12.496 137.455C13.089 137.456 13.6821 137.454 14.2751 137.453C14.6998 137.453 15.1245 137.453 15.5492 137.453C16.7057 137.453 17.8623 137.451 19.0188 137.449C19.7516 137.448 20.4845 137.447 21.2173 137.446C31.4677 137.437 41.7175 137.362 51.9675 137.269C53.7042 137.253 55.4409 137.238 57.1776 137.222C57.4305 137.22 57.6834 137.218 57.9439 137.216C58.4584 137.211 58.9728 137.207 59.4873 137.202C64.2262 137.161 68.9651 137.118 73.7039 137.075C77.7488 137.038 81.7937 137.002 85.8386 136.968C90.592 136.927 95.3453 136.885 100.099 136.842C100.606 136.837 101.113 136.833 101.62 136.828C101.869 136.826 102.119 136.824 102.375 136.821C104.113 136.806 105.851 136.791 107.589 136.776C109.701 136.758 111.813 136.739 113.925 136.719C114.997 136.709 116.069 136.699 117.142 136.691C120.839 136.66 124.537 136.628 128.233 136.485C128.474 136.477 128.716 136.469 128.964 136.461C131.385 136.351 132.967 135.643 134.649 133.891C136.431 131.838 136.438 129.544 136.425 126.962C136.427 126.426 136.427 126.426 136.43 125.878C136.434 124.889 136.432 123.901 136.43 122.912C136.429 121.844 136.432 120.776 136.435 119.708C136.44 117.617 136.44 115.527 136.439 113.436C136.438 111.737 136.438 110.037 136.44 108.338C136.44 108.096 136.44 107.854 136.44 107.605C136.441 107.113 136.441 106.621 136.441 106.129C136.445 101.52 136.444 96.9108 136.441 92.3015C136.438 88.0863 136.441 83.8711 136.448 79.656C136.455 75.3256 136.457 70.9953 136.456 66.6649C136.455 64.2346 136.455 61.8043 136.46 59.374C136.464 57.3053 136.464 55.2366 136.459 53.1679C136.457 52.1128 136.457 51.0579 136.461 50.0028C136.465 48.8581 136.461 47.7136 136.456 46.5688C136.459 46.2368 136.462 45.9048 136.464 45.5627C136.445 43.3448 136.063 41.6794 134.775 39.8574C134.631 39.7172 134.487 39.577 134.339 39.4325C134.199 39.2887 134.058 39.145 133.914 38.9968C131.75 37.4657 129.711 37.2804 127.11 37.2558C126.717 37.2484 126.324 37.2406 125.931 37.2325C124.788 37.2109 123.644 37.1974 122.5 37.1858C121.685 37.1773 120.869 37.1675 120.054 37.1574C115.858 37.1065 111.661 37.0725 107.465 37.0426C106.116 37.033 104.767 37.023 103.418 37.0127C103.222 37.0112 103.026 37.0097 102.824 37.0082C102.425 37.0052 102.026 37.0021 101.627 36.9991C97.8988 36.9707 94.1705 36.9437 90.4421 36.9171C87.3365 36.8949 84.2308 36.8715 81.1252 36.8472C71.1567 36.7691 61.1882 36.7018 51.2195 36.6504C48.8743 36.6384 46.5291 36.6255 44.184 36.6107C43.8544 36.6086 43.8544 36.6086 43.5182 36.6065C43.2979 36.6051 43.0776 36.6037 42.8506 36.6023C38.4678 36.5746 34.085 36.5518 29.7022 36.5382C27.6317 36.5317 25.5613 36.523 23.4908 36.5083C21.5702 36.4946 19.6497 36.4879 17.7291 36.4861C17.0266 36.4843 16.3242 36.4802 15.6219 36.4735C14.6617 36.4648 13.702 36.4646 12.7418 36.4665C12.4656 36.462 12.1893 36.4575 11.9047 36.4528C9.05446 36.4776 6.70807 37.6682 4.95695 39.9316Z" fill="#103255"/>
<path d="M43.1041 58.9476C45.0343 60.4644 46.3693 62.8503 46.8164 65.2676C47.0636 69.1284 46.6567 72.3939 44.0625 75.4571C41.8058 77.683 39.0374 78.6119 35.9213 78.8306C32.515 78.7655 29.5481 77.5885 27.1777 75.1473C25.1952 72.7755 24.2432 69.7228 24.5098 66.6446C24.9474 63.5451 26.0105 60.9749 28.4685 58.9508C32.9517 55.7606 38.6088 55.9233 43.1041 58.9476ZM28.759 63.4948C27.5308 65.0245 26.9337 66.9417 27.0324 68.8929C27.3582 71.0992 28.016 73.1164 29.7422 74.6309C32.038 76.0173 34.1689 76.7086 36.8335 76.1144C39.0323 75.4211 40.6096 74.3212 41.6884 72.2492C42.6998 69.7331 42.6953 67.688 41.6905 65.1708C40.7167 63.3109 39.2013 62.0756 37.2563 61.325C34.0231 60.3578 31.162 61.1037 28.759 63.4948Z" fill="#103255"/>
<path d="M112.359 109.055C115.723 109.389 119.52 114.812 121.597 117.268C125.578 122.134 125.578 122.134 125.578 124.201C124.212 124.091 123.476 123.393 122.532 122.48C122.298 122.258 122.298 122.258 122.059 122.032C119.681 119.751 117.503 117.309 115.406 114.769C115.186 114.506 115.186 114.506 114.962 114.237C112.359 111.033 112.359 111.033 112.359 109.055Z" fill="#103255"/>
<path d="M114.838 104.924C115.627 104.858 116.075 104.833 116.748 105.272C116.916 105.433 117.084 105.595 117.257 105.762C117.542 106.033 117.542 106.033 117.833 106.309C118.131 106.603 118.131 106.603 118.435 106.903C118.642 107.103 118.848 107.303 119.061 107.508C126.107 114.376 126.107 114.376 126.404 117.041C126.268 117.314 126.268 117.314 126.129 117.592C124.755 117.486 124.059 116.78 123.138 115.839C122.987 115.689 122.836 115.538 122.68 115.383C122.361 115.063 122.042 114.741 121.725 114.418C121.249 113.935 120.769 113.456 120.288 112.979C115.078 107.762 115.078 107.762 114.838 104.924Z" fill="#103255"/>
</g>
<defs>
<clipPath id="clip0_54_584">
<rect width="141" height="141" fill="white"/>
</clipPath>
</defs>
</svg>
