<svg width="165" height="165" viewBox="0 0 165 165" fill="none" xmlns="http://www.w3.org/2000/svg">
<path d="M87.1874 18.7953C87.4204 18.8715 87.6534 18.9478 87.8935 19.0263C88.6636 19.2787 89.4327 19.5339 90.2018 19.7892C90.7481 19.969 91.2944 20.1487 91.8407 20.3282C93.3004 20.8086 94.7593 21.2915 96.2179 21.7752C97.124 22.0756 98.0304 22.3753 98.9368 22.6749C114.36 27.7731 129.7 33.0189 144.778 39.0748C145.004 39.1647 145.229 39.2547 145.462 39.3473C146.089 39.5982 146.715 39.8521 147.341 40.107C147.695 40.2504 148.05 40.3939 148.415 40.5416C149.209 40.9278 149.209 40.9278 149.531 41.5723C149.584 42.0019 149.62 42.4336 149.647 42.8656C149.664 43.1377 149.681 43.4098 149.699 43.6901C149.716 43.9907 149.734 44.2914 149.752 44.6011C149.771 44.9193 149.79 45.2374 149.81 45.5652C149.874 46.6377 149.935 47.7103 149.995 48.783C150.016 49.157 150.037 49.531 150.059 49.9164C150.628 60.1262 150.906 70.3443 151.143 80.5664C151.156 81.1435 151.156 81.1435 151.17 81.7322C151.292 87.0214 151.371 92.3109 151.433 97.6011C151.457 99.5936 151.483 101.586 151.509 103.579C151.565 107.904 151.617 112.229 151.663 116.554C151.687 118.778 151.712 121.002 151.741 123.225C151.769 125.344 151.791 127.463 151.81 129.582C151.818 130.374 151.828 131.166 151.84 131.958C151.855 133.058 151.865 134.157 151.873 135.256C151.879 135.574 151.885 135.892 151.891 136.22C151.9 139.137 151.448 142.075 149.531 144.375C146.747 147.096 143.94 147.097 140.247 147.092C139.76 147.095 139.272 147.099 138.784 147.102C137.447 147.111 136.109 147.114 134.771 147.116C133.323 147.119 131.875 147.128 130.427 147.136C127.584 147.15 124.74 147.16 121.896 147.167C119.58 147.173 117.263 147.18 114.947 147.189C107.585 147.217 100.223 147.239 92.8605 147.256C87.2326 147.269 81.6047 147.287 75.9768 147.307C69.2474 147.332 62.5179 147.351 55.7884 147.363C55.0645 147.364 54.3406 147.366 53.6167 147.367C53.0819 147.368 53.082 147.368 52.5364 147.369C50.0237 147.374 47.511 147.382 44.9983 147.391C41.9284 147.403 38.8586 147.409 35.7887 147.41C34.2182 147.411 32.6479 147.413 31.0774 147.422C29.6358 147.429 28.1943 147.43 26.7527 147.427C26.2316 147.427 25.7104 147.429 25.1893 147.433C21.8182 147.461 19.2117 147.147 16.335 145.302C13.7057 142.489 13.6127 139.45 13.6043 135.779C13.5972 135.218 13.5895 134.656 13.5813 134.095C13.5602 132.501 13.55 130.908 13.5416 129.314C13.5328 127.845 13.5186 126.376 13.5047 124.906C13.4539 119.47 13.4268 114.034 13.4026 108.598C13.3972 107.397 13.3915 106.197 13.3859 104.996C13.3671 100.997 13.349 96.9985 13.3327 92.9996C13.3286 91.9754 13.3244 90.9512 13.3202 89.927C13.3192 89.6726 13.3182 89.4182 13.3171 89.156C13.3001 85.0004 13.2788 80.8449 13.2558 76.6894C13.2321 72.398 13.2121 68.1067 13.1957 63.8153C13.1864 61.4153 13.1756 59.0154 13.1607 56.6155C13.1467 54.3699 13.1377 52.1243 13.1321 49.8787C13.1293 49.0546 13.1247 48.2306 13.1184 47.4065C13.1101 46.2844 13.1077 45.1625 13.1069 44.0403C13.103 43.7127 13.0992 43.3851 13.0952 43.0476C13.1045 40.2572 13.1045 40.2572 14.1799 38.9942C14.9811 38.5495 14.9811 38.5495 15.9624 38.2036C16.3392 38.0701 16.716 37.9365 17.1042 37.7989C19.2229 37.0942 21.3544 36.4326 23.491 35.7848C24.9875 35.3307 26.4822 34.8709 27.9769 34.4107C28.2945 34.3129 28.6121 34.2152 28.9394 34.1144C32.3218 33.0699 35.6908 31.9846 39.0597 30.8976C51.0427 27.0325 63.0418 23.1988 75.1428 19.7169C75.7839 19.5322 76.4246 19.3461 77.0649 19.1585C77.9401 18.9029 78.8167 18.6534 79.6942 18.4057C79.9474 18.3308 80.2006 18.256 80.4615 18.1788C80.6986 18.1134 80.9357 18.048 81.1799 17.9806C81.3819 17.923 81.5838 17.8653 81.7919 17.8059C83.6558 17.5921 85.4402 18.2113 87.1874 18.7953ZM78.8344 25.0361C78.6059 25.2965 78.3775 25.557 78.142 25.8254C77.7129 26.3215 77.2842 26.8181 76.8587 27.3173C73.3233 31.4246 69.4292 35.4039 65.0978 38.6719C64.6774 39.0004 64.2574 39.3294 63.8377 39.6589C60.91 41.9442 57.9226 44.0959 54.7853 46.084C54.6006 46.2017 54.4158 46.3194 54.2255 46.4406C43.9924 52.9051 32.5535 57.912 20.374 58.8245C19.9982 58.8528 19.6224 58.8811 19.2351 58.9103C18.8066 58.9422 18.8066 58.9422 18.3693 58.9747C18.3617 67.058 18.3561 75.1413 18.3526 83.2247C18.351 86.9799 18.3488 90.7351 18.345 94.4903C18.3418 97.7722 18.3397 101.054 18.339 104.336C18.3386 106.066 18.3377 107.795 18.3353 109.525C18.3258 116.656 18.3477 123.786 18.4564 130.916C18.4667 131.629 18.4755 132.343 18.4827 133.056C18.4932 134.045 18.5097 135.033 18.5278 136.022C18.5298 136.313 18.5317 136.605 18.5337 136.905C18.5741 138.658 18.7995 139.932 19.6584 141.475C21.1972 142.388 22.4812 142.559 24.2494 142.536C24.4608 142.534 24.6722 142.533 24.89 142.532C25.5566 142.526 26.2228 142.514 26.8892 142.502C27.3447 142.497 27.8002 142.493 28.2557 142.489C29.3647 142.478 30.4734 142.461 31.5822 142.441C31.5399 142.207 31.4976 141.972 31.454 141.731C30.8814 138.208 30.743 134.692 30.6137 131.13C30.5756 130.088 30.5335 129.046 30.4908 128.004C30.3541 124.538 30.2631 121.073 30.2453 117.604C30.2423 117.29 30.2393 116.976 30.2363 116.653C30.2356 114.191 30.5591 111.94 31.26 109.57C31.0144 109.435 31.0144 109.435 30.764 109.297C28.5406 108.002 26.982 106.639 26.144 104.152C25.2869 100.78 25.7504 97.6289 27.5136 94.6253C28.645 92.9501 29.9032 91.9551 31.9045 91.5235C33.6166 91.5235 34.924 91.9545 36.4162 92.8125C36.4162 92.5998 36.4162 92.3871 36.4162 92.168C38.9718 92.1753 41.1553 92.2135 43.2354 93.8171C45.3807 96.0125 45.8792 98.471 45.8538 101.437C45.6335 103.939 44.5967 105.923 43.1838 107.959C47.6902 111.586 52.4452 114.534 57.6857 116.982C58.0488 117.154 58.4119 117.326 58.786 117.504C73.0832 123.966 89.928 124.147 104.555 118.715C111.006 116.213 116.869 112.761 122.139 108.281C121.906 107.948 121.906 107.948 121.668 107.608C119.487 104.363 118.84 101.857 119.561 97.9688C120.244 95.8495 121.304 93.8706 122.985 92.3896C124.519 91.6224 126.229 91.1825 127.917 91.7224C128.319 91.9035 128.721 92.0857 129.122 92.2687C130.151 92.5722 131.079 92.5063 132.149 92.4701C134.122 92.4301 135.104 92.537 136.641 93.7793C138.379 95.5567 139.326 97.3604 139.37 99.8533C139.367 100.069 139.363 100.284 139.36 100.507C139.357 100.733 139.355 100.959 139.352 101.193C139.256 104.13 138.187 105.896 136.28 108.047C135.594 108.677 134.864 109.102 134.063 109.57C134.105 109.767 134.147 109.963 134.191 110.166C134.852 113.607 134.935 117.074 135.07 120.568C135.083 120.9 135.097 121.232 135.11 121.575C135.287 125.985 135.417 130.394 135.432 134.808C135.434 135.03 135.436 135.251 135.437 135.48C135.452 137.986 135.332 140.33 134.707 142.764C135.936 142.837 137.164 142.902 138.393 142.965C138.738 142.986 139.082 143.007 139.437 143.028C141.879 143.148 144.158 143.172 146.289 141.857C147.831 140.221 147.699 138.404 147.712 136.276C147.717 135.945 147.721 135.613 147.726 135.271C147.74 134.158 147.75 133.046 147.76 131.933C147.769 131.136 147.779 130.338 147.789 129.541C147.809 127.824 147.828 126.107 147.845 124.39C147.87 121.908 147.898 119.426 147.927 116.943C147.973 112.915 148.017 108.888 148.06 104.86C148.101 100.948 148.143 97.0355 148.187 93.1232C148.19 92.882 148.192 92.6409 148.195 92.3924C148.209 91.1824 148.223 89.9724 148.236 88.7624C148.35 78.7258 148.459 68.6891 148.565 58.6524C148.352 58.635 148.139 58.6176 147.92 58.5997C146.947 58.5194 145.973 58.4375 145 58.3555C144.665 58.3282 144.331 58.3009 143.986 58.2727C141.615 58.0714 139.368 57.7482 137.064 57.1418C136.73 57.0573 136.396 56.9729 136.052 56.8859C121.459 53.0878 107.246 45.4658 95.7131 35.7715C95.5399 35.627 95.3668 35.4825 95.1885 35.3336C90.7794 31.6456 87.1676 27.7855 83.8849 23.0571C83.4903 22.4789 83.4903 22.4789 82.7016 22.4176C80.9788 22.7048 79.9468 23.757 78.8344 25.0361ZM90.2346 24.8145C93.8381 28.4901 97.9948 31.4817 102.158 34.4825C102.502 34.7324 102.502 34.7324 102.853 34.9874C108.287 38.9312 113.932 42.5515 119.853 45.7201C120.502 46.0701 121.145 46.4288 121.788 46.7902C129.181 50.8973 139.925 56.7188 148.565 56.7188C148.671 51.6141 148.777 46.5094 148.887 41.25C146.806 40.7183 144.726 40.1866 142.583 39.6387C133.779 37.3564 125.056 34.8158 116.338 32.2266C116.112 32.1594 115.886 32.0922 115.652 32.023C109.37 30.1569 103.091 28.282 96.8129 26.4009C96.4608 26.2958 96.1086 26.1908 95.7458 26.0825C95.0968 25.8869 94.4489 25.6878 93.8023 25.4846C93.5176 25.3957 93.2329 25.3068 92.9396 25.2152C92.6953 25.1374 92.451 25.0596 92.1993 24.9795C91.4308 24.7635 91.4308 24.7635 90.2346 24.8145ZM73.1355 25.2914C72.8603 25.3834 72.5851 25.4754 72.3015 25.5702C71.9859 25.6743 71.6703 25.7784 71.3451 25.8857C70.998 26.0029 70.6508 26.1201 70.2931 26.2408C69.9294 26.3613 69.5656 26.4818 69.1908 26.606C68.1902 26.9377 67.1903 27.2714 66.1905 27.6056C64.4802 28.1762 62.7677 28.7401 61.0554 29.3047C60.6127 29.4507 60.1701 29.5968 59.7274 29.7429C55.1312 31.2601 50.5203 32.7288 45.9029 34.1803C45.5323 34.2969 45.1617 34.4135 44.7799 34.5336C42.8902 35.1281 41.0002 35.7218 39.1101 36.3152C36.5732 37.112 34.0373 37.9124 31.5017 38.7135C31.1786 38.8155 31.1786 38.8155 30.8491 38.9196C29.7837 39.2562 28.7183 39.5928 27.6529 39.9295C25.6826 40.5521 23.7122 41.1742 21.7418 41.7964C20.6289 42.1478 19.516 42.4993 18.3693 42.8614C18.3693 47.328 18.3693 51.7946 18.3693 56.3965C31.0495 53.5787 43.8659 47.3064 54.7853 40.2832C55.0587 40.1077 55.332 39.9321 55.6137 39.7512C61.2906 36.0807 66.783 32.1782 71.8654 27.7149C72.1388 27.4773 72.4121 27.2396 72.6937 26.9948C73.279 26.485 73.8624 25.9735 74.4435 25.459C73.8144 25.0587 73.8144 25.0587 73.1355 25.2914ZM32.9103 95.0155C31.1536 96.9299 30.4616 98.5247 30.5361 101.136C30.7132 102.699 31.4087 103.68 32.5692 104.676C34.251 105.928 35.6459 105.9 37.7053 105.703C39.2204 105.265 40.0858 104.662 41.0689 103.427C41.9928 101.69 42.2249 100.07 41.6744 98.179C40.8574 96.1483 39.8456 95.1487 37.9872 94.0009C37.2886 93.7054 37.2886 93.7054 36.0939 93.7793C36.0939 93.5666 36.0939 93.3539 36.0939 93.1348C34.7958 93.1348 33.7963 94.1498 32.9103 95.0155ZM126.328 95.0684C124.948 96.5762 124.092 98.2075 124.062 100.299C124.206 102.441 124.924 103.71 126.51 105.179C128.274 106.013 130.051 106.049 131.919 105.468C133.297 104.836 134.199 104.098 135.029 102.803C135.645 100.957 135.646 99.0079 134.828 97.2235C133.646 95.1699 131.702 94.002 129.551 93.1348C128.276 93.1348 127.252 94.2634 126.328 95.0684ZM40.9279 109.57C40.9472 109.78 40.9665 109.991 40.9864 110.207C41.3104 114.037 41.4438 117.876 41.5926 121.716C41.6068 122.082 41.6211 122.449 41.6358 122.826C41.9579 131.225 41.9579 131.225 41.9753 135.17C41.9782 135.474 41.9812 135.777 41.9842 136.09C41.9772 137.631 41.8301 139.09 41.5671 140.61C41.5081 140.954 41.449 141.298 41.3882 141.653C41.3426 141.913 41.2971 142.173 41.2502 142.441C45.8424 142.501 50.4347 142.554 55.027 142.603C55.3859 142.606 55.7448 142.61 56.1145 142.614C71.5229 142.776 86.9306 142.791 102.34 142.784C102.769 142.784 102.769 142.784 103.206 142.783C110.591 142.78 117.976 142.773 125.362 142.764C125.316 142.544 125.271 142.324 125.225 142.098C125.166 141.809 125.107 141.52 125.047 141.222C124.988 140.936 124.93 140.65 124.87 140.355C124.681 139.349 124.594 138.364 124.539 137.342C124.528 137.131 124.517 136.921 124.505 136.704C124.465 135.931 124.429 135.158 124.395 134.385C124.38 134.058 124.365 133.732 124.349 133.395C124.242 131.046 124.147 128.696 124.06 126.346C124.028 125.517 123.994 124.687 123.959 123.858C123.755 119.03 123.682 114.359 124.395 109.57C123.406 110.008 122.767 110.491 122.033 111.281C121.831 111.494 121.629 111.706 121.421 111.925C121.206 112.152 120.991 112.378 120.769 112.612C118.324 115.115 115.769 117.09 112.793 118.916C112.492 119.106 112.492 119.106 112.185 119.299C99.3489 127.32 82.9585 129.133 68.3356 125.924C58.0137 123.484 49.61 118.418 42.217 110.859C41.7875 110.429 41.3579 110 40.9279 109.57ZM35.9127 110.698C35.6464 110.728 35.3801 110.758 35.1057 110.789C34.7973 110.824 34.7973 110.824 34.4826 110.859C34.5021 111.172 34.5217 111.485 34.5418 111.808C34.6155 112.998 34.6871 114.188 34.758 115.378C34.7887 115.887 34.8199 116.397 34.8518 116.906C35.1808 122.18 35.194 127.381 34.8695 132.655C34.8246 133.384 34.7821 134.114 34.74 134.843C34.591 137.381 34.408 139.911 34.1603 142.441C35.3302 142.441 36.5 142.441 37.7053 142.441C37.6857 142.117 37.6662 141.793 37.6461 141.458C37.5725 140.229 37.5009 138.999 37.4299 137.769C37.3991 137.24 37.3678 136.71 37.3361 136.18C37.2899 135.407 37.2457 134.634 37.2017 133.861C37.1876 133.631 37.1735 133.401 37.159 133.165C36.8783 128.097 37.1596 123.033 37.383 117.969C37.4141 117.246 37.4452 116.523 37.4762 115.8C37.5514 114.046 37.6279 112.291 37.7053 110.537C37.105 110.537 36.5085 110.631 35.9127 110.698ZM129.511 110.698C128.893 110.778 128.893 110.778 128.262 110.859C128.285 111.175 128.308 111.491 128.332 111.816C128.936 121.061 128.69 130.333 128 139.563C127.932 140.635 127.914 141.69 127.94 142.764C129.109 142.764 130.279 142.764 131.485 142.764C131.438 142.401 131.392 142.038 131.344 141.663C130.181 131.395 130.593 120.815 131.485 110.537C130.811 110.537 130.178 110.612 129.511 110.698Z" fill="#103255"/>
<path d="M94.4841 47.2521C94.6881 47.3493 94.892 47.4465 95.1022 47.5467C96.3362 48.4983 96.9402 49.5816 97.1946 51.1085C97.2151 51.5396 97.229 51.9711 97.2371 52.4026C97.2462 52.6399 97.2553 52.8772 97.2647 53.1217C97.2918 53.891 97.309 54.66 97.324 55.4296C97.3301 55.6834 97.3361 55.9372 97.3424 56.1987C97.387 58.1213 97.4081 60.0438 97.426 61.9668C97.4327 62.5835 97.4394 63.2002 97.4463 63.8169C97.4603 65.1019 97.4735 66.387 97.486 67.6721C97.505 69.6159 97.5261 71.5597 97.5475 73.5035C97.5775 76.248 97.6017 78.9924 97.6228 81.737C97.6365 83.3748 97.6629 85.0115 97.7003 86.6489C97.7064 87.0085 97.7125 87.3682 97.7188 87.7387C97.7295 88.3615 97.7449 88.9842 97.7668 89.6067C97.7908 91.4721 97.4189 92.8702 96.3572 94.4237C93.7908 96.7458 89.9762 96.4566 86.7245 96.4542C86.3045 96.4556 85.8845 96.457 85.4517 96.4584C84.5687 96.4608 83.6858 96.4608 82.8029 96.459C81.6753 96.4572 80.5478 96.4627 79.4202 96.4701C78.3369 96.476 77.2536 96.4748 76.1703 96.4744C75.7675 96.4774 75.3646 96.4803 74.9495 96.4834C71.455 96.4648 71.455 96.4648 69.9315 95.3905C67.5528 92.8798 67.6263 89.934 67.6492 86.6679C67.6505 86.3153 67.6519 85.9626 67.6533 85.5992C67.6586 84.4587 67.6668 83.3182 67.6756 82.1776C67.6794 81.6172 67.6794 81.6172 67.6833 81.0454C67.8078 63.7977 67.8078 63.7977 68.441 56.6582C68.4594 56.4401 68.4778 56.222 68.4968 55.9973C68.9979 50.2591 68.9979 50.2591 70.8983 48.662C71.6888 48.5902 71.6888 48.5902 72.5902 48.6419C73.6754 48.7016 74.4439 48.6618 75.4952 48.3544C76.6419 48.0335 77.6926 47.8682 78.8756 47.7544C79.4884 47.6942 79.4884 47.6942 80.1137 47.6329C80.5355 47.5936 80.9574 47.5544 81.392 47.5139C81.8052 47.4734 82.2183 47.4329 82.644 47.3912C92.8233 46.4097 92.8233 46.4097 94.4841 47.2521ZM72.3665 49.7298C71.5763 51.0941 71.7731 52.3639 71.8688 53.9051C71.8841 54.2416 71.8994 54.5782 71.9151 54.9249C71.9489 55.6563 71.9856 56.3876 72.025 57.1187C72.1302 59.0824 72.2133 61.047 72.2994 63.0116C72.3178 63.4193 72.3362 63.8269 72.3552 64.2469C72.5521 68.7051 72.6385 73.164 72.711 77.6256C72.7239 78.3666 72.7368 79.1076 72.7496 79.8485C72.806 83.2346 72.8453 86.6176 72.8046 90.0041C72.7311 90.8516 72.7311 90.8516 73.1541 91.2011C73.7573 91.2313 74.3617 91.2389 74.9657 91.2376C75.3528 91.2376 75.7399 91.2376 76.1387 91.2376C76.7706 91.2351 76.7706 91.2351 77.4153 91.2325C77.8484 91.2319 78.2814 91.2315 78.7145 91.2312C79.8562 91.2299 80.9979 91.2268 82.1397 91.2232C83.3039 91.2199 84.4682 91.2184 85.6325 91.2168C87.9183 91.2133 90.2042 91.2078 92.4901 91.2011C92.8982 90.3848 92.8637 89.8008 92.8785 88.8867C92.8849 88.5335 92.8913 88.1803 92.898 87.8164C92.9033 87.4278 92.9087 87.0393 92.9143 86.639C92.921 86.2323 92.9278 85.8256 92.9347 85.4066C92.9529 84.2934 92.9688 83.1802 92.984 82.067C92.9936 81.3739 93.0036 80.6808 93.0136 79.9877C93.1069 73.5165 93.174 67.045 93.1914 60.5732C93.1938 59.7492 93.1972 58.9252 93.2017 58.1013C93.2074 56.9564 93.2088 55.8116 93.2089 54.6667C93.2112 54.3266 93.2135 53.9866 93.2158 53.6362C93.2149 53.3278 93.2139 53.0195 93.2129 52.7018C93.2133 52.4334 93.2138 52.165 93.2143 51.8884C93.193 51.1663 93.193 51.1663 92.4901 50.5956C90.7624 50.3046 89.0544 50.2203 87.3036 50.194C86.8068 50.1834 86.3099 50.1727 85.8131 50.1619C85.0469 50.1468 84.2807 50.1325 83.5145 50.1197C82.7633 50.1066 82.0122 50.0907 81.2611 50.0732C81.0155 50.0678 80.7699 50.0624 80.5169 50.0569C78.3764 49.9916 76.3048 49.6912 74.1983 49.3153C73.1584 49.2229 73.1584 49.2229 72.3665 49.7298Z" fill="#103255"/>
<path d="M126.832 61.1498C127.2 61.1394 127.2 61.1394 127.576 61.1289C129.499 61.1173 130.493 61.5661 131.867 62.8618C133.547 65.584 133.205 69.1534 133.197 72.2448C133.196 73.0552 133.204 73.8652 133.212 74.6755C133.213 75.1969 133.213 75.7183 133.213 76.2396C133.216 76.4787 133.219 76.7178 133.222 76.9641C133.204 78.9269 132.814 80.4867 131.424 81.9561C129.22 83.2782 126.775 83.2569 124.276 83.3005C123.93 83.3083 123.583 83.3161 123.226 83.3241C122.497 83.3396 121.767 83.3536 121.038 83.3662C119.929 83.386 118.82 83.4128 117.711 83.4403C116.999 83.4545 116.287 83.4684 115.575 83.4818C115.247 83.4902 114.919 83.4985 114.582 83.5071C109.493 83.5788 109.493 83.5788 107.967 82.2803C105.402 79.442 106.236 75.1267 106.348 71.5429C106.713 65.2769 106.713 65.2769 108.523 63.1438C109.248 62.8417 109.248 62.8417 110.235 63.0028C111.723 63.1918 112.662 62.8884 114.078 62.4653C118.197 61.3274 122.582 61.216 126.832 61.1498ZM110.859 64.1308C110.459 64.4597 110.459 64.4597 110.494 65.152C110.502 67.9092 110.662 70.6466 110.859 73.3959C110.89 73.844 110.921 74.2922 110.952 74.7404C111.028 75.8231 111.104 76.9057 111.182 77.9882C112.427 78.2799 113.583 78.352 114.861 78.3533C115.266 78.3537 115.671 78.3541 116.088 78.3545C116.509 78.3533 116.931 78.352 117.365 78.3507C117.77 78.352 118.175 78.3532 118.593 78.3545C121.837 78.3512 125.011 78.1688 128.262 77.9882C128.368 73.8406 128.474 69.6931 128.584 65.4198C127.439 65.3538 126.295 65.2877 125.116 65.2197C124.006 65.1549 122.897 65.0897 121.788 65.0245C121.018 64.9794 120.247 64.9347 119.476 64.8904C118.368 64.8267 117.261 64.7615 116.153 64.696C115.636 64.6668 115.636 64.6668 115.11 64.6369C114.626 64.6079 114.626 64.6079 114.133 64.5784C113.709 64.5537 113.709 64.5537 113.276 64.5285C112.471 64.453 112.471 64.453 111.581 64.2639C111.343 64.22 111.105 64.176 110.859 64.1308Z" fill="#103255"/>
<path d="M52.9923 61.1095C53.3667 61.0969 53.3667 61.0969 53.7487 61.084C55.4188 61.0789 56.3791 61.3921 57.6853 62.5195C59.8615 65.6077 59.3973 70.2044 59.2961 73.8334C59.2763 74.6125 59.269 75.3911 59.2621 76.1704C59.2504 76.6723 59.2381 77.1742 59.2249 77.676C59.2238 78.0205 59.2238 78.0205 59.2226 78.3719C59.1692 79.7551 58.8839 80.7563 57.9125 81.7739C55.7827 83.3389 52.9452 83.3003 50.4142 83.332C50.0688 83.3393 49.7233 83.3466 49.3674 83.3542C48.6416 83.3685 47.9158 83.3805 47.19 83.3905C46.0867 83.4062 44.9839 83.4306 43.8808 83.456C43.1716 83.4689 42.4625 83.4813 41.7533 83.4932C41.4276 83.5005 41.1019 83.5078 40.7663 83.5154C35.6692 83.5706 35.6692 83.5706 34.1676 82.2709C32.3688 80.2416 32.4886 78.6313 32.4889 75.9727C32.4882 75.3242 32.4823 74.6757 32.4762 74.0272C32.4639 65.7468 32.4639 65.7468 34.7239 63.164C35.449 62.8417 35.449 62.8417 36.4788 63.0192C37.8503 63.1811 38.6849 62.9753 40.001 62.5799C44.2296 61.4148 48.6227 61.1934 52.9923 61.1095ZM37.0603 64.1308C36.5271 64.664 36.685 65.3075 36.677 66.021C36.6772 66.248 36.6774 66.475 36.6777 66.7089C36.6774 66.944 36.6772 67.1791 36.677 67.4213C36.7089 70.9529 37.0639 74.4732 37.3826 77.9882C38.6316 78.2811 39.7919 78.352 41.0736 78.3533C41.4771 78.3539 41.8806 78.3546 42.2963 78.3552C42.7263 78.3539 43.1562 78.3524 43.5862 78.3507C43.8024 78.3504 44.0185 78.35 44.2412 78.3496C49.6444 78.7952 49.6444 78.7952 54.4627 77.6659C54.5183 76.7877 54.5542 75.9168 54.576 75.0375C54.5834 74.774 54.5909 74.5106 54.5986 74.2391C54.614 73.6811 54.6285 73.123 54.6424 72.5649C54.664 71.7076 54.6891 70.8504 54.7145 69.9932C54.7289 69.4524 54.7432 68.9115 54.7573 68.3706C54.765 68.1124 54.7727 67.8543 54.7806 67.5883C54.7947 66.9731 54.7916 66.3575 54.785 65.7421C54.2719 65.2291 53.714 65.3397 53.0021 65.2996C52.6912 65.2813 52.3803 65.263 52.0599 65.2442C51.7212 65.2257 51.3825 65.2072 51.0336 65.1882C50.5142 65.1579 50.5142 65.1579 49.9844 65.1269C48.8723 65.062 47.76 64.999 46.6477 64.9364C45.5401 64.8737 44.4324 64.8106 43.3249 64.746C42.6345 64.7058 41.9441 64.6666 41.2536 64.6287C40.7811 64.6013 40.7811 64.6013 40.299 64.5733C40.0231 64.5578 39.7471 64.5423 39.4628 64.5263C38.6717 64.453 38.6717 64.453 37.7844 64.2643C37.5455 64.2202 37.3065 64.1762 37.0603 64.1308Z" fill="#103255"/>
</svg>
