<svg width="99" height="70" viewBox="0 0 99 70" fill="none" xmlns="http://www.w3.org/2000/svg">
<path d="M96.1919 11.1925C95.0639 6.95554 92.5912 3.36932 88.3542 2.24139C80.6756 0.187988 49.166 0 49.166 0C49.166 0 17.6564 0.187988 9.97781 2.24139C5.74086 3.36932 3.28255 6.95554 2.14017 11.1925C0.0867636 18.8711 0 34.7054 0 34.7054C0 34.7054 0.0867636 50.5398 2.14017 58.2183C3.26809 62.4553 5.74086 66.0415 9.97781 67.1695C17.6564 69.2229 49.166 69.4108 49.166 69.4108C49.166 69.4108 80.6756 69.2229 88.3542 67.1695C92.5912 66.0415 95.0639 62.4553 96.1919 58.2183C98.2453 50.5398 98.332 34.7054 98.332 34.7054C98.332 34.7054 98.2453 18.8711 96.1919 11.1925Z" fill="#FF0033"/>
<path d="M65.0729 34.7057L39.0438 20.2451V49.1663" fill="white"/>
</svg>
